<svg baseProfile="full" height="61" width="61" xmlns="http://www.w3.org/2000/svg"><path d="M59.99 60.018H1.988a1 1 0 0 1 0-2h1V9.021a1 1 0 0 1 1-1h5v-3a1 1 0 0 1 1-1h12.001v-3a1 1 0 1 1 2 0v3h12a1 1 0 0 1 1 1v3h5a1 1 0 0 1 1 1v48.997h8.001v-8.101c-3.384-.49-6.001-3.381-6.001-6.898 0-2.767 2.436-16.999 7.001-16.999 4.564 0 7 14.232 7 16.999 0 3.517-2.616 6.408-6 6.898v8.101h7a1 1 0 0 1 0 2zm-29.001-2h6V44.019h-6v13.999zm2-37.998v4h4v-4h-4zm4-2v-3.999h-4v3.999h4zm-4 8v4h4v-4h-4zm0 6v3.999h4V32.02h-4zm0 5.999v4h4v-4h-4zm-6-17.999v4h4v-4h-4zm4-2v-3.999h-4v3.999h4zm-4 8v4h4v-4h-4zm0 6v3.999h4V32.02h-4zm0 5.999v4h4v-4h-4zm-3 19.999h5V44.019h-5v13.999zm-3-37.998v4h4v-4h-4zm4-2v-3.999h-4v3.999h4zm-4 8v4h4v-4h-4zm0 6v3.999h4V32.02h-4zm0 5.999v4h4v-4h-4zm-4.001 19.999h5.001V44.019h-5.001v13.999zm-2-37.998v4h4.001v-4h-4.001zm4.001-2v-3.999h-4.001v3.999h4.001zm-4.001 8v4h4.001v-4h-4.001zm0 6v3.999h4.001V32.02h-4.001zm0 5.999v4h4.001v-4h-4.001zm-6 19.999h6V44.019h-6v13.999zm0-15.999h4v-4h-4v4zm0-6h4V32.02h-4v3.999zm0-5.999h4v-4h-4v4zm0-6h4v-4h-4v4zm0-6h4v-3.999h-4v3.999zM34.989 6.021H10.988v2h24.001v-2zm6 4H4.988v47.997h2V13.021a1 1 0 0 1 1-1h30.001a1 1 0 0 1 1 1v44.997h2V10.021zM56.99 43.019c0-5.963-3.551-14.999-5-14.999-1.45 0-5.001 9.036-5.001 14.999 0 2.757 2.244 5 5.001 5 2.756 0 5-2.243 5-5zm-5.816-7.464a1 1 0 0 1-.441-1.951c1.261-.29 2.337.166 3.109 1.305a1 1 0 1 1-1.656 1.121c-.345-.51-.629-.559-1.012-.475zm-.216 8.356a.999.999 0 1 1-.489 1.939c-.876-.221-1.964-.846-2.182-2.571a1.001 1.001 0 0 1 .867-1.117 1.005 1.005 0 0 1 1.118.867c.077.612.31.787.686.882z" fill="#505070"/></svg>