<svg baseProfile="full" height="61" width="62" xmlns="http://www.w3.org/2000/svg"><path d="M60.022 12.017h-1.02v46.997a1 1 0 0 1-1 1H4a1 1 0 0 1-1-1V12.017H2a1 1 0 0 1-.707-1.707l10-9.999c.188-.188.443-.293.708-.293h38.001a1 1 0 0 1 .707.293l9.891 9.89a1 1 0 0 1-.578 1.816zm-21.02 45.997h18v-1.999h-18v1.999zm-14.001 0h12.001V40.016H25.001v17.998zM5 58.014h18.001v-1.999H5v1.999zm0-3.999h18.001V39.016a1 1 0 0 1 1-1h14a1 1 0 0 1 1.001 1v14.999h18V36.016H5v17.999zm0-19.999h52.002V16.017H5v17.999zm0-19.999h52.002v-2H5v2zM49.588 2.018H12.415l-8 7.999h53.173l-8-7.999zm3.414 27.998h-12a1 1 0 1 1 0-2v-8.999a1 1 0 0 1 1-1h10a1 1 0 0 1 1 1v8.999a1 1 0 0 1 0 2zm-7-9.999h-3.001v2h3.001v-2zm0 4h-3.001v3.999h3.001v-3.999zm5-4h-3v2h3v-2zm0 4h-3v3.999h3v-3.999zm-14 5.999H25.001a1 1 0 0 1 0-2v-8.999a1 1 0 0 1 1-1h10c.552 0 1.001.448 1.001 1v8.999a1 1 0 0 1 0 2zm-7.001-9.999h-3v2h3v-2zm0 4h-3v3.999h3v-3.999zm5-4h-3v2h3v-2zm0 4h-3v3.999h3v-3.999zm-14 5.999H9a1 1 0 0 1 0-2v-8.999a1 1 0 0 1 1.001-1h10a1 1 0 0 1 1 1v8.999a1 1 0 0 1 0 2zM14 20.017h-3v2h3v-2zm0 4h-3v3.999h3v-3.999zm5.001-4h-3v2h3v-2zm0 4h-3v3.999h3v-3.999zm34.001 25.998h-12a1 1 0 1 1 0-2v-8.999a1 1 0 0 1 1-1h10a1 1 0 0 1 1 1v8.999a1 1 0 0 1 0 2zm-7-9.999h-3.001v2h3.001v-2zm0 3.999h-3.001v4h3.001v-4zm5-3.999h-3v2h3v-2zm0 3.999h-3v4h3v-4zm-30.001 6H9a1 1 0 0 1 0-2v-8.999a1 1 0 0 1 1.001-1h10a1 1 0 0 1 1 1v8.999a1 1 0 0 1 0 2zM14 40.016h-3v2h3v-2zm0 3.999h-3v4h3v-4zm5.001-3.999h-3v2h3v-2zm0 3.999h-3v4h3v-4zm9 6.05c-.552 0-1.05-.498-1.05-1.05s.498-1.05 1.05-1.05 1.05.498 1.05 1.05-.498 1.05-1.05 1.05z" fill="#505070"/></svg>