<svg height="45" viewBox="0 0 45 45" width="45" xmlns="http://www.w3.org/2000/svg"><defs><style>.cls-1{fill-rule:evenodd}</style></defs><path class="cls-1" d="M27 32h-9V17h9M1 33v-1h2V12h15l-.034 4h9.014l.02-4h15v20h2v1H1zm16-1V13H4v19h4v-5h5v5h4zm24 0V13H28v19h4v-5h5v5h4zM29 14h3v3h-3v-3zm1 1h1v1h-1v-1zm3-1h3v3h-3v-3zm1 1h1v1h-1v-1zm-5 3h3v3h-3v-3zm1 1h1v1h-1v-1zm3-1h3v3h-3v-3zm1 1h1v1h-1v-1zm-5 3h3v3h-3v-3zm1 1h1v1h-1v-1zm3-1h3v3h-3v-3zm1 1h1v1h-1v-1zm-15-5h3v3h-3v-3zm1 1h1v1h-1v-1zm3-1h3v3h-3v-3zm1 1h1v1h-1v-1zm-5 3h3v3h-3v-3zm1 1h1v1h-1v-1zm3-1h3v3h-3v-3zm1 1h1v1h-1v-1zm-5 3h3v3h-3v-3zm1 1h1v1h-1v-1zm3-1h3v3h-3v-3zm1 1h1v1h-1v-1zm13-13h3v3h-3v-3zm1 1h1v1h-1v-1zm-1 3h3v3h-3v-3zm1 1h1v1h-1v-1zm-1 3h3v3h-3v-3zm1 1h1v1h-1v-1zM5 14h3v3H5v-3zm1 1h1v1H6v-1zm3-1h3v3H9v-3zm1 1h1v1h-1v-1zm-5 3h3v3H5v-3zm1 1h1v1H6v-1zm3-1h3v3H9v-3zm1 1h1v1h-1v-1zm-5 3h3v3H5v-3zm1 1h1v1H6v-1zm3-1h3v3H9v-3zm1 1h1v1h-1v-1zm3-9h3v3h-3v-3zm1 1h1v1h-1v-1zm-1 3h3v3h-3v-3zm1 1h1v1h-1v-1zm-1 3h3v3h-3v-3zm1 1h1v1h-1v-1zm-5 5h3v4H9v-4zm24 0h3v4h-3v-4z" data-name="15" id="_15"/></svg>