<svg baseProfile="full" height="61" width="61" xmlns="http://www.w3.org/2000/svg"><path d="M58.994 39.835v19.183a1 1 0 0 1-1 1H3.992a1 1 0 0 1-1-1V39.835a2.995 2.995 0 0 1-2-2.816V29.02a1 1 0 0 1 2 0v1h2v-1a1 1 0 0 1 2 0v1h2v-1a1 1 0 0 1 2 0v1h2.001v-1a1 1 0 1 1 2 0v1h1.999v-1a1 1 0 0 1 2 0v7.999a2.995 2.995 0 0 1-2 2.816v2.184h4.001V22.02h-1a1 1 0 0 1-.589-1.808l10.589-7.7V1.021a1 1 0 0 1 2 0v1.307l7.351 2.757a1 1 0 0 1 0 1.873l-7.351 2.756v2.797L42.47 20.13a1 1 0 0 1-.457 1.89h-1.02v19.999h4v-2.184a2.996 2.996 0 0 1-2-2.816V29.02a1 1 0 0 1 2 0v1h2.001v-1a1 1 0 1 1 2 0v1h2v-1a1 1 0 1 1 2 0v1h2v-1a1 1 0 0 1 2 0v1h2v-1a1 1 0 0 1 2 0v7.999a2.996 2.996 0 0 1-2 2.816zM36.993 58.018h20.001v-2H36.993v2zm-2 0v-6a4.004 4.004 0 0 0-4-3.999c-2.206 0-4 1.794-4 3.999v6h8zm-30.001 0h20.001v-2H4.992v2zm12-25.998h-14v4.999c0 .552.449 1 1 1h12a1 1 0 0 0 1-1V32.02zM36.145 6.021l-4.152-1.557v3.114l4.152-1.557zm-5.152 8.236l-7.925 5.763h15.85l-7.925-5.763zm8 7.763h-16v2h16v-2zm0 4h-16v15.999h16V26.02zm1 17.999H15.992a1 1 0 0 1-.999-1v-3H4.992v13.999h20.001v-2a6.006 6.006 0 0 1 6-5.999c3.309 0 6 2.691 6 5.999v2h20.001V40.019h-10v3a1 1 0 0 1-1.001 1h-6zM58.994 32.02H44.993v4.999c0 .552.449 1 1 1h12.001c.551 0 1-.448 1-1V32.02zM11.992 50.019h-4a1 1 0 0 1-1-1v-4c0-1.654 1.346-3 3-3a3.004 3.004 0 0 1 3.001 3v4c0 .552-.449 1-1.001 1zm-1-5a1.001 1.001 0 0 0-2 0v3h2v-3zm41.002-3c1.654 0 3 1.346 3 3v4a1 1 0 0 1-1 1h-4a1 1 0 0 1-1-1v-4c0-1.654 1.345-3 3-3zm-1 6h2v-3a1.001 1.001 0 0 0-2 0v3zM30.993 28.02c1.654 0 3 1.345 3 3v3.999a1 1 0 0 1-1 1h-4a1 1 0 0 1-1-1V31.02c0-1.655 1.346-3 3-3zm-1 5.999h2V31.02a1.001 1.001 0 0 0-2 0v2.999z" fill="#505070"/></svg>