<svg baseProfile="full" height="62" width="61" xmlns="http://www.w3.org/2000/svg"><path d="M59.994 15.017h-1v44.997a1 1 0 0 1-1 1H3.992a1 1 0 0 1-1-1V33.016h-1a1 1 0 0 1-1-1v-4a1 1 0 0 1 .553-.894l3.447-1.724v-4.381a1 1 0 0 1-1-1v-4a1 1 0 0 1 1-1h6a1 1 0 0 1 1 1v4a1 1 0 0 1-1 1v1.382l6.553-3.277c.282-.14.614-.14.895 0l12.553 6.276V15.017h-1a1 1 0 0 1-1-1v-4a1 1 0 0 1 .529-.882l15.001-7.999a.993.993 0 0 1 .941 0l15.001 7.999c.325.174.529.513.529.882v4a1 1 0 0 1-1 1zM36.993 47.015h16.001v-2H36.993v2zm0 2v2h16.001v-2H36.993zm0 4v2h16.001v-2H36.993zm16.001 5.999v-1.999H36.993v1.999h16.001zm-20.001 0h2V44.015a1 1 0 0 1 1-.999h18.001a1 1 0 0 1 1 .999v14.999h2V41.016H32.993v17.998zm0-19.998h24.001v-2H32.993v2zm0-4h24.001V15.017h-1a1 1 0 0 1-1-1v-1.406L44.993 7.157l-10 5.454v1.406a1 1 0 0 1-1 1h-1v11.381l1.447.724a1 1 0 0 1 .553.894v4a1 1 0 0 1-1 1h-1v2zm-10 23.998h8v-1.999h-8v1.999zm-8 0h6v-9.999h-6v9.999zm-10.001 0h8.001v-1.999H4.992v1.999zm0-3.999h8.001v-7a1 1 0 0 1 .999-1h8.001a1 1 0 0 1 1 1v7h8V33.016h-1a1 1 0 0 1-1-1v-1.382l-11.001-5.499-11 5.499v1.382a1 1 0 0 1-1 1h-1v21.999zm5-37.998h-4v2h4v-2zm-3 4v3.382l2-1v-2.382h-2zm11 .118l-15 7.499v2.382h2v-1c0-.379.214-.725.553-.894l12-6a1 1 0 0 1 .895 0l12 6a.998.998 0 0 1 .553.894v1h2v-2.382l-15.001-7.499zm41.002-10.517L44.993 3.151l-14 7.467v2.399h2v-1c0-.365.2-.702.521-.878L44.515 5.14a.998.998 0 0 1 .957 0l11.001 5.999c.321.176.521.513.521.878v1h2v-2.399zM17.992 33.016a4.005 4.005 0 0 1 4.001 4c0 2.205-1.795 4-4.001 4-2.205 0-4-1.795-4-4 0-2.206 1.795-4 4-4zm0 6a2.003 2.003 0 0 0 2.001-2c0-1.103-.898-2-2.001-2-1.103 0-2 .897-2 2s.897 2 2 2zm-1 16.049c-.552 0-1.049-.498-1.049-1.05s.497-1.05 1.049-1.05c.553 0 1.05.498 1.05 1.05s-.497 1.05-1.05 1.05zm24.001-30.048v-7a1 1 0 0 1 1-1h6a1 1 0 0 1 1.001 1v7a1 1 0 1 1 0 1.999h-8.001a1 1 0 1 1 0-1.999zm2 0h4.001v-2h-4.001v2zm0-4h4.001v-2h-4.001v2z" fill="#505070"/></svg>