<svg id="Layer_1" xmlns="http://www.w3.org/2000/svg" viewBox="0 0 24 24"><style>.st0{fill:#303c42}</style><title/><g id="Dron_2"><path class="st0" d="M18.1 19.8c.1.1.2.2.4.2.1 0 .3-.1.4-.1l1-1c.2-.2.2-.5 0-.7-1.7-1.6-2.7-3.8-2.8-6.1.1-2.3 1.1-4.5 2.8-6.1.2-.2.2-.5 0-.7l-1-1c-.2-.2-.3-.3-.4-.3-.1 0-.3.1-.4.2C16.5 5.9 14.3 6.9 12 7c-2.3-.1-4.5-1.1-6.1-2.8-.1-.1-.2-.2-.4-.2-.1 0-.3 0-.4.2l-1 1c-.2.2-.2.5 0 .7C5.9 7.5 6.9 9.7 7 12c-.1 2.3-1.1 4.5-2.8 6.1-.2.2-.2.5 0 .7l1 1c.1.2.2.2.4.2.1 0 .3-.1.4-.2 1.6-1.7 3.8-2.7 6.1-2.8 2.2.1 4.4 1.1 6 2.8zM12 15c-1.7 0-3-1.3-3-3s1.3-3 3-3 3 1.3 3 3-1.3 3-3 3z"/><path class="st0" d="M5 9c.3 0 .5-.2.5-.5S5.3 8 5 8C3.3 8 2 6.7 2 5s1.3-3 3-3 3 1.3 3 3c0 .3.2.5.5.5S9 5.3 9 5c0-2.2-1.8-4-4-4S1 2.8 1 5s1.8 4 4 4zm10.5-3.5c.3 0 .5-.2.5-.5 0-1.7 1.3-3 3-3s3 1.3 3 3-1.3 3-3 3c-.3 0-.5.2-.5.5s.2.5.5.5c2.2 0 4-1.8 4-4s-1.8-4-4-4-4 1.8-4 4c0 .3.2.5.5.5zM19 15c-.3 0-.5.2-.5.5s.2.5.5.5c1.7 0 3 1.3 3 3s-1.3 3-3 3-3-1.3-3-3c0-.3-.2-.5-.5-.5s-.5.2-.5.5c0 2.2 1.8 4 4 4s4-1.8 4-4-1.8-4-4-4zM8.5 18.5c-.3 0-.5.2-.5.5 0 1.7-1.3 3-3 3s-3-1.3-3-3 1.3-3 3-3c.3 0 .5-.2.5-.5S5.3 15 5 15c-2.2 0-4 1.8-4 4s1.8 4 4 4 4-1.8 4-4c0-.3-.2-.5-.5-.5z"/></g></svg>