<svg xmlns="http://www.w3.org/2000/svg" viewBox="0 0 100 100"><path d="M31.3 12.538c-2.1 0-4.2 2.1-4.2 4.2v20.9c0 4.2 4.2 4.2 4.2 8.3v37.5c0 2.1 2.1 4.2 4.2 4.2h4.2c2.1 0 4.2-2.1 4.2-4.2v-37.5c0-4.2 4.2-4.2 4.2-8.3v-21c0-2.1-2.1-4.2-4.2-4.2-1 0-1 1.3-1 2.1v16.7c0 .8 0 2.1-1 2.1s-1-1.3-1-2.1v-16.7c0-.8 0-2.1-1-2.1h-4.1c-1 0-1 1.3-1 2.1v16.7c0 .8 0 2.1-1 2.1s-1-1.3-1-2.1v-16.7c-.5-.8-.5-2-1.5-2zm41.6 0c-4.2 0-11.9 1-14.6 6.3-2.1 4.2-2.1 14.6-2.1 18.8v16.7c0 2.1 2.1 4.2 4.2 4.2v25c0 2.1 2.1 4.2 4.2 4.2h4.2c2.1 0 4.2-2.1 4.2-4.2v-71z"/></svg>