<svg xmlns="http://www.w3.org/2000/svg" viewBox="0 0 1792 1792"><path d="M1536 1536c0 42-20.5 79.8-61.5 113.5s-95.7 60.7-164 81-143.3 35.7-225 46S919.3 1792 832 1792s-171.8-5.2-253.5-15.5-156.7-25.7-225-46-123-47.3-164-81S128 1578 128 1536c0-32.7 11-62.2 33-88.5s52.3-48.5 91-66.5 78-32.8 118-44.5 83.7-21.5 131-29.5c17.3-3.3 33.3.2 48 10.5s23.3 24.2 26 41.5c3.3 17.3-.2 33.3-10.5 48s-24.2 23.3-41.5 26c-38.7 6.7-74 14.5-106 23.5s-57.5 17.5-76.5 25.5-35.2 15.8-48.5 23.5-22.5 14.2-27.5 19.5-7.8 9.3-8.5 12c2 7.3 11 16.2 27 26.5s40.3 21.3 73 33 70.7 22.5 114 32.5 96.8 18.3 160.5 25 130.8 10 201.5 10 137.8-3.3 201.5-10 117.2-15 160.5-25 81.3-21 114-33 57-23.2 73-33.5 25-19.5 27-27.5c-.7-2.7-3.5-6.3-8.5-11s-14.2-11-27.5-19-29.5-15.8-48.5-23.5-44.5-16-76.5-25-67.3-16.8-106-23.5c-17.3-2.7-31.2-11.3-41.5-26s-13.8-30.7-10.5-48c2.7-17.3 11.3-31.2 26-41.5s30.7-13.8 48-10.5c47.3 8 91 17.8 131 29.5s79.3 26.5 118 44.5 69 40.2 91 66.5 33 55.8 33 88.5zm-384-896v384c0 17.3-6.3 32.3-19 45s-27.7 19-45 19h-64v384c0 17.3-6.3 32.3-19 45s-27.7 19-45 19H704c-17.3 0-32.3-6.3-45-19s-19-27.7-19-45v-384h-64c-17.3 0-32.3-6.3-45-19s-19-27.7-19-45V640c0-35.3 12.5-65.5 37.5-90.5S604.7 512 640 512h384c35.3 0 65.5 12.5 90.5 37.5s37.5 55.2 37.5 90.5zm-96-384c0 62-21.8 114.8-65.5 158.5S894 480 832 480s-114.8-21.8-158.5-65.5S608 318 608 256s21.8-114.8 65.5-158.5S770 32 832 32s114.8 21.8 158.5 65.5S1056 194 1056 256z"/></svg>