<svg id="Layer_1" xmlns="http://www.w3.org/2000/svg" viewBox="0 0 128 128"><style>.st0{fill:#f33536}</style><path class="st0" d="M76.3 3.3H51c-3.1 0-5.6 2.5-5.6 5.6v25.3c0 3.1 2.5 5.6 5.6 5.6h25.3c3.1 0 5.6-2.5 5.6-5.6V9c0-3.1-2.5-5.7-5.6-5.7zm0 31H51V9h25.3v25.3zm0 11.1H51c-3.1 0-5.6 2.5-5.6 5.6v25.3c0 3.1 2.5 5.6 5.6 5.6h25.3c3.1 0 5.6-2.5 5.6-5.6V51c0-3.1-2.5-5.6-5.6-5.6zm0 30.9H51V51h25.3v25.3zm42.1-73H93.1c-3.1 0-5.6 2.5-5.6 5.6v25.3c0 3.1 2.5 5.6 5.6 5.6h25.3c3.1 0 5.6-2.5 5.6-5.6V9c0-3.1-2.5-5.7-5.6-5.7zm0 31H93.1V9h25.3v25.3zm0 11.1H93.1c-3.1 0-5.6 2.5-5.6 5.6v25.3c0 3.1 2.5 5.6 5.6 5.6h25.3c3.1 0 5.6-2.5 5.6-5.6V51c0-3.1-2.5-5.6-5.6-5.6zm0 30.9H93.1V51h25.3v25.3zm-84.1-73H9C5.9 3.3 3.3 5.9 3.3 9v25.3c0 3.1 2.5 5.6 5.6 5.6h25.3c3.1 0 5.6-2.5 5.6-5.6V9c.1-3.1-2.4-5.7-5.5-5.7zm0 31H9V9h25.3v25.3zm0 11.1H9c-3.1 0-5.6 2.5-5.6 5.6v25.3c0 3.1 2.5 5.6 5.6 5.6h25.3c3.1 0 5.6-2.5 5.6-5.6V51c0-3.1-2.5-5.6-5.6-5.6zm0 30.9H9V51h25.3v25.3zm42 10.7H51c-3.1 0-5.6 2.5-5.6 5.6v25.3c0 3.1 2.5 5.6 5.6 5.6h25.3c3.1 0 5.6-2.5 5.6-5.6V92.6c0-3.1-2.5-5.6-5.6-5.6zm0 30.9H51V92.6h25.3v25.3zM118.4 87H93.1c-3.1 0-5.6 2.5-5.6 5.6v25.3c0 3.1 2.5 5.6 5.6 5.6h25.3c3.1 0 5.6-2.5 5.6-5.6V92.6c0-3.1-2.5-5.6-5.6-5.6zm0 30.9H93.1V92.6h25.3v25.3zM34.3 87H9c-3.1 0-5.6 2.5-5.6 5.6v25.3c0 3.1 2.5 5.6 5.6 5.6h25.3c3.1 0 5.6-2.5 5.6-5.6V92.6c0-3.1-2.5-5.6-5.6-5.6zm0 30.9H9V92.6h25.3v25.3z" id="layout"/></svg>