<svg id="Layer_1" xmlns="http://www.w3.org/2000/svg" viewBox="0 0 64 64"><style>.st0{display:none}.st1{fill:#fff}.st1,.st2,.st3{display:inline}.st3{fill:none;stroke-width:1.5;stroke-miterlimit:10}.st3,.st4,.st5{stroke:#f33536}.st4,.st5,.st6{stroke-miterlimit:10}.st4{stroke-width:1.5;fill:none}.st5,.st6{display:inline;fill:#fff}.st6{fill:none;stroke:#414042;stroke-width:1.5}</style><g id="bg" class="st0"><path id="XMLID_119_" class="st1" d="M-218-218.5h500V282h-500z"/></g><g id="icons"><g id="XMLID_4_" class="st0"><path id="XMLID_700_" class="st3" d="M19.6 5.9h39.7c1.6 0 2.9 1.3 2.9 2.9v32.9H1.9V8.8c0-1.6 1.3-2.9 2.9-2.9h5.3"/><path id="XMLID_698_" class="st3" d="M11.8 5.9h4.8"/><path id="XMLID_697_" class="st3" d="M5.1 9.4h53.7v28.3H5.1z"/><path id="XMLID_682_" class="st3" d="M23 48.5h18.1v9.3H23z"/><path id="XMLID_59_" class="st3" d="M1.9 40.4v5.2c0 1.6 1.3 2.9 2.9 2.9h54.3c1.6 0 2.9-1.3 2.9-2.9v-5.2"/><path id="XMLID_679_" class="st3" d="M19.4 58.1h25.4"/></g><g id="XMLID_49_" class="st0"><path id="XMLID_801_" class="st3" d="M48.8 9.4h4.1"/><path id="XMLID_84_" class="st3" d="M2.5 50.7V10.9c0-.7.6-1.5 1.5-1.5h42.2"/><path id="XMLID_81_" class="st3" d="M54.5 9.4h5.8c.7 0 1.5.7 1.5 1.5v39.7"/><path id="XMLID_83_" class="st3" d="M5.3 47.5V12.8h53.4v34.7"/><path id="XMLID_797_" class="st3" d="M60.7 54.6h-58c-1.3 0-2.5-1-2.8-2.4l-.4-2.5h26.8l1 1.5h7.4l1.2-1.5h28.3l-.2 2.2c-.3 1.5-1.6 2.7-3.3 2.7z"/></g><g id="XMLID_784_" class="st0"><path id="XMLID_129_" class="st3" d="M41.9 10H11L4 22.1 32 54l28-31.9L52.9 10h-4"/><path id="XMLID_128_" class="st3" d="M47.6 10H43"/><path id="XMLID_794_" class="st3" d="M4 22.1h56"/><path id="XMLID_793_" class="st3" d="M32 54L18 22.1"/><path id="XMLID_792_" class="st3" d="M32 53.2l14-31.8"/><path id="XMLID_791_" class="st3" d="M32 22.1v31.1"/><path id="XMLID_790_" class="st3" d="M11 10l7 12.1"/><path id="XMLID_789_" class="st3" d="M25 10l7 12.1"/><path id="XMLID_788_" class="st3" d="M38.9 10L46 22.1"/><path id="XMLID_787_" class="st3" d="M52.9 10L46 22.1"/><path id="XMLID_786_" class="st3" d="M38.9 10L32 22.1"/><path id="XMLID_785_" class="st3" d="M25 10l-7 12.1"/></g><g id="XMLID_57_"><path id="XMLID_58_" class="st4" d="M31.8 5.9h13.6c1.6 0 2.9 1.3 2.9 2.9v46.3c0 1.6-1.3 2.9-2.9 2.9H18.6c-1.6 0-2.9-1.3-2.9-2.9V8.8c0-1.6 1.3-2.9 2.9-2.9h2.8"/><path id="XMLID_51_" class="st4" d="M24 5.9h4.6"/><path id="XMLID_53_" class="st4" d="M27.1 9.9h9.7"/><circle id="XMLID_52_" class="st4" cx="32.1" cy="53.2" r="1.6"/><path id="XMLID_55_" class="st4" d="M18.9 13.4h26.2v35.1H18.9z"/></g><g id="XMLID_75_" class="st0"><path id="XMLID_67_" class="st3" d="M6.9 52.4h49.8c2.4 0 4.3-1.9 4.3-4.3V13.9c0-1.2-1-2.2-2.2-2.2h-3.2"/><path id="XMLID_54_" class="st3" d="M41 11.6H9.1c-1.2 0-2.1.9-2.1 2.1"/><path id="XMLID_71_" class="st3" d="M51.7 11.6h-7.2"/><path id="XMLID_68_" class="st3" d="M56.8 52.4H5.1c-1.2 0-2.2-1-2.2-2.2V18c0-1 .9-1.9 1.9-1.9h8.8c.6 0 1.2.3 1.6.9l2.2 3.7h32.9c1.2 0 2.2 1 2.2 2.2v25.2c0 1.9 1.3 4.3 4.3 4.3z"/></g><g id="XMLID_91_" class="st0"><path id="XMLID_86_" class="st3" d="M52.8 15.8c-1.3-1.6-2.9-2.9-4.7-3.8"/><path id="XMLID_78_" class="st3" d="M41.9 10.5c-3.8 0-7.4 1.6-9.9 4.1-2.5-2.5-6-4.1-9.9-4.1-7.7 0-13.9 6.2-13.9 13.9 0 3.7 1.5 7.1 3.8 9.6l20 19.5 20.2-20.1c.1-.3.7-1 .7-1 1.6-2.4 2.7-5.2 2.7-8.1 0-1.6-.3-3.1-.7-4.4"/><path id="XMLID_70_" class="st3" d="M24.5 15.9c-6 0-11.1 4.9-11.1 11.1"/></g><g id="XMLID_108_" class="st0"><path id="XMLID_105_" class="st3" d="M37.6 7.2h7.5"/><path id="XMLID_95_" class="st3" d="M48.2 7.2h4.6c2.1 0 3.8 1.8 3.8 3.8v41.7c0 2.1-1.8 3.8-3.8 3.8H11c-2.1 0-3.8-1.8-3.8-3.8V11.1C7.2 9 9 7.2 11 7.2h22.4"/><path id="XMLID_98_" class="st3" d="M7.2 45.1h49.6"/><path id="XMLID_96_" class="st3" d="M7.2 37.8l12.5-14.2 12.3 13 10.9-8.4 13.9 12.5"/><circle id="XMLID_99_" class="st3" cx="38.8" cy="17.1" r="2.5"/><path id="XMLID_103_" class="st3" d="M15.9 14.6h13.7"/><path id="XMLID_102_" class="st3" d="M10.6 18.4h13.6"/></g><g id="XMLID_118_" class="st0"><path id="XMLID_767_" class="st3" d="M36 36l3.8 3.8"/><path id="XMLID_114_" class="st3" d="M20.2 5.6c-3.5.7-6.8 2.4-9.6 5-7.2 7.2-7.2 18.9 0 26.1s18.9 7.2 26.1 0 7.2-18.9 0-26.1"/><path id="XMLID_113_" class="st3" d="M33.5 8c-2.8-1.8-6-2.7-9.3-2.8"/><path id="XMLID_762_" class="st3" d="M14.1 16.7c5-5 13-5 17.8 0"/><path id="XMLID_111_" class="st3" d="M37.3 42.5l15.8 15.8c.9.9 2.2.9 2.9 0l2.1-2.1c.9-.9.9-2.2 0-2.9l-15.7-16-5.1 5.2z"/><path id="XMLID_758_" class="st3" d="M40.8 46.2l5.5-5.4"/><path id="XMLID_112_" class="st3" d="M43.5 49l5.4-5.5"/></g><g id="XMLID_162_" class="st0"><path id="XMLID_460_" class="st3" d="M31.1 28.9V11.8c0-1.5-1.2-2.5-2.5-2.5-1.5 0-2.5 1.2-2.5 2.5v20.8"/><path id="XMLID_461_" class="st3" d="M36.3 24.5v-4.4c0-1.5-1.2-2.5-2.5-2.5-1.5 0-2.5 1.2-2.5 2.5v4.4"/><path id="XMLID_462_" class="st3" d="M41.4 28.9v-6.2c0-1.5-1.2-2.5-2.5-2.5-1.5 0-2.5 1.2-2.5 2.5v6.2"/><path id="XMLID_73_" class="st3" d="M41.4 27.9v-2.4c0-1.5 1.2-2.5 2.5-2.5 1.5 0 2.5 1.2 2.5 2.5v14.6c0 .6-.3 1.3-.7 1.8L43 44.4c-.4.4-.6.9-.6 1.5"/><path id="XMLID_56_" class="st3" d="M25.9 28h-3.7c-1 0-1.8.7-1.8 1.8v11.5c0 .9.6 1.8 1.3 2.2l2.1 1c.9.4 1.3 1.2 1.3 2.2"/><path id="XMLID_135_" class="st3" d="M23.1 55.2V47h22v17"/><path id="XMLID_141_" class="st3" d="M23.3 57.5v4.6"/><g id="XMLID_132_" class="st2"><path id="XMLID_145_" class="st4" d="M20.9 14l2.2-1.2"/><path id="XMLID_146_" class="st4" d="M17.4 9.6l5 .1"/><path id="XMLID_147_" class="st4" d="M21.2 5.2l2.1 1.3"/><path id="XMLID_148_" class="st4" d="M23.4 0l2.2 4.3"/><path id="XMLID_149_" class="st4" d="M29 1.2l-.1 2.5"/><path id="XMLID_150_" class="st4" d="M34.6.4L32 4.6"/><path id="XMLID_153_" class="st4" d="M36.5 5.9l-2.3 1.2"/><path id="XMLID_155_" class="st4" d="M39.6 10.6l-4.8-.3"/><path id="XMLID_157_" class="st4" d="M35.7 14.7l-2-1.4"/></g></g><g id="XMLID_216_" class="st0"><path id="XMLID_426_" class="st3" d="M38.2 13.9v11.4c0 1.9-1.6 3.5-3.5 3.5H14.9c-1.6 0-2.9 1.3-2.9 2.9v.3c0 1.6 1.3 2.9 2.9 2.9h19.9c2.1 0 3.7 1.6 3.7 3.7v11.1"/><path id="XMLID_414_" class="st3" d="M38.6 0v3.8"/><path id="XMLID_413_" class="st3" d="M45.4 1.8l-1.9 3.4"/><path id="XMLID_412_" class="st3" d="M50.3 6.8L47 8.7"/><path id="XMLID_411_" class="st3" d="M52 13.6h-3.8"/><path id="XMLID_410_" class="st3" d="M50 20.4l-3.1-2"/><path id="XMLID_409_" class="st3" d="M45 25.2l-1.8-3.4"/><path id="XMLID_408_" class="st3" d="M31.4 24.8l2.1-3.3"/><path id="XMLID_407_" class="st3" d="M26.7 19.6l3.4-1.8"/><path id="XMLID_406_" class="st3" d="M25.2 12.8l3.7.2"/><path id="XMLID_405_" class="st3" d="M27.3 6l3.2 2.1"/><path id="XMLID_404_" class="st3" d="M32.6 1.5l1.6 3.4"/><path id="XMLID_221_" class="st3" d="M30.6 53.7V46c0-3.5 2.9-6.5 6.5-6.5H40c3.5 0 6.5 2.9 6.5 6.5v11.5c0 3.5-2.9 6.5-6.5 6.5h-2.9c-1.2 0-2.4-.3-3.4-.9"/><path id="XMLID_220_" class="st3" d="M31.4 60.8c-.6-.9-.9-2.1-.9-3.2"/><path id="XMLID_401_" class="st3" d="M38.8 39.5v10.6"/><path id="XMLID_222_" class="st3" d="M30.5 49.7l16.1.4"/></g><g id="XMLID_69_" class="st0"><path id="XMLID_868_" class="st3" d="M47.5 22.6c0 .9-.7 1.6-1.6 1.6-.9 0-1.6-.7-1.6-1.6V21c0-.9.7-1.6 1.6-1.6.9 0 1.6.7 1.6 1.6v1.6z"/><path id="XMLID_866_" class="st3" d="M19.4 22.6c0 .9-.7 1.6-1.6 1.6-.9 0-1.6-.7-1.6-1.6V21c0-.9.7-1.6 1.6-1.6.9 0 1.6.7 1.6 1.6v1.6z"/><path id="XMLID_218_" class="st3" d="M14.7 47.9c-.3 1.2-.4 2.4-.4 3.5v10.9"/><path id="XMLID_217_" class="st3" d="M19.3 40.8c-1.3 1.2-2.5 2.5-3.2 4"/><path id="XMLID_862_" class="st3" d="M24.3 50.4v12"/><path id="XMLID_861_" class="st3" d="M39.8 50.4v12"/><path id="XMLID_104_" class="st3" d="M34.6 36.1v3.1c0 1.8-1.5 3.2-3.2 3.2-1.8 0-3.2-1.5-3.2-3.2v-3.1"/><path id="XMLID_101_" class="st3" d="M44.2 19.2v4.1c0 6.9-5.6 12.5-12.5 12.5s-12.5-5.6-12.5-12.5v-4.1"/><path id="XMLID_151_" class="st3" d="M44.1 12.5v7.2c1.6.1 2.9-1.2 2.9-2.8V6c0-2.5-2.1-4.4-4.4-4.4H24.3c-2.1 0-3.7 1.6-3.7 3.7-2.5 0-4.6 2.1-4.6 4.6v7.2c0 1.6 1.3 2.9 2.9 2.9v-5.5s1 .3 1.9-.6c1-.9 1.5-2.1 1.5-2.1"/><path id="XMLID_133_" class="st3" d="M20.8 10.9s6.9 5 14.7 5.2c6.5 0 9.4-4.4 9.4-4.4"/><path id="XMLID_107_" class="st3" d="M28 36.7c-2.2.4-4.3 1.2-6 2.4"/><path id="XMLID_93_" class="st3" d="M49.7 62.4V51.5c0-7.5-6.5-13.9-15-15"/></g><g id="XMLID_193_" class="st0"><path id="XMLID_61_" class="st3" d="M42.2 4.9c3.7 0 6.6 2.9 6.6 6.6v21.7c0 1.5 1 3.2 3.2 3.2H39.6"/><path id="XMLID_62_" class="st3" d="M42.4 22.4V14c0-7.2-5.9-13-13-13H27c-7.2 0-13 5.9-13 13v8.4"/><path id="XMLID_184_" class="st3" d="M44.4 24.5c0 .9-.7 1.6-1.6 1.6-.9 0-1.6-.7-1.6-1.6v-1.6c0-.9.7-1.6 1.6-1.6.9 0 1.6.7 1.6 1.6v1.6z"/><path id="XMLID_180_" class="st3" d="M15.2 24.5c0 .9-.7 1.6-1.6 1.6-.9 0-1.6-.7-1.6-1.6v-1.6c0-.9.7-1.6 1.6-1.6.9 0 1.6.7 1.6 1.6v1.6z"/><path id="XMLID_215_" class="st3" d="M14.7 47.8c.4-.9 1-1.6 1.6-2.4"/><path id="XMLID_97_" class="st3" d="M13 63.4V55c0-1.2.1-2.4.4-3.5"/><path id="XMLID_94_" class="st3" d="M21.1 54v9.4"/><path id="XMLID_82_" class="st3" d="M36.8 54v9.4"/><path id="XMLID_87_" class="st3" d="M31.5 38.2v4.1c0 1.9-1.5 3.4-3.4 3.4s-3.4-1.5-3.4-3.4v-4.1"/><path id="XMLID_202_" class="st3" d="M41.3 17.1v8.6c0 7.2-5.9 13-13 13-7.2 0-13-5.9-13-13v-8.6c6.5 0 11.5-5.5 13-7.2.1-.3.6-.3.7 0 1.4 1.7 6.4 7.2 12.3 7.2z"/><path id="XMLID_192_" class="st3" d="M40.4 7.1L36.7 3c-.4-.6-.4-1.5.1-2.1.6-.4 1.5-.4 2.1.1l3.7 4.1c.4.7.4 1.5-.2 2.1-.7.5-1.6.5-2-.1z"/><path id="XMLID_100_" class="st3" d="M31.5 39.8c7.1 1.5 12.4 7.7 12.4 15.2v8.4"/><path id="XMLID_48_" class="st3" d="M18.4 43.2c1.8-1.6 4-2.8 6.5-3.4"/></g><g id="XMLID_235_" class="st0"><path id="XMLID_249_" class="st3" d="M6 26l51.2 29.9"/><path id="XMLID_246_" class="st3" d="M6.8 55.9l51.3-29.7"/><path id="XMLID_245_" class="st3" d="M52.6 56.5h3.1c1.3 0 2.4-1 2.4-2.4l.1-26.8c0-.9-.4-1.6-1.2-2.1l-3.2-2.1"/><path id="XMLID_244_" class="st3" d="M10.7 23L7 25.2c-.7.4-1.2 1.2-1.2 1.9l-.1 26.7c0 1.3 1 2.4 2.4 2.4h32.4"/><path id="XMLID_243_" class="st3" d="M18.9 17h27.2"/><path id="XMLID_242_" class="st3" d="M18.9 23.6h27.2"/><path id="XMLID_241_" class="st3" d="M18.9 30.1h27.2"/><path id="XMLID_203_" class="st3" d="M42.9 56.2h6.5"/><path id="XMLID_85_" class="st3" d="M13.4 30.2V10.3c0-1.5 1.2-2.8 2.8-2.8h32.3c1.5 0 2.8 1.2 2.8 2.8v19.9"/></g><g id="XMLID_219_" class="st0"><path id="XMLID_225_" class="st3" d="M6 13.7l24.9 17.5c.6.4 1.5.4 2.2 0L57.6 14"/><path id="XMLID_224_" class="st3" d="M25.6 13.4h30.5c1.3 0 2.4 1 2.4 2.4v32.6c0 1.3-1 2.4-2.4 2.4H7.8c-1.3 0-2.4-1-2.4-2.4V15.6c0-1.3 1-2.4 2.4-2.4h5"/><path id="XMLID_223_" class="st3" d="M16.9 13.4h5.8"/></g><g id="XMLID_46_" class="st0"><g id="XMLID_238_" class="st2"><path id="XMLID_233_" class="st4" d="M58.7 8.8l1.2 1.2c1.5 1.5 1.5 3.8 0 5.3L42.4 32.9 36 26.4 53.4 9c1.4-1.6 3.8-1.6 5.3-.2z"/><path id="XMLID_236_" class="st4" d="M44.4 34.8L33.9 24.3"/><path id="XMLID_261_" class="st4" d="M38.5 32.3l1.6-1.5-2.2-2-1.6 1.4"/><path id="XMLID_248_" class="st4" d="M26.4 40.3l-7 6.9-.7-.7-6 6.9 2.8 2.6 6.7-5.9-.7-.7 6.9-6.9"/></g><g id="XMLID_240_" class="st2"><path id="XMLID_231_" class="st4" d="M23.7 10.8c-3.4-3.4-8.3-4.3-12.4-2.9l7.4 7.4-1.6 6-6 1.6-7.4-7.4c-1.5 4.3-.4 9.1 2.9 12.4 3.5 3.5 8.7 4.4 13 2.7l24.9 24.9c1.9 1.9 4.9 1.9 6.8 0s1.9-4.9 0-6.8l-24.9-25c1.7-4.4.9-9.4-2.7-12.9z"/></g></g><g id="XMLID_293_" class="st0"><path id="XMLID_285_" class="st3" d="M43.5 8.1V3.7c0-.4.3-.7.7-.7h5.6c.4 0 .7.3.7.7v10.8"/><path id="XMLID_283_" class="st3" d="M56.2 27.1v32.4c0 .9-.7 1.6-1.6 1.6H8.7c-.9 0-1.6-.7-1.6-1.6V27.1"/><path id="XMLID_281_" class="st3" d="M.4 28L31.5 3.4c.3-.3.7-.3 1 0L63.4 28"/><path id="XMLID_284_" class="st3" d="M15.8 36.9h10.3v10.3H15.8z"/><path id="XMLID_286_" class="st3" d="M34.8 36.9h14.3v24.3H34.8z"/><path id="XMLID_288_" class="st3" d="M11.9 47h18"/><path id="XMLID_290_" class="st3" d="M11.2 26.1h41.7"/><circle id="XMLID_289_" class="st3" cx="32.1" cy="16.8" r="3.8"/></g><g id="XMLID_315_" class="st0"><path id="XMLID_306_" class="st3" d="M24 8.3h33.2c1.2 0 2.2 1 2.2 2.2V36c0 1.2-1 2.2-2.2 2.2h-1.6v14.4c0 .6-.6.7-1 .3L42 37.9H6.6c-1.2 0-2.2-1-2.2-2.2V10.5c0-1.2 1-2.2 2.2-2.2h7.5"/><path id="XMLID_287_" class="st3" d="M15.6 8.3h5"/><circle id="XMLID_305_" class="st3" cx="18.1" cy="22" r="4.1"/><circle id="XMLID_301_" class="st3" cx="31.1" cy="22" r="4.1"/><circle id="XMLID_300_" class="st3" cx="43.9" cy="22" r="4.1"/><path id="XMLID_307_" class="st3" d="M38.9 55.7h20.5"/><path id="XMLID_299_" class="st3" d="M36 55.7h-7"/><path id="XMLID_308_" class="st3" d="M14.1 55.7h12.6"/></g><g id="XMLID_318_" class="st0"><path id="XMLID_327_" class="st3" d="M52.3 43.4c.4-1.9.6-3.8.6-5.9V28H21.4v9.6c0 6.8 2.5 13.4 7.2 18.4v4.9h17.3V56c.9-1 1.8-2.1 2.5-3.1"/><path id="XMLID_323_" class="st3" d="M49.4 51.2c.9-1.6 1.6-3.2 2.2-5"/><path id="XMLID_322_" class="st3" d="M23 46.2h-5.2c-3.7 0-6.8-3.1-6.8-6.8 0-3.7 3.1-6.8 6.8-6.8h3.4"/><path id="XMLID_320_" class="st3" d="M33.2 24.5v-1.9c0-2.8 2.2-5 5-5h4.7c1 0 1.8-.9 1.8-1.8 0-1-.9-1.8-1.8-1.8H28.1c-.9 0-1.6-.7-1.6-1.6 0-.9.7-1.6 1.6-1.6h6.2"/><path id="XMLID_319_" class="st3" d="M37 10.9h5.3c1 0 1.9-.9 1.9-1.9 0-1-.9-1.9-1.9-1.9H28.6c-1.2 0-2.1-.9-2.1-2.1 0-1.2.9-2.1 2.1-2.1h19.9"/></g><g id="XMLID_369_" class="st0"><path id="XMLID_89_" class="st3" d="M7.6 60h45c2.1 0 4.6-.3 4.6-2.5"/><path id="XMLID_80_" class="st3" d="M11.8 23.4H9.6c-1 0-1.9.9-1.9 1.9"/><g id="XMLID_368_" class="st2"><path id="XMLID_90_" class="st4" d="M14.1 24.2V11.1c0-1.5 1.2-2.8 2.8-2.8H39"/></g><g id="XMLID_358_" class="st2"><path id="XMLID_88_" class="st4" d="M18.3 6.6c0-1.5 1.2-2.8 2.8-2.8h22.1l4.6 4.3"/></g><g id="XMLID_353_" class="st2"><path id="XMLID_853_" class="st4" d="M60 20.8h-8.7c-.6 0-1-.4-1-1v-8.7"/><path id="XMLID_923_" class="st4" d="M55.4 25.7H29.6"/><path id="XMLID_856_" class="st4" d="M55.4 31.1h-5.1"/><path id="XMLID_924_" class="st4" d="M55.4 36.7h-5.1"/><path id="XMLID_925_" class="st4" d="M55.4 42.2h-5.1"/><path id="XMLID_377_" class="st4" d="M25.3 29.3V13.9c0-1.5 1.2-2.8 2.8-2.8h22.1l9.7 9.7v33.9c0 1.5-1.2 2.8-2.8 2.8h-5"/></g><path id="XMLID_170_" class="st3" d="M52.6 60H5.9c-1.2 0-2.1-.9-2.1-2.1V29.1c0-.9.7-1.6 1.6-1.6h8c.6 0 1.2.3 1.5.7l2.1 3.2h29.8c1 0 1.9.9 1.9 1.9V56c-.1 2 1.3 4 3.9 4z"/></g><g id="XMLID_427_" class="st0"><path id="XMLID_429_" class="st3" d="M32.6 4.3h18.7c1.6 0 2.9 1.3 2.9 2.9v49.5c0 1.6-1.3 2.9-2.9 2.9H12.7c-1.6 0-2.9-1.3-2.9-2.9V7.2c0-1.6 1.3-2.9 2.9-2.9h6.6"/><path id="XMLID_371_" class="st3" d="M23 4.3h6"/><path id="XMLID_425_" class="st3" d="M15.9 29.3h4.6v4.6h-4.6z"/><path id="XMLID_424_" class="st3" d="M25 29.3h4.6v4.6H25z"/><path id="XMLID_417_" class="st3" d="M34.3 29.3h4.6v4.6h-4.6z"/><path id="XMLID_416_" class="st3" d="M43.5 29.3h4.6v4.6h-4.6z"/><path id="XMLID_415_" class="st3" d="M15.9 37.8h4.6v4.6h-4.6z"/><path id="XMLID_402_" class="st3" d="M25 37.8h4.6v4.6H25z"/><path id="XMLID_400_" class="st3" d="M34.3 37.8h4.6v4.6h-4.6z"/><path id="XMLID_399_" class="st3" d="M43.5 37.8h4.6v4.6h-4.6z"/><path id="XMLID_398_" class="st3" d="M15.9 46.2h4.6v4.6h-4.6z"/><path id="XMLID_397_" class="st3" d="M25 46.2h4.6v4.6H25z"/><path id="XMLID_396_" class="st3" d="M34.3 46.2h4.6v4.6h-4.6z"/><path id="XMLID_395_" class="st3" d="M43.5 46.2h4.6v4.6h-4.6z"/><path id="XMLID_378_" class="st3" d="M15.9 12.2h32.3v11.1H15.9z"/></g><g id="XMLID_448_" class="st0"><path id="XMLID_432_" class="st3" d="M10.4 41c-2.2-2.7-3.5-6-3.5-9.9 0-8.6 6.9-15.5 15.5-15.5 6.8 0 12.5 4.3 14.6 10.3"/><path id="XMLID_533_" class="st3" d="M42.6 37.9c-1.6-2.7-4.6-4.3-8-4.3-1.8 0-3.4.4-4.9 1.3"/><path id="XMLID_531_" class="st3" d="M22.2 36.9c2.2 0 4.1 1.8 4.1 4.1"/><path id="XMLID_431_" class="st3" d="M59.1 43.5h-.3c-1-3.5-4.3-6-8-6-1.6 0-3.2.4-4.4 1.3-.9-5.5-5.6-9.7-11.2-9.7-5.2 0-9.4 3.4-10.9 8-.6-.1-1.3-.3-2.1-.3-4 0-7.1 2.8-7.7 6.6h-1.3c-3.2 0-5.9 2.7-5.9 5.9v.4c0 3.2 2.7 5.9 5.9 5.9h46c3.2 0 5.9-2.7 5.9-5.9v-.4c-.1-3.1-2.7-5.8-6-5.8z"/><path id="XMLID_436_" class="st3" d="M21.2 10.5V13"/><path id="XMLID_435_" class="st3" d="M29.5 8.3l-1.9 5.3"/><path id="XMLID_437_" class="st3" d="M34.8 14.3l-1.6 2.1"/><path id="XMLID_446_" class="st3" d="M42.4 18.1l-4.8 3"/><path id="XMLID_447_" class="st3" d="M42.9 26.4l-2.8.4"/><path id="XMLID_455_" class="st3" d="M4.5 42.8l2.7-1.5"/><path id="XMLID_456_" class="st3" d="M-1.1 36.6l5.6-1.1"/><path id="XMLID_457_" class="st3" d="M1.3 28.8l2.8.4"/><path id="XMLID_458_" class="st3" d="M1 20.4l4.9 2.8"/><path id="XMLID_465_" class="st3" d="M7.8 15.8L9.7 18"/><path id="XMLID_466_" class="st3" d="M13 9.1l1.9 5.4"/></g><g id="XMLID_451_" class="st0"><path id="XMLID_530_" class="st5" d="M59.7 57.4H4.3c-1.5 0-2.7-1.2-2.7-2.7V15.5c0-1.5 1.2-2.7 2.7-2.7h55.4c1.5 0 2.7 1.2 2.7 2.7v39.4c0 1.3-1.2 2.5-2.7 2.5z"/><path id="XMLID_453_" class="st3" d="M1.6 32V15.8c0-1.6 1.3-2.9 2.9-2.9h54.9c1.6 0 2.9 1.3 2.9 2.9v38.8c0 1.6-1.3 2.9-2.9 2.9H4.5c-1.6 0-2.9-1.3-2.9-2.9v-4.1"/><path id="XMLID_452_" class="st3" d="M1.6 44.7v-7.8"/><path id="XMLID_488_" class="st3" d="M11.3 6.6v9.8"/><path id="XMLID_487_" class="st3" d="M18.1 6.6v9.8"/><path id="XMLID_486_" class="st3" d="M24.9 6.6v9.8"/><path id="XMLID_485_" class="st3" d="M31.5 6.6v9.8"/><path id="XMLID_484_" class="st3" d="M38.3 6.6v9.8"/><path id="XMLID_483_" class="st3" d="M45.1 6.6v9.8"/><path id="XMLID_482_" class="st3" d="M51.7 6.6v9.8"/><g id="XMLID_502_" class="st2"><circle id="XMLID_454_" class="st4" cx="24.3" cy="26" r="1.9"/><circle id="XMLID_467_" class="st4" cx="31.7" cy="26" r="1.9"/><circle id="XMLID_468_" class="st4" cx="39.2" cy="26" r="1.9"/><circle id="XMLID_471_" class="st4" cx="46.7" cy="26" r="1.9"/><circle id="XMLID_74_" class="st4" cx="54.1" cy="26" r="1.9"/><circle id="XMLID_72_" class="st4" cx="54.1" cy="33.5" r="1.9"/><circle id="XMLID_65_" class="st4" cx="54.1" cy="41" r="1.9"/><circle id="XMLID_480_" class="st4" cx="9.3" cy="33.5" r="1.9"/><circle id="XMLID_479_" class="st4" cx="16.8" cy="33.5" r="1.9"/><circle id="XMLID_478_" class="st4" cx="24.3" cy="33.5" r="1.9"/><circle id="XMLID_477_" class="st4" cx="31.7" cy="33.5" r="1.9"/><circle id="XMLID_476_" class="st4" cx="39.2" cy="33.5" r="1.9"/><circle id="XMLID_475_" class="st4" cx="46.7" cy="33.5" r="1.9"/><circle id="XMLID_494_" class="st4" cx="9.3" cy="41" r="1.9"/><circle id="XMLID_493_" class="st4" cx="16.8" cy="41" r="1.9"/><circle id="XMLID_77_" class="st4" cx="24.3" cy="41" r="1.9"/><circle id="XMLID_491_" class="st4" cx="31.7" cy="41" r="1.9"/><circle id="XMLID_490_" class="st4" cx="39.2" cy="41" r="1.9"/><circle id="XMLID_489_" class="st4" cx="46.7" cy="41" r="1.9"/><circle id="XMLID_501_" class="st4" cx="9.3" cy="48.5" r="1.9"/><circle id="XMLID_500_" class="st4" cx="16.8" cy="48.5" r="1.9"/><circle id="XMLID_499_" class="st4" cx="24.3" cy="48.5" r="1.9"/><circle id="XMLID_498_" class="st4" cx="31.7" cy="48.5" r="1.9"/><circle id="XMLID_497_" class="st4" cx="39.2" cy="48.5" r="1.9"/></g></g><g id="XMLID_506_" class="st0"><path id="XMLID_106_" class="st3" d="M23 58v5.1l8.4-3.5 8.4 3.5V48.5"/><path id="XMLID_532_" class="st3" d="M23 48.8v6.6"/><path id="XMLID_496_" class="st3" d="M52.6 28.8c0 2.8-2.5 5-3.5 7.4-1 2.5-.9 5.8-2.7 7.7-1.9 1.9-5.2 1.6-7.7 2.7-2.4 1-4.6 3.5-7.4 3.5s-5-2.5-7.4-3.5c-2.5-1-5.8-.9-7.7-2.7-1.9-1.9-1.6-5.2-2.7-7.7-1-2.4-3.5-4.6-3.5-7.4s2.5-5 3.5-7.4c1-2.5.9-5.8 2.7-7.7 1.9-1.9 5.2-1.6 7.7-2.7 2.4-1 4.6-3.5 7.4-3.5s5 2.5 7.4 3.5c2.5 1 5.8.9 7.7 2.7 1.9 1.9 1.6 5.2 2.7 7.7 1 2.5 3.5 4.7 3.5 7.4z"/><circle id="XMLID_504_" class="st3" cx="31.4" cy="28.8" r="14"/><path id="XMLID_715_" class="st3" d="M37.3 37.9l-5.5-2.8h-.3L26.1 38c-.3.1-.6-.1-.6-.4l1-6c0-.1 0-.3-.1-.3L21.9 27c-.1-.1-.1-.6.1-.6l6-1c.1 0 .3-.1.3-.1l2.7-5.6c.1-.3.6-.3.6 0l2.8 5.5c0 .1.1.1.3.1l6 .9c.3 0 .4.4.1.6l-4.4 4.4c-.1.1-.1.1-.1.3l1.2 6c.2.4-.1.5-.2.4z"/><path id="XMLID_528_" class="st3" d="M31.8.9v4.7"/><path id="XMLID_527_" class="st3" d="M41.4 2.5l-1.6 4.4"/><path id="XMLID_526_" class="st3" d="M49.8 7.4l-2.9 3.5"/><path id="XMLID_525_" class="st3" d="M56.2 14.7L52 17.1"/><path id="XMLID_524_" class="st3" d="M59.4 23.9l-4.6.9"/><path id="XMLID_523_" class="st3" d="M59.6 33.6l-4.6-.7"/><path id="XMLID_522_" class="st3" d="M56.2 42.8l-4-2.4"/><path id="XMLID_521_" class="st3" d="M50 50.3l-3-3.6"/><path id="XMLID_520_" class="st3" d="M14 50.3l3.1-3.6"/><path id="XMLID_519_" class="st3" d="M7.8 42.9l4-2.3"/><path id="XMLID_518_" class="st3" d="M4.4 33.8L9 33"/><path id="XMLID_517_" class="st3" d="M4.4 24l4.6.9"/><path id="XMLID_516_" class="st3" d="M7.8 14.9l4 2.4"/><path id="XMLID_515_" class="st3" d="M14 7.5l2.9 3.6"/><path id="XMLID_514_" class="st3" d="M22.4 2.7L24 6.9"/></g><g id="XMLID_547_" class="st0"><path id="XMLID_544_" class="st3" d="M47.8 4H54c1.5 0 2.8 1.2 2.8 2.8v50.6c0 1.5-1.2 2.8-2.8 2.8h-7.5"/><path id="XMLID_545_" class="st3" d="M15.9 4v55.6"/><g id="XMLID_559_" class="st2"><circle id="XMLID_562_" class="st4" cx="32.3" cy="32" r="9.1"/><circle id="XMLID_561_" class="st4" cx="32.1" cy="28.6" r="2.4"/><path id="XMLID_560_" class="st4" d="M28.4 38.8v-2.2c0-2.1 1.8-3.8 3.8-3.8 2.1 0 3.8 1.8 3.8 3.8v2.2"/></g><path id="XMLID_555_" class="st3" d="M34.6 4.6v14.9l4.7-2 4.9 2V4.6"/><path id="XMLID_556_" class="st3" d="M21.1 4h4.8"/><path id="XMLID_542_" class="st3" d="M28.3 4h19.6c1.5 0 2.8 1.2 2.8 2.8v50.6c0 1.5-1.2 2.8-2.8 2.8H10.2c-1.5 0-2.8-1.2-2.8-2.8V6.8C7.3 5.3 8.5 4 10.2 4h8.7"/></g><g id="XMLID_63_" class="st0"><g id="XMLID_47_" class="st2"><path id="XMLID_610_" class="st4" d="M20.5 59H6.3C4 59 2 57.1 2 54.7V14c0-1.5 1.2-2.7 2.7-2.7h3.7"/><path id="XMLID_167_" class="st4" d="M33.3 5h26C60.8 5 62 6.2 62 7.7v48.8c0 1.3-1.2 2.5-2.5 2.5H6.3c2.8 0 4.3-2.2 4.3-4.3l-.1-47c0-1.5 1.2-2.7 2.7-2.7h5.2"/><path id="XMLID_137_" class="st4" d="M23 5h6.9"/><path id="XMLID_599_" class="st4" d="M16.8 23.2h38.9"/><path id="XMLID_601_" class="st4" d="M31.4 30.7h24.2"/><path id="XMLID_602_" class="st4" d="M31.4 35.8h24.2"/><path id="XMLID_152_" class="st4" d="M31.4 40.8h24.2"/><path id="XMLID_156_" class="st4" d="M16.8 46h38.8"/><path id="XMLID_164_" class="st4" d="M16.8 51h38.8"/><path id="XMLID_600_" class="st4" d="M17.7 29.9h11.1V41H17.7z"/></g></g></g><g id="headline" class="st0"><path id="XMLID_13_" class="st6" d="M-155.2-142H80.7"/></g></svg>