<svg id="Layer_1" xmlns="http://www.w3.org/2000/svg" viewBox="0 0 128 128"><style>.st0{fill:#f33536}</style><path class="st0" d="M57.6 2.6H38.1c-2.4 0-4.3 1.9-4.3 4.3v19.5c0 2.4 1.9 4.3 4.3 4.3h19.5c2.4 0 4.3-1.9 4.3-4.3V6.9c0-2.4-1.9-4.3-4.3-4.3zm0 23.8H38.1V6.9h19.5v19.5zm0 8.6H38.1c-2.4 0-4.3 1.9-4.3 4.3v19.5c0 2.4 1.9 4.3 4.3 4.3h19.5c2.4 0 4.3-1.9 4.3-4.3V39.3c0-2.4-1.9-4.3-4.3-4.3zm0 23.8H38.1V39.3h19.5v19.5zM90 2.6H70.5c-2.4 0-4.3 1.9-4.3 4.3v19.5c0 2.4 1.9 4.3 4.3 4.3H90c2.4 0 4.3-1.9 4.3-4.3V6.9c0-2.4-1.9-4.3-4.3-4.3zm0 23.8H70.5V6.9H90v19.5zm0 8.6H70.5c-2.4 0-4.3 1.9-4.3 4.3v19.5c0 2.4 1.9 4.3 4.3 4.3H90c2.4 0 4.3-1.9 4.3-4.3V39.3c0-2.4-1.9-4.3-4.3-4.3zm0 23.8H70.5V39.3H90v19.5zM25.2 2.6H5.7c-2.4 0-4.3 1.9-4.3 4.3v19.5c0 2.4 1.9 4.3 4.3 4.3h19.5c2.4 0 4.3-1.9 4.3-4.3V6.9c0-2.4-2-4.3-4.3-4.3zm0 23.8H5.7V6.9h19.5v19.5zm0 8.6H5.7c-2.4 0-4.3 1.9-4.3 4.3v19.5c0 2.4 1.9 4.3 4.3 4.3h19.5c2.4 0 4.3-1.9 4.3-4.3V39.3c0-2.4-2-4.3-4.3-4.3zm0 23.8H5.7V39.3h19.5v19.5zM57.6 67H38.1c-2.4 0-4.3 1.9-4.3 4.3v19.5c0 2.4 1.9 4.3 4.3 4.3h19.5c2.4 0 4.3-1.9 4.3-4.3V71.4c0-2.4-1.9-4.4-4.3-4.4zm0 23.9H38.1V71.4h19.5v19.5zM90 67H70.5c-2.4 0-4.3 1.9-4.3 4.3v19.5c0 2.4 1.9 4.3 4.3 4.3H90c2.4 0 4.3-1.9 4.3-4.3V71.4c0-2.4-1.9-4.4-4.3-4.4zm0 23.9H70.5V71.4H90v19.5zm32.3-88.3h-19.5c-2.4 0-4.3 1.9-4.3 4.3v19.5c0 2.4 1.9 4.3 4.3 4.3h19.5c2.4 0 4.3-1.9 4.3-4.3V6.9c.1-2.4-1.9-4.3-4.3-4.3zm0 23.8h-19.5V6.9h19.5v19.5zm0 8.6h-19.5c-2.4 0-4.3 1.9-4.3 4.3v19.5c0 2.4 1.9 4.3 4.3 4.3h19.5c2.4 0 4.3-1.9 4.3-4.3V39.3c.1-2.4-1.9-4.3-4.3-4.3zm0 23.8h-19.5V39.3h19.5v19.5zm0 8.2h-19.5c-2.4 0-4.3 1.9-4.3 4.3v19.5c0 2.4 1.9 4.3 4.3 4.3h19.5c2.4 0 4.3-1.9 4.3-4.3V71.4c.1-2.4-1.9-4.4-4.3-4.4zm0 23.9h-19.5V71.4h19.5v19.5zM25.2 67H5.7c-2.4 0-4.3 1.9-4.3 4.3v19.5c0 2.4 1.9 4.3 4.3 4.3h19.5c2.4 0 4.3-1.9 4.3-4.3V71.4c0-2.4-2-4.4-4.3-4.4zm0 23.9H5.7V71.4h19.5v19.5zM57.6 99H38.1c-2.4 0-4.3 1.9-4.3 4.3v19.5c0 2.4 1.9 4.3 4.3 4.3h19.5c2.4 0 4.3-1.9 4.3-4.3v-19.4c0-2.4-1.9-4.4-4.3-4.4zm0 23.9H38.1v-19.5h19.5v19.5zM90 99H70.5c-2.4 0-4.3 1.9-4.3 4.3v19.5c0 2.4 1.9 4.3 4.3 4.3H90c2.4 0 4.3-1.9 4.3-4.3v-19.4c0-2.4-1.9-4.4-4.3-4.4zm0 23.9H70.5v-19.5H90v19.5zM122.3 99h-19.5c-2.4 0-4.3 1.9-4.3 4.3v19.5c0 2.4 1.9 4.3 4.3 4.3h19.5c2.4 0 4.3-1.9 4.3-4.3v-19.4c.1-2.4-1.9-4.4-4.3-4.4zm0 23.9h-19.5v-19.5h19.5v19.5zM25.2 99H5.7c-2.4 0-4.3 1.9-4.3 4.3v19.5c0 2.4 1.9 4.3 4.3 4.3h19.5c2.4 0 4.3-1.9 4.3-4.3v-19.4c0-2.4-2-4.4-4.3-4.4zm0 23.9H5.7v-19.5h19.5v19.5z" id="layout"/></svg>