<svg id="Layer_1" xmlns="http://www.w3.org/2000/svg" viewBox="0 0 61 49"><style>.st0{fill:#f33536}</style><path class="st0" d="M55 41c2.8 0 5 2.2 5 5v1c0 .6-.4 1-1 1H1c-.6 0-1-.4-1-1v-1c0-2.7 2.1-4.9 4.8-5 .3-.6.7-1 1.2-1.5V20H3c-.6 0-1-.4-1-1v-4c0-.4.2-.8.6-.9l27-12c.3-.1.6-.1.8 0L45 8.6V6c-.6 0-1-.4-1-1V1c0-.6.4-1 1-1h8c.6 0 1 .4 1 1v4c0 .6-.4 1-1 1v6.1l4.4 2c.4.2.6.5.6.9v4c0 .6-.4 1-1 1h-3v21.1c.3 0 .7-.1 1-.1zM38 23v19.6c.1-.1.2-.1.4-.2.6-1.4 2-2.4 3.6-2.4.5 0 .9.1 1.4.2 1.1-1.4 2.8-2.2 4.6-2.2 1.5 0 2.9.6 4 1.6V17.7L30 8.1 8 17.7v20.7c.6-.2 1.3-.4 2-.4 1.8 0 3.5.8 4.6 2.2.4-.2.9-.2 1.4-.2 1.5 0 2.8.8 3.5 2h.5c.7 0 1.4.2 2 .6V23c0-.6.4-1 1-1h14c.6 0 1 .5 1 1zm-2 1H24v22h12V24zM5.3 43.1H5c-1.7 0-3 1.3-3 3h20c0-1.4-1.4-2.4-2.7-1.9-.3.1-.6.1-.8 0-.3-.1-.4-.4-.5-.6-.2-.9-1-1.5-1.9-1.5-.4 0-.8.1-1.1.3-.2.2-.5.2-.8.1-.3-.1-.5-.2-.6-.5-.7-1.3-2-2-3.4-2-1.6 0-3.1 1-3.7 2.4-.3.5-.8.7-1.2.7zM52 2h-6v2h6V2zm-5 4v3.5l4 1.8V6h-4zm9 12v-2.4l-4.4-2-6-2.7L30 4.1 4 15.7V18h2v-1c0-.4.2-.8.6-.9l23-10c.3-.1.5-.1.8 0l23 10c.4.2.6.5.6.9v1h2zm-2.6 25.5c-.3.2-.6.2-.9.1-.3-.1-.5-.4-.6-.7-.5-1.7-2.1-2.9-3.9-2.9-1.4 0-2.7.8-3.5 2-.1.2-.4.4-.6.5-.3.1-.6 0-.8-.1-.3-.3-.7-.4-1.1-.4-.9 0-1.6.6-1.9 1.4-.1.3-.3.6-.7.7-.9.3-1.4 1-1.4 1.9h20c0-1.7-1.3-3-3-3-.6 0-1.2.2-1.6.5zm-4.3.5c-.2 0-.4-.1-.6-.2-.5-.3-.8-.3-1.1-.1-.5.3-1.1.2-1.4-.2-.3-.5-.2-1.1.2-1.4 1.1-.7 2.2-.7 3.4 0 .5.3.6.9.3 1.4-.1.4-.4.5-.8.5zm-37.4-1.7c.4.3.5 1 .2 1.4-.2.3-.5.4-.8.4-.2 0-.4-.1-.6-.2-.5-.4-.8-.3-1.1-.1-.5.3-1.1.2-1.4-.3-.3-.5-.2-1.1.3-1.4.8-.5 2-.8 3.4.2zM27 34c.6 0 1 .5 1 1 0 .6-.5 1-1 1s-1-.5-1-1 .5-1 1-1zm13-2v-9c0-.6.4-1 1-1h8c.6 0 1 .4 1 1v9c.6 0 1 .4 1 1s-.4 1-1 1H40c-.6 0-1-.4-1-1 0-.5.5-1 1-1zm2 0h6v-4h-6v4zm0-6h6v-2h-6v2zm-22 8H10c-.6 0-1-.4-1-1s.4-1 1-1v-9c0-.6.4-1 1-1h8c.6 0 1 .4 1 1v9c.6 0 1 .4 1 1s-.4 1-1 1zm-2-10h-6v2h6v-2zm0 4h-6v4h6v-4z"/></svg>