<svg id="Layer_1" xmlns="http://www.w3.org/2000/svg" xmlns:xlink="http://www.w3.org/1999/xlink" viewBox="0 0 612 792"><style>.st0{clip-path:url(#SVGID_2_);fill:none;stroke:#f33536;stroke-width:45}.st1{fill:#f33536}</style><defs><path id="SVGID_1_" d="M50 140h512v512H50z"/></defs><clipPath id="SVGID_2_"><use xlink:href="#SVGID_1_" overflow="visible"/></clipPath><path class="st0" d="M306 629.5c128.8 0 233.5-104.7 233.5-233.5S434.8 162.5 306 162.5 72.5 267.2 72.5 396 177.2 629.5 306 629.5z"/><path class="st1" d="M323.2 471.6l8.4-33.9 18.6-75c3.3-13.4-4.8-26.9-18.2-30.2l-2.4-.6c-1.6-.4-3.3-.6-4.9-.7v-.5s-.4.2-1.1.5c-7.7 0-18.9 7.4-18.9 7.4-21.7 15.2-51.5 35.3-47.1 44.8 6.7 14.5 39.3-23.7 31.5 7.8l-8.4 33.9-18.6 75c-3.3 13.4 3.8 26.6 17.1 29.9l2.4.6c1.6.4 3.3.6 4.9.7v.5s.4-.2 1.1-.5c7.7 0 18.9-7.4 18.9-7.4 21.7-15.2 52.1-35.1 47.6-44.7-6.7-14.4-38.7 23.9-30.9-7.6z"/><circle class="st1" cx="319.7" cy="281" r="34.9"/></svg>