<svg id="Layer_1" xmlns="http://www.w3.org/2000/svg" viewBox="0 0 64 64"><style>.st0{fill:#a9bec6}</style><path class="st0" d="M56.3 58.5c-.6.3-1.3.6-1.9.9l2.8 4.6 3.6-2.1-2.8-4.6c-.5.4-1.1.9-1.7 1.2zm4.5-21.8c-4-6.9-13.6-9.3-20.5-5.2-7 4.2-9.4 13.4-5.2 20.5 2.1 3.4 5.2 5.8 9.1 6.9s7.9.4 11.4-1.6c3.4-2.1 5.8-5.2 6.9-9.1 1-4.1.4-8.1-1.7-11.5zm-2.1 10.4c-.7 2.9-2.5 5.4-5.1 6.9-5.1 3-12.3 1.2-15.2-3.9-3.1-5.2-1.3-12.1 3.9-15.2 2.5-1.5 5.5-1.9 8.5-1.2 2.8.7 5.4 2.5 6.9 5.1 1.3 2.3 1.8 5.3 1 8.3z"/><path class="st0" d="M43.9 42.5l-3.3-.9c-1 4.3 1.5 8.7 5.8 9.7l.9-3.3c-2.5-.4-4-3-3.4-5.5z"/><path class="st0" d="M23.5 48.8V8.4l14.6-4v26.1c1.2-.7 2.4-1.5 3.7-1.9V4.2l14.9 4.2v21.5c1.3.9 2.7 1.9 3.7 3.1V7c0-.9-.6-1.6-1.3-1.8L40.5.1h-1L21.5 5 3.4.1C2.8 0 2.2.1 1.8.4S1 1.3 1 1.9v44.2c0 .9.6 1.6 1.3 1.8L20.4 53c.3.1.6.3.9.3h.2c.3 0 .6-.1.9-.3l9.6-2.7c-.4-1.2-.7-2.4-.9-3.6l-7.6 2.1zm-4.1 0l-14.6-4V4.4l14.6 4v40.4z"/></svg>