<svg id="Layer_1" xmlns="http://www.w3.org/2000/svg" viewBox="0 0 45.6 32"><style>.st0{fill:none;stroke:#fff;stroke-width:2;stroke-linecap:round;stroke-linejoin:round;stroke-miterlimit:10}.st1{fill:#f33536}</style><path class="st0" d="M649 138h26v18h-14m-8 0h-4v-14m12 14l-8 6v-6"/><path class="st1" d="M28.2 4.6h-27c-.6 0-1 .5-1 1s.5 1 1 1h25.9v16.6H13.3c-.1 0-.1.1-.2.1 0 0-.1 0-.1.1l-6.6 5v-4.1c0-.6-.5-1-1-1H2.2V9.8c0-.6-.5-1-1-1s-1 .5-1 1v14.5c0 .6.5 1 1 1h3.1v5.2c0 .4.2.8.6.9.1.1.3.1.5.1s.4-.1.6-.2l8-6h14.2c.6 0 1-.5 1-1V5.7c0-.6-.5-1.1-1-1.1zM17 4.4h1V2.5h25.9c.6 0 1-.5 1-1 0-.6-.5-1-1-1H17c-.6 0-1 .5-1 1v3c.3-.1.6-.1 1-.1zm26.9-1.3c-.6 0-1 .5-1 1V19h-3.1c-.6 0-1 .5-1 1v4.1l-6.6-5s-.1 0-.1-.1c-.1 0-.1-.1-.2-.1h-2.2V21h1.6l8 6c.2.1.4.2.6.2.2 0 .3 0 .5-.1.4-.2.6-.5.6-.9V21h3.1c.6 0 1-.5 1-1V4c-.1-.4-.6-.9-1.2-.9z"/></svg>