<svg id="Layer_1" xmlns="http://www.w3.org/2000/svg" viewBox="0 0 91 91"><style>.st0{fill:#f33536}</style><path class="st0" d="M45 73.6c9.1 0 17.4-4.3 22.7-11.6l4.6 4.6 2.4-2.4-12-12c1.1-1.5 1.8-3.1 2.2-4.9h4.6c-.1 2.1-.5 4.1-1.2 6.1l3.2 1.1c.9-2.8 1.4-5.8 1.4-8.8 0-15.4-12.5-27.9-27.9-27.9-15.4 0-27.9 12.5-27.9 27.9S29.6 73.6 45 73.6zm16.6-36.7c-1.5-1.5-3.3-2.5-5.3-3.1 3-.6 5.8-1.5 8.4-2.7 2.7 3.6 4.4 8 4.7 12.8H65c-.3-2.6-1.4-5.1-3.4-7zm-8.3 16.7c-2.3 0-4.4-.9-6-2.5-1.6-1.6-2.5-3.7-2.5-6 0-2.2.9-4.4 2.5-6s3.7-2.5 6-2.5c2.2 0 4.4.9 6 2.5s2.5 3.7 2.5 6c0 2.2-.9 4.4-2.5 6s-3.8 2.5-6 2.5zM45 70.2h-1.4c-1.9-2.8-3.5-6.2-4.6-10 1.9-.2 3.8-.3 5.7-.3 1.9 0 3.7.1 5.5.3-1.1 3.8-2.7 7.2-4.7 10H45zm-.4-13.7c-2.2 0-4.4.1-6.6.4-.7-3-1.1-6.2-1.2-9.5h4.7c.4 2.3 1.5 4.5 3.3 6.2 1.7 1.7 3.8 2.8 6.1 3.2-2-.2-4.1-.3-6.3-.3zm.3-19.6c-1.9 1.9-3.1 4.4-3.4 7.1h-4.6c.1-3.2.5-6.4 1.1-9.3 2.2.3 4.4.4 6.6.4.9 0 1.9 0 2.8-.1-.9.5-1.7 1.1-2.5 1.9zM33.5 44h-13c.3-4.7 2-9 4.6-12.6 3 1.2 6.2 2.2 9.6 2.8-.7 3.1-1.1 6.4-1.2 9.8zm0 3.4c.1 3.4.5 6.8 1.2 10-3.4.6-6.6 1.5-9.6 2.7-2.6-3.6-4.3-8-4.6-12.7h13zm-6 15.4c2.5-.9 5.2-1.7 8.1-2.2.9 3.2 2.1 6.2 3.6 8.8-4.5-1-8.6-3.4-11.7-6.6zm22.2 7c1.6-2.7 2.8-5.8 3.8-9.1 3.1.5 6.1 1.3 8.8 2.4-3.4 3.4-7.8 5.7-12.6 6.7zm15-9.5c-3.2-1.4-6.7-2.4-10.3-3 0-.1 0-.2.1-.3 2.2-.2 4.2-1 5.9-2.3l4.9 4.9c-.3.2-.5.5-.6.7zm-2.3-31.9c-2.8 1.1-5.7 1.9-8.9 2.4-1-3.4-2.3-6.5-3.8-9.3 5 1.1 9.3 3.5 12.7 6.9zm-16.9-7.3c2 2.9 3.6 6.4 4.7 10.2-1.8.2-3.7.3-5.5.3-1.9 0-3.9-.1-5.7-.3 1.1-3.8 2.7-7.3 4.7-10.1h1.4c.1-.1.2-.1.4-.1zm-6.3.7c-1.5 2.7-2.7 5.7-3.7 9-2.9-.5-5.6-1.2-8.2-2.2 3.2-3.2 7.3-5.6 11.9-6.8z"/></svg>