<svg id="Layer_1" xmlns="http://www.w3.org/2000/svg" viewBox="0 0 60.1 51.8"><style>.st0{fill:#a9bec6}</style><path class="st0" d="M54.2 0H6.5c-3 0-5.2 2.3-5.2 5.2v41.3c0 2.9 2.3 5.2 5.2 5.2h47.8c2.9 0 5.2-2.3 5.2-5.2V5.2C59.4 2.3 57.1 0 54.2 0zm.6 22.2v24.5c0 .3-.3.8-.6.8H6.5c-.5 0-.8-.3-.8-.8V5.2c0-.5.3-.8.8-.8h47.6c.5 0 .8.3.8.8v17zm.2 0"/><path class="st0" d="M8 30.9c0 1.2 1.1 2.1 2.3 2.1h39.6c1.2 0 2.3-.9 2.3-2.1 0-1.2-1.1-2.1-2.3-2.1H10.1c-1.2 0-2.1.9-2.1 2.1zm0 9.2c0 1.2 1.1 2.1 2.3 2.1h39.6c1.2 0 2.3-.9 2.3-2.1 0-1.2-1.1-2.1-2.3-2.1H10.1c-1.2 0-2.1.9-2.1 2.1zm-.2-18.4c0 1.2 1.1 2.1 2.3 2.1h39.6c1.2 0 2.3-.9 2.3-2.1s-1.1-2.1-2.3-2.1H10c-1.3 0-2.2.9-2.2 2.1zm0-9.2c0 1.2 1.1 2.1 2.3 2.1h39.6c1.2 0 2.3-.9 2.3-2.1s-1.1-2.1-2.3-2.1H10c-1.3 0-2.2.9-2.2 2.1z"/></svg>