<svg height="43" viewBox="0 0 45 43" width="45" xmlns="http://www.w3.org/2000/svg"><title/><path d="M42 23.267a.67.67 0 0 1-.932 0L22.803 5.002a1 1 0 0 0-1.414 0L3.125 23.267a.67.67 0 0 1-.933 0 .66.66 0 0 1 0-.933L22.096 2.43 42 22.334a.657.657 0 0 1 .19.467.656.656 0 0 1-.19.466zm-4.8-.77v16c0 1.103-.896 2-2 2h-7v-12c0-1.654-1.345-3-3-3h-6c-1.654 0-3 1.346-3 3v12h-7c-1.102 0-2-.897-2-2v-16a.997.997 0 0 0-.082-.395l14.978-14.98 15.15 15.15c-.018.075-.045.146-.045.225zm-30-14.5a1.501 1.501 0 0 1 3 0v3.5l-3 3v-6.5zM22.804.309l-.015-.016a1 1 0 0 0-1.414 0c-.028.028-.04.064-.062.093L12.2 9.496v-1.5c0-1.93-1.571-3.5-3.5-3.5-1.93 0-3.5 1.57-3.5 3.5v8.5L.778 20.92a2.663 2.663 0 0 0 0 3.762 2.65 2.65 0 0 0 1.88.776c.68 0 1.362-.26 1.88-.777l.663-.662v14.478c0 2.206 1.794 4 4 4h8a1 1 0 0 0 1-1v-13c0-.551.448-1 1-1h6c.55 0 1 .449 1 1v13a1 1 0 0 0 1 1h8c2.205 0 4-1.794 4-4v-14.27l.453.454a2.647 2.647 0 0 0 1.88.778c.68 0 1.362-.26 1.88-.778a2.662 2.662 0 0 0 0-3.761L22.803.309z" fill="#f33536" fill-rule="evenodd"/></svg>