<svg xmlns="http://www.w3.org/2000/svg" width="31" height="21.833" viewBox="10.672 4.197 31 21.833"><path fill="#f33536" d="M39.776 14.015a.356.356 0 0 1-.334.228H28.116c-.262 0-.513-.096-.702-.27l-6.307-5.967-7.645 6.1a.555.555 0 0 1-.772-.041l-.61-.671a.536.536 0 0 1 .042-.762l2.429-1.962V6.995c0-.325.263-.588.583-.588h1.446c.321 0 .583.263.583.589v1.567l3.579-2.889a.55.55 0 0 1 .732 0l2.835 2.473h9.068c.28 0 .548.096.758.271l5.535 5.212a.344.344 0 0 1 .106.385zm.021 9.34v.927a.408.408 0 0 1-.407.408H13.218a.408.408 0 0 1-.406-.408v-.927c0-.226.183-.407.406-.407h.463v-7.713c.118-.054.235-.11.325-.189l7.056-5.626 5.507 5.198c.353.32.809.496 1.287.496h11.07v7.835h.464a.405.405 0 0 1 .407.406zm-11.316-6.094v5.687h.871v-5.087c0-.076.061-.138.135-.138h6.692c.074 0 .137.062.137.138v5.087h.87v-5.687a.408.408 0 0 0-.408-.407h-7.891a.405.405 0 0 0-.406.407zm-3.483 1.197c0 .074.062.135.136.135h1.47a.138.138 0 0 0 .137-.135v-1.47a.137.137 0 0 0-.137-.136h-1.47a.137.137 0 0 0-.136.136v1.47zm-9.576 0c0 .074.062.135.137.135h1.469a.136.136 0 0 0 .136-.135v-1.47a.136.136 0 0 0-.136-.136h-1.469a.137.137 0 0 0-.137.136v1.47zm3.483 4.49h.871v-5.087c0-.076.062-.138.136-.138h2.339c.075 0 .136.062.136.138v5.087h.871v-5.687a.406.406 0 0 0-.407-.407h-3.537a.407.407 0 0 0-.408.407v5.687z"/></svg>