<svg height="32" viewBox="0 0 44 32" width="44" xmlns="http://www.w3.org/2000/svg"><title/><path d="M41.548 19.651v7.966c0 1.103-.897 2-2 2H4c-1.102 0-2-.897-2-2v-7.966c0-1.103.898-2 2-2h9.955c.275 3.939 3.56 7.062 7.568 7.062 4.007 0 7.292-3.123 7.567-7.062h10.458c1.103 0 2 .897 2 2M34.078.089a1 1 0 0 1 1.324.501l7.394 16.384a.977.977 0 0 1 .077.458 3.98 3.98 0 0 1 .675 2.219v7.966c0 2.205-1.794 4-4 4H4c-2.206 0-4-1.795-4-4v-7.966c0-.991.376-1.888.975-2.588.012-.036.01-.073.026-.108L8.53.583a1 1 0 1 1 1.817.836L3.792 15.672c.07-.004.137-.021.208-.021h10.456c.396 0 .73.234.892.567.34.16.58.5.58.901a5.601 5.601 0 0 0 5.595 5.595 5.6 5.6 0 0 0 5.592-5.554.974.974 0 0 1-.16-.509 1 1 0 0 1 1-1h11.593c.164 0 .32.029.48.048l-6.45-14.287a1 1 0 0 1 .5-1.323zM8.832 12.187a1 1 0 0 1 1-1h23a1 1 0 1 1 0 2h-23a1 1 0 0 1-1-1zm3-6a1 1 0 0 1 1-1h18a1 1 0 1 1 0 2h-18a1 1 0 0 1-1-1zm16-4h-12a1 1 0 1 1 0-2h12a1 1 0 1 1 0 2z" fill="#f33536" fill-rule="evenodd"/></svg>