<?xml version="1.0" encoding="utf-8"?>
<!-- Generator: Adobe Illustrator 21.1.0, SVG Export Plug-In . SVG Version: 6.00 Build 0)  -->
<svg version="1.1" id="Layer_1" xmlns="http://www.w3.org/2000/svg" xmlns:xlink="http://www.w3.org/1999/xlink" x="0px" y="0px"
	 viewBox="0 0 3228.3 530.4" style="enable-background:new 0 0 3228.3 530.4;" xml:space="preserve">
<style type="text/css">
	.st0{fill:#FFFFFF;stroke:#FFFFFF;stroke-miterlimit:10;}
	.st1{fill:#B82C27;}
	.st2{fill:none;stroke:#B82C27;stroke-width:4.9173;stroke-miterlimit:10;}
	.st3{fill:#FFFFFF;}
</style>
<g>
	<path class="st0" d="M3177.1,393.4v64.1l-55.6-64.1h-4.8v73.4h5.7v-64.1l55.8,64.1h4.7v-73.4H3177.1z M3019.4,453.1
		c-6.4-6.2-9.5-13.9-9.5-23c0-9.1,3.2-16.8,9.5-23c6.3-6.2,14.1-9.4,23.3-9.4c9.1,0,16.8,3.1,23.1,9.4c6.3,6.3,9.4,13.9,9.4,23
		c0,9.1-3.1,16.7-9.4,23c-6.3,6.3-14,9.4-23.1,9.4C3033.5,462.5,3025.7,459.4,3019.4,453.1 M3015,403.4
		c-7.5,7.3-11.3,16.2-11.3,26.7c0,10.5,3.8,19.3,11.3,26.6c7.5,7.3,16.7,10.9,27.5,10.9c10.9,0,20-3.6,27.6-10.9
		c7.5-7.3,11.3-16.2,11.3-26.6c0-10.5-3.8-19.4-11.3-26.7c-7.5-7.3-16.7-11-27.6-11C3031.6,392.5,3022.5,396.1,3015,403.4
		 M2962.8,466.8h5.7v-73.4h-5.7V466.8z M2871.6,393.4v4.7h27.5v68.6h5.7v-68.6h27.5v-4.7H2871.6z M2808.9,436.7l15.7-34.5l15.8,34.5
		H2808.9z M2823.1,392.9l-33.9,73.9h5.9l11.6-25.4h35.9l11.6,25.4h6l-33.9-73.9H2823.1z M2731.8,398.2c6.2,0,11,1.3,14.3,3.8
		c3.3,2.5,5,6,5,10.6c0,4.6-1.6,8.1-4.9,10.6c-3.3,2.5-8,3.8-14.2,3.8h-12.2v-28.7H2731.8z M2714.1,466.8h5.7v-35.2h9.9
		c4.6,0,8.1,0.8,10.4,2.5c2.4,1.7,5.7,5.9,10,12.6l12.8,20.1h6.7l-16.6-25.4c-4.1-6.3-7.3-10-9.8-11.2c9.3-3.4,14-9.4,14-17.9
		c0-5.8-2.1-10.4-6.3-13.8c-4.2-3.4-10.2-5.1-18.1-5.1h-18.8V466.8z M2616.7,453.1c-6.3-6.2-9.5-13.9-9.5-23c0-9.1,3.2-16.8,9.5-23
		c6.4-6.2,14.1-9.4,23.3-9.4c9.1,0,16.8,3.1,23.1,9.4c6.3,6.3,9.4,13.9,9.4,23c0,9.1-3.1,16.7-9.4,23c-6.3,6.3-14,9.4-23.1,9.4
		C2630.8,462.5,2623.1,459.4,2616.7,453.1 M2612.3,403.4c-7.5,7.3-11.3,16.2-11.3,26.7c0,10.5,3.8,19.3,11.3,26.6
		c7.5,7.3,16.7,10.9,27.5,10.9c10.9,0,20.1-3.6,27.6-10.9c7.5-7.3,11.3-16.2,11.3-26.6c0-10.5-3.8-19.4-11.3-26.7
		c-7.5-7.3-16.7-11-27.6-11C2629,392.5,2619.8,396.1,2612.3,403.4 M2547.6,398.2c5.8,0,10.3,1.3,13.4,4c3.1,2.7,4.7,6.2,4.7,10.8
		c0,4.7-1.6,8.4-4.8,11c-3.2,2.6-7.8,3.9-14,3.9h-13.7v-29.6H2547.6z M2527.7,466.8h5.7v-34.3h14c8,0,14.1-1.8,18.2-5.3
		c4.1-3.5,6.2-8.3,6.2-14.4c0-6-2.1-10.7-6.2-14.2c-4.1-3.5-10-5.2-17.8-5.2h-20.2V466.8z M2462.2,398.2c6.2,0,11,1.3,14.3,3.8
		c3.3,2.5,5,6,5,10.6c0,4.6-1.6,8.1-4.9,10.6c-3.3,2.5-8,3.8-14.2,3.8h-12.2v-28.7H2462.2z M2444.6,466.8h5.7v-35.2h9.9
		c4.6,0,8.1,0.8,10.4,2.5c2.4,1.7,5.7,5.9,10,12.6l12.8,20.1h6.7l-16.6-25.4c-4.1-6.3-7.3-10-9.8-11.2c9.3-3.4,14-9.4,14-17.9
		c0-5.8-2.1-10.4-6.3-13.8c-4.2-3.4-10.2-5.1-18.1-5.1h-18.8V466.8z M2347.2,453.1c-6.4-6.2-9.5-13.9-9.5-23c0-9.1,3.2-16.8,9.5-23
		c6.4-6.2,14.1-9.4,23.3-9.4c9.1,0,16.8,3.1,23.1,9.4c6.3,6.3,9.4,13.9,9.4,23c0,9.1-3.1,16.7-9.4,23c-6.3,6.3-14,9.4-23.1,9.4
		C2361.3,462.5,2353.6,459.4,2347.2,453.1 M2342.8,403.4c-7.5,7.3-11.3,16.2-11.3,26.7c0,10.5,3.8,19.3,11.3,26.6
		c7.5,7.3,16.7,10.9,27.5,10.9c10.8,0,20-3.6,27.6-10.9c7.5-7.3,11.3-16.2,11.3-26.6c0-10.5-3.8-19.4-11.3-26.7
		c-7.5-7.3-16.8-11-27.6-11C2359.5,392.5,2350.3,396.1,2342.8,403.4 M2275.6,392.5c-10.5,0-19.5,3.6-27.1,10.8
		c-7.6,7.2-11.4,16.2-11.4,26.9c0,10.7,3.7,19.6,11.2,26.7c7.4,7.2,16.7,10.7,27.9,10.7c8.7,0,17.3-2.3,26-6.9V455
		c-9.4,5-18.1,7.5-26.1,7.5c-9.6,0-17.4-3-23.6-9.1c-6.2-6-9.2-13.8-9.2-23.2c0-9.3,3.1-17,9.2-23.2c6.1-6.2,13.7-9.3,22.8-9.3
		c8.5,0,17.3,2.4,26.1,7.1v-6.2C2292.4,394.5,2283.8,392.5,2275.6,392.5 M2114.8,393.4v73.4h40.9v-4.7h-35.2v-29.8h33.5v-4.8h-33.5
		v-29.4h34.3v-4.7H2114.8z M2023.4,393.4v4.7h27.5v68.6h5.7v-68.6h27.5v-4.7H2023.4z M1960.6,436.7l15.8-34.5l15.8,34.5H1960.6z
		 M1974.9,392.9l-33.9,73.9h6l11.6-25.4h35.9l11.6,25.4h5.9l-33.9-73.9H1974.9z M1868.6,393.4v4.7h27.5v68.6h5.7v-68.6h27.5v-4.7
		H1868.6z M1822.2,392.5c-5.8,0-10.8,1.9-14.9,5.7c-4.1,3.8-6.2,8.4-6.2,13.8c0,3.9,0.8,7.1,2.5,9.5c1.7,2.5,3.8,4.4,6.2,5.7
		c2.4,1.3,6.5,3.1,12.2,5.3c5.7,2.2,9.4,4.5,11.3,7c1.9,2.5,2.8,5.3,2.8,8.4c0,4.1-1.5,7.6-4.5,10.4c-3,2.8-6.7,4.2-11,4.2
		c-5.2,0-11.4-2.6-18.5-7.8v6.7c6.4,4.3,12.7,6.4,18.8,6.4c5.9,0,11-1.9,15.1-5.8c4.1-3.9,6.2-8.6,6.2-14.3c0-4.2-0.9-7.7-2.7-10.3
		c-1.8-2.7-4-4.7-6.5-6.1c-2.6-1.4-6.6-3.2-12.2-5.3c-5.6-2.1-9.2-4.3-11-6.6c-1.7-2.3-2.6-4.8-2.6-7.7c0-4,1.5-7.3,4.4-9.9
		c3-2.7,6.6-4,11.1-4c4.6,0,10.1,1.9,16.4,5.6v-6.2C1833.6,394,1828,392.5,1822.2,392.5 M1730.6,393.4v73.4h40.9v-4.7h-35.2v-29.8
		h33.5v-4.8h-33.5v-29.4h34.3v-4.7H1730.6z M1607.1,393.4v73.4h42v-4.7h-36.3v-68.6H1607.1z M1525.5,436.7l15.8-34.5l15.8,34.5
		H1525.5z M1539.7,392.9l-33.9,73.9h5.9l11.6-25.4h35.9l11.6,25.4h5.9l-33.9-73.9H1539.7z M1439.8,393.4v73.4h40.8v-4.7h-35.2v-29.8
		h33.4v-4.8h-33.4v-29.4h34.3v-4.7H1439.8z M1374.2,398.2c6.2,0,11,1.3,14.3,3.8c3.3,2.5,5,6,5,10.6c0,4.6-1.6,8.1-4.9,10.6
		c-3.3,2.5-8,3.8-14.2,3.8h-12.2v-28.7H1374.2z M1356.5,466.8h5.7v-35.2h9.9c4.6,0,8.1,0.8,10.4,2.5c2.4,1.7,5.7,5.9,10,12.6
		l12.8,20.1h6.7l-16.6-25.4c-4.1-6.3-7.3-10-9.8-11.2c9.3-3.4,14-9.4,14-17.9c0-5.8-2.1-10.4-6.2-13.8c-4.2-3.4-10.2-5.1-18.1-5.1
		h-18.8V466.8z M1233.2,393.4v73.4h42v-4.7h-36.3v-68.6H1233.2z M1151.5,436.7l15.8-34.5l15.8,34.5H1151.5z M1165.8,392.9
		l-33.9,73.9h5.9l11.6-25.4h35.9l11.6,25.4h6l-33.9-73.9H1165.8z M1095.9,393.4v64.1l-55.6-64.1h-4.8v73.4h5.7v-64.1l55.8,64.1h4.7
		v-73.4H1095.9z M938.1,453.1c-6.4-6.2-9.5-13.9-9.5-23c0-9.1,3.2-16.8,9.5-23c6.4-6.2,14.1-9.4,23.3-9.4c9.1,0,16.8,3.1,23.1,9.4
		c6.3,6.3,9.4,13.9,9.4,23c0,9.1-3.1,16.7-9.4,23c-6.3,6.3-14,9.4-23.1,9.4C952.2,462.5,944.5,459.4,938.1,453.1 M933.7,403.4
		c-7.5,7.3-11.3,16.2-11.3,26.7c0,10.5,3.8,19.3,11.3,26.6c7.5,7.3,16.7,10.9,27.5,10.9c10.8,0,20-3.6,27.6-10.9
		c7.6-7.3,11.3-16.2,11.3-26.6c0-10.5-3.8-19.4-11.3-26.7c-7.5-7.3-16.7-11-27.6-11C950.4,392.5,941.2,396.1,933.7,403.4
		 M871.1,392.5c-5.8,0-10.8,1.9-14.9,5.7c-4.1,3.8-6.2,8.4-6.2,13.8c0,3.9,0.8,7.1,2.5,9.5c1.7,2.5,3.8,4.4,6.2,5.7
		c2.4,1.3,6.5,3.1,12.2,5.3c5.7,2.2,9.4,4.5,11.3,7c1.9,2.5,2.8,5.3,2.8,8.4c0,4.1-1.5,7.6-4.5,10.4c-3,2.8-6.7,4.2-11,4.2
		c-5.2,0-11.4-2.6-18.5-7.8v6.7c6.4,4.3,12.7,6.4,18.8,6.4c6,0,11-1.9,15.1-5.8c4.1-3.9,6.2-8.6,6.2-14.3c0-4.2-0.9-7.7-2.7-10.3
		c-1.8-2.7-4-4.7-6.5-6.1c-2.6-1.4-6.6-3.2-12.2-5.3c-5.6-2.1-9.2-4.3-11-6.6c-1.7-2.3-2.6-4.8-2.6-7.7c0-4,1.5-7.3,4.4-9.9
		c3-2.7,6.6-4,11.1-4c4.6,0,10.1,1.9,16.4,5.6v-6.2C882.4,394,876.8,392.5,871.1,392.5 M788,398.2c6.2,0,11,1.3,14.3,3.8
		c3.3,2.5,5,6,5,10.6c0,4.6-1.6,8.1-4.9,10.6c-3.3,2.5-8,3.8-14.2,3.8h-12.2v-28.7H788z M770.4,466.8h5.7v-35.2h9.9
		c4.6,0,8.1,0.8,10.4,2.5c2.4,1.7,5.7,5.9,10,12.6l12.8,20.1h6.7l-16.6-25.4c-4.1-6.3-7.4-10-9.8-11.2c9.3-3.4,14-9.4,14-17.9
		c0-5.8-2.1-10.4-6.2-13.8c-4.2-3.4-10.2-5.1-18.1-5.1h-18.8V466.8z M696.3,393.4v73.4h40.9v-4.7h-35.2v-29.8h33.5v-4.8h-33.5v-29.4
		h34.3v-4.7H696.3z M639.7,398.2c5.8,0,10.3,1.3,13.4,4c3.1,2.7,4.7,6.2,4.7,10.8c0,4.7-1.6,8.4-4.8,11c-3.2,2.6-7.8,3.9-14,3.9
		h-13.7v-29.6H639.7z M619.7,466.8h5.7v-34.3h14c8,0,14.1-1.8,18.2-5.3c4.1-3.5,6.2-8.3,6.2-14.4c0-6-2.1-10.7-6.2-14.2
		c-4.1-3.5-10-5.2-17.8-5.2h-20.2V466.8z"/>
	<path class="st0" d="M618.2,53.5h86.2c33.7,0,82.9,3.3,115.2,47c19.8,24.9,27.9,55,27.9,88.4c0,76.7-40.4,136.1-139,136.1h-90.3
		V53.5z M672.9,276.9h38.5c58.7,0,81.4-38.5,81.4-87.3c0-21.3-5.5-44-18.3-60.9c-11.4-14.7-29.7-27.1-62.7-27.1h-38.9V276.9z"/>
	<path class="st0" d="M948.1,326.4h-59.4L998.7,55h48.1l107.5,271.5h-59.8l-19.8-53.2H967.5L948.1,326.4z M1020.4,119.5l-38.5,110.1
		h78.2L1020.4,119.5z"/>
	<polygon class="st0" points="1160.2,54.9 1216.7,54.9 1284.5,261.1 1353.1,54.9 1409.6,54.9 1312.4,326.4 1257,326.4 	"/>
	<rect x="1466.1" y="54.9" class="st0" width="54.7" height="271.5"/>
	<path class="st0" d="M1612.2,54.9h86.2c33.7,0,82.9,3.3,115.2,47c19.8,24.9,27.9,55,27.9,88.4c0,76.7-40.4,136.1-139,136.1h-90.3
		V54.9z M1666.8,278.4h38.5c58.7,0,81.4-38.5,81.4-87.3c0-21.3-5.5-44-18.3-60.9c-11.4-14.7-29.7-27.1-62.7-27.1h-38.9V278.4z"/>
	<path class="st0" d="M2335.3,235.4c-16.5,56.1-69.3,96.1-132.8,96.1c-82.9,0-142.4-65.7-142.4-141.3c0-72.3,56.1-140.5,142-140.5
		c78.1,0.4,122.5,58,133.2,97.6h-57.6c-8.4-18.7-32.6-49.1-75.9-49.5c-52.9,0-87,44.4-87,92.4c0,49.5,35.6,93.2,87.3,93.2
		c48.4,0,70.4-38.1,75.6-48H2335.3z"/>
	<polygon class="st0" points="2416.8,326.4 2416.8,55 2471.4,55 2471.4,163.9 2575.9,163.9 2575.9,55 2630.6,55 2630.6,326.4 
		2575.9,326.4 2575.9,212 2471.4,212 2471.4,326.4 	"/>
	<polygon class="st0" points="2722,54.9 2874.2,54.9 2874.2,103 2776.7,103 2776.7,164.6 2872.4,164.6 2872.4,212.7 2776.7,212.7 
		2776.7,278.4 2874.2,278.4 2874.2,326.4 2722,326.4 	"/>
	<polygon class="st0" points="3130.3,54.9 3131.4,243.2 3006.7,54.9 2957.9,54.9 2957.9,326.4 3010.4,326.4 3009.3,138.6 
		3134.4,326.4 3182.8,326.4 3182.8,54.9 	"/>
	<path class="st1" d="M482.7,387.3c0,51.5-41.7,93.2-93.2,93.2h-233c-51.5,0-93.2-41.7-93.2-93.2v-233c0-51.5,41.7-93.2,93.2-93.2
		h233c51.5,0,93.2,41.7,93.2,93.2V387.3z"/>
	<path class="st2" d="M505.9,400.2c0,57.2-46.3,103.5-103.5,103.5H143.6c-57.2,0-103.5-46.4-103.5-103.5V141.4
		C40.1,84.3,86.5,38,143.6,38h258.8c57.1,0,103.5,46.3,103.5,103.5V400.2z"/>
	<path class="st3" d="M370.5,164.9c-11-12.9-21-26.9-35.3-34.1c-14-7.1-33-7.7-50.1-9.2c-7.7-19.8-3.4-22-3.4-43.2
		c0-7.7-1-13.8-8.7-13.8c-7.7,0-16.3,6.1-16.3,13.8c0,21.2,7.2,21.6-0.5,41.3c-17.1,1.5-30,7-44.1,14.1
		c-14.3,7.2-29.2,15.4-40.2,28.3c-12.1,14.2-18.5,33.1-25.7,51.3c-6.8,17.4-10.4,36.2-13.7,55.1c-3.4,19.1-7,38-7.9,56.4
		c-1,20.6,3.7,40,4.6,56.8c1.6,31.8-0.9,54.6-0.5,57.1c1.1,6.9,8.4,8.7,15.2,8.7c0.7,0,1.2,0.9,1.9,0.8c7.6-1.2,14.8-6.7,13.6-14.3
		c-0.1-0.6-0.3-21.6-1.9-52c-0.8-15.5-9.2-33.2-8.5-52.1c0.6-16.9,1.3-35.1,4.1-52.5c2.8-17.5,12.8-33.3,18.7-49.3
		c6.3-17.1,12.7-33.2,23.6-45.9c10-11.7,19.6-24.7,32.8-30.3c12.6-5.3,28.6-4.8,44.5-4.8c15.9,0,29.9,4.2,42.5,9.5
		c13.3,5.6,20.9,17.2,30.9,28.9c11.2,13.2,26.4,25.3,32.2,43.6c5.3,16.7,9.2,35.5,11.2,54c2,18.3-0.1,37.2-0.4,55
		c-0.3,19.7-1.2,38.6-2.8,54.7c-3.1,31.5-7.8,53.4-7.9,54c-1.2,7.6,2.9,16.6,10.6,17.8c0.7,0.1,1.8-0.2,2.5-0.2
		c6.7,0,11.1-6.8,12.2-13.6c0.4-2.3,3.9-21.2,6.9-48.9c1.5-14.5,5.8-31,6.4-49.1c0.6-15.8-5.4-32.3-6.3-49.3
		c-0.9-16.4-2.8-32.4-5.7-48.6c-3.1-16.6-2.5-33.6-8.5-48.5C390.3,190.6,381,177.1,370.5,164.9"/>
	<path class="st3" d="M319.7,381.6l-21.3,1.3l-20.9-1.8l-0.6-13.8l21.5,0.7l21.3-1.7l15.1-12.7l-15.1-15.1l-21.3,0l-21.9,1.8
		l1.5-19.6l-1.7-18.9l2-18.6l17.7-11l13.2-17.1l5.7-21.1l-3.6-19.9l-13.1-15.1l-15.1-13.2l-20-1.5l-19.4,3l-16.1,11.3L215.2,214
		l-3.8,19.9l5.7,21.1l12.1,18.5l21.2,8.9l-0.9,20.5l-0.3,20.1l-1.1,20.1l1.2,20.1l-1.1,20.1l0.7,20.2l0.1,20.2l0.9,20.2l13.2,15.1
		l13.3-15.1l0.9-17.1l-0.2-17.1l21.3,0.8l21.3-1.7l15-13.1L319.7,381.6z M240.2,233.9l5.8-17.1l17.1-5.1l16.5,5.8l6.2,16.5
		l-5.5,17.2l-17.1,4.7l-15.4-6.4L240.2,233.9z"/>
</g>
</svg>
