<svg id="Layer_1" xmlns="http://www.w3.org/2000/svg" viewBox="0 0 114.3 47.5"><style>.st0{fill:none;stroke:#282828;stroke-miterlimit:10}</style><path class="st0" d="M13.1 45H101c6.6 0 12-5.4 12-12V14.5c0-6.6-5.4-12-12-12H13.1c-6.6 0-12 5.4-12 12V33c0 6.6 5.4 12 12 12z"/><path d="M103.4 37.3c-8.2 5-17.8 4.6-23.8-4-4.7-6.7-3.2-16.8 1.5-21.6 5.1-5 12.1-4.7 13.6-4.6 1.3.1 5.2.4 8.8 3.1 1 .8 3.1 2.3 4.4 5.2 1 2.3 1.1 4.3 1.1 4.8 0 4.1-2.4 7.3-3.2 8.1 0-.6.1-5.2.1-6.3h2.2l.1-.5-5.2-3.2V13h-4.1v3.2l-5.4-3.3c-1.6 1-13.7 7.8-15.5 8.9.5 0 2 .1 3.1.1v10.3h5.1v-8.1h5.3v8.1h13.9c3.8-3.4 4.8-5.7 5.3-7.1.5-1.4 1.9-5.7.4-10.3-2.4-7.3-10.9-10.8-17.5-11-1 .2-7.7.2-13.5 5.1-6.3 5.4-8.4 14.2-6.4 21.2.4 1.4 1.5 5.3 5.2 8.5 4.5 4 9.7 4.2 11.1 4.2 7.4.2 11.7-3.1 13.4-5.5zM7.7 31.2l-1.4-2.4H5.2v2.4H4v-6.4h2.8c1.3 0 2.1.8 2.1 2 0 1.1-.8 1.8-1.5 1.9L9 31.2H7.7zm.1-4.4c0-.6-.5-1-1.1-1H5.2v2h1.5c.6 0 1.1-.4 1.1-1zm2.9 4.4v-6.4h4.4v1h-3.3v1.7H15v1h-3.2v1.8h3.3v1h-4.4zm5.9-3.2c0-2 1.5-3.3 3.4-3.3 1.3 0 2.1.7 2.6 1.4l-1 .5c-.3-.5-.9-.9-1.6-.9-1.3 0-2.2 1-2.2 2.3s.9 2.3 2.2 2.3c.7 0 1.3-.4 1.6-.9l1 .5c-.5.8-1.3 1.4-2.6 1.4-1.9 0-3.4-1.3-3.4-3.3zm7.6 3.2v-6.4h1.1v6.4h-1.1zm3.1 0v-6.4h2.8c1.3 0 2.1.9 2.1 2s-.8 2-2.1 2h-1.7v2.4h-1.1zm3.8-4.4c0-.6-.5-1-1.1-1h-1.5v2H30c.6 0 1.1-.4 1.1-1zm6.4 4.4l-1.4-2.4H35v2.4h-1.1v-6.4h2.8c1.3 0 2.1.8 2.1 2 0 1.1-.8 1.8-1.5 1.9l1.6 2.5h-1.4zm.1-4.4c0-.6-.5-1-1.1-1H35v2h1.5c.6 0 1.1-.4 1.1-1zm2.6 1.2c0-1.9 1.4-3.3 3.3-3.3s3.3 1.4 3.3 3.3-1.4 3.3-3.3 3.3-3.3-1.4-3.3-3.3zm5.4 0c0-1.3-.8-2.3-2.1-2.3s-2.1 1-2.1 2.3c0 1.3.8 2.3 2.1 2.3s2.1-1 2.1-2.3zm2.7 0c0-2 1.5-3.3 3.4-3.3 1.3 0 2.1.7 2.6 1.4l-1 .5c-.3-.5-.9-.9-1.6-.9-1.3 0-2.2 1-2.2 2.3s.9 2.3 2.2 2.3c.7 0 1.3-.4 1.6-.9l1 .5c-.5.8-1.3 1.4-2.6 1.4-2 0-3.4-1.3-3.4-3.3zm7.5 3.2v-6.4h1.1v6.4h-1.1zm4.6 0v-5.4h-1.9v-1h5v1h-1.9v5.4h-1.2zm6.5 0v-2.7l-2.5-3.8h1.3l1.8 2.8 1.8-2.8h1.3l-2.5 3.8v2.7h-1.2zm-17.8-9.4V17l-2 4.8h-.5l-2-4.8v4.8h-1.1v-6.4h1.6l1.7 4.2 1.8-4.2h1.6v6.4h-1.1zm2.9 0v-6.4h1.1v5.4H56v1h-4zm5.5-.9l.6-.9c.4.5 1.1.9 2 .9.9 0 1.3-.5 1.3-.9 0-1.3-3.7-.5-3.7-2.9 0-1.1.9-1.9 2.3-1.9 1 0 1.8.3 2.4.9l-.6.9c-.5-.5-1.2-.7-1.9-.7s-1.1.3-1.1.8c0 1.2 3.7.5 3.7 2.9 0 1.1-.8 2-2.5 2-1.1-.1-1.9-.5-2.5-1.1zm9.3 1.1c-1.9 0-3.4-1.5-3.4-3.4s1.5-3.4 3.4-3.4 3.4 1.5 3.4 3.4-1.5 3.4-3.4 3.4zm0-6.3c-1.6 0-2.9 1.3-2.9 2.9 0 1.6 1.3 2.9 2.9 2.9 1.6 0 2.9-1.3 2.9-2.9 0-1.6-1.3-2.9-2.9-2.9zm.9 4.9l-1-1.5H66v1.5h-.5v-3.9h1.6c.7 0 1.2.5 1.2 1.2 0 .9-.8 1.1-1 1.1l1 1.5h-.6zm-.6-3.4H66v1.4h1.1c.3 0 .7-.3.7-.7 0-.4-.4-.7-.7-.7z"/></svg>