<svg xmlns="http://www.w3.org/2000/svg" width="31" height="21.833" viewBox="10.672 4.197 31 21.833"><path opacity=".4" fill="#f33536" d="M21.063 8.369l5.086-2.891 5.039 2.844-.641 1.531-.062 3.858 4.406-2.172 2.656 1.094L40 14.073l-.172 10.594-27.203.017-.328-10.688 5-2.594c1.656.922 4.469 2.233 4.469 2.233l-.016-4-.687-1.266z"/><path fill="#f33536" d="M20.913 9.528V8.213a.33.33 0 0 1 .174-.29l4.928-2.627a.328.328 0 0 1 .31 0l4.928 2.627a.336.336 0 0 1 .175.29v1.314a.33.33 0 0 1-.329.329h-.329v3.411l4.124-2.062a.328.328 0 0 1 .293 0l2.153 1.076v-.454a.329.329 0 0 1-.329-.329v-1.313c0-.182.147-.328.329-.328h1.971c.183 0 .329.146.329.328v1.314a.328.328 0 0 1-.329.329v1.439l1.133.565c.111.057.183.17.183.294v1.314a.329.329 0 0 1-.329.329h-.328v8.871a.327.327 0 0 1-.328.328H21.9a.328.328 0 0 1-.329-.328V9.857h-.328a.33.33 0 0 1-.33-.329zm7.885 10.184h-5.256v.656h5.256v-.656zm-5.256 1.314v.658h5.256v-.658h-5.256zm0 1.315v.656h5.256v-.656h-5.256zm5.256 1.97v-.654h-5.256v.654h5.256zm1.314-5.912h-7.885v5.912h.657v-4.929c0-.18.146-.327.329-.327h5.914c.182 0 .329.147.329.327v4.929h.655v-5.912zm0-1.315h-7.885v.655h7.885v-.655zm0-1.314h-.327a.327.327 0 0 1-.328-.329v-1.314c0-.124.069-.237.182-.294l.475-.236v-3.74h-.327a.328.328 0 0 1-.328-.329v-.462L26.17 7.275l-3.286 1.792v.462a.33.33 0 0 1-.329.329h-.329v6.569h7.885l.001-.657zm3.286 7.886H30.77v.654h2.628v-.654zm2.628-2.63h-1.971v3.285h1.971v-3.285zm3.285 2.63h-2.628v.654h2.628v-.654zm0-7.886h-.328a.329.329 0 0 1-.329-.329v-.454l-3.612-1.807-3.613 1.807v.454a.329.329 0 0 1-.329.329h-.33v7.228h2.628v-2.301c0-.182.146-.328.328-.328h2.629c.183 0 .328.146.328.328v2.301h2.628V15.77zm-1.643-4.6h1.313v-.656h-1.313v.656zm.329.657v.782l.655.329v-1.111h-.655zm-7.885 2.503v.782h.658v-.329c0-.124.069-.237.183-.293l3.941-1.971a.328.328 0 0 1 .293 0l3.942 1.971a.327.327 0 0 1 .182.293v.329h.657v-.782l-4.928-2.464-4.928 2.464zM21.57 9.199h.657V8.87c0-.12.066-.23.171-.289l3.614-1.97a.325.325 0 0 1 .314 0l3.614 1.97c.105.059.17.169.17.289v.329h.658v-.788l-4.6-2.454-4.601 2.454.003.788zm14.785 7.885c0 .725-.59 1.314-1.313 1.314-.725 0-1.314-.59-1.314-1.314s.59-1.313 1.314-1.313c.723 0 1.313.589 1.313 1.313zm-.657 0a.66.66 0 0 0-.657-.658.658.658 0 0 0-.657.658c0 .363.293.655.656.655a.655.655 0 0 0 .658-.655zm-.674 5.583c0-.18.163-.344.346-.344.182 0 .345.164.345.344a.358.358 0 0 1-.345.347.358.358 0 0 1-.346-.347zm-7.211-9.196a.327.327 0 0 1-.329.327h-2.628a.327.327 0 1 1 0-.656v-2.3c0-.182.147-.328.329-.328h1.971c.183 0 .328.146.328.328v2.3c.181 0 .329.146.329.329zm-.987-.985h-1.314v.657h1.314v-.657zm0-1.316h-1.314v.658h1.314v-.658z"/><path fill="#f33536" d="M31.103 9.857h-.328V24.64a.326.326 0 0 1-.329.327h-17.74a.326.326 0 0 1-.328-.327v-8.87h-.329a.33.33 0 0 1-.329-.329v-1.314a.33.33 0 0 1 .182-.294l1.133-.565v-1.439a.328.328 0 0 1-.329-.329v-1.313c0-.182.146-.328.329-.328h1.971c.182 0 .329.146.329.328v1.314a.329.329 0 0 1-.329.329v.454l2.152-1.076a.333.333 0 0 1 .295 0l4.125 2.062V9.857h-.329a.328.328 0 0 1-.328-.329V8.213a.33.33 0 0 1 .173-.29l4.929-2.628a.328.328 0 0 1 .31 0l4.927 2.628a.332.332 0 0 1 .175.29v1.314a.335.335 0 0 1-.332.33zm-7.557 10.511h5.257v-.656h-5.257v.656zm0 .658v.658h5.257v-.658h-5.257zm0 1.315v.656h5.257v-.656h-5.257zm5.257 1.97v-.654h-5.257v.654h5.257zm-6.571 0h.657v-4.929c0-.18.147-.327.328-.327h5.915c.181 0 .327.147.327.327v4.929h.658v-5.912h-7.886v5.912zm0-6.571h7.886v-.655h-7.886v.655zm0-1.314h7.886V9.857h-.329a.328.328 0 0 1-.329-.329v-.462l-3.285-1.792-3.285 1.792v.462a.329.329 0 0 1-.329.329h-.328v3.739l.476.236c.111.057.183.17.183.294v1.314a.329.329 0 0 1-.329.329h-.328l-.003.657zm-3.285 7.885h2.629v-.654h-2.629v.654zm-2.629 0h1.972v-3.285h-1.972v3.285zm-3.286 0h2.629v-.654h-2.629v.654zm0-1.314h2.629v-2.301c0-.182.146-.328.327-.328h2.63c.181 0 .328.146.328.328v2.301h2.629V15.77h-.329a.328.328 0 0 1-.328-.329v-.454l-3.614-1.807-3.614 1.808v.454a.328.328 0 0 1-.329.329h-.328v7.226zm1.643-12.483h-1.314v.655h1.314v-.655zm-.985 1.313v1.111l.657-.329v-.782h-.657zm3.613.039l-4.928 2.464v.782h.657v-.329c0-.124.07-.237.182-.293l3.941-1.971a.333.333 0 0 1 .295 0l3.941 1.971a.328.328 0 0 1 .183.293v.329h.656v-.782l-4.927-2.464zm13.472-3.455l-4.6-2.454-4.6 2.454v.788h.656V8.87c0-.12.065-.23.171-.289l3.615-1.97a.325.325 0 0 1 .314 0l3.613 1.97a.334.334 0 0 1 .173.289v.329h.656v-.788zM17.303 15.77a1.315 1.315 0 0 1 0 2.627c-.724 0-1.314-.59-1.314-1.314 0-.723.59-1.313 1.314-1.313zm0 1.97a.656.656 0 1 0 0-1.313.656.656 0 1 0 0 1.313zm-.328 5.274a.358.358 0 0 1-.345-.347c0-.18.163-.344.345-.344.181 0 .345.164.345.344a.358.358 0 0 1-.345.347zm7.885-9.872v-2.3c0-.182.147-.328.329-.328h1.973c.182 0 .327.146.327.328v2.3c.183 0 .328.146.328.329a.327.327 0 0 1-.328.327H24.86a.326.326 0 0 1-.327-.327.326.326 0 0 1 .327-.329zm.657 0h1.314v-.657h-1.314v.657zm0-1.315h1.314v-.657h-1.314v.657z"/></svg>