<?xml version="1.0" encoding="utf-8"?>
<!-- Generator: Adobe Illustrator 21.1.0, SVG Export Plug-In . SVG Version: 6.00 Build 0)  -->
<svg version="1.1" id="Layer_1" xmlns="http://www.w3.org/2000/svg" xmlns:xlink="http://www.w3.org/1999/xlink" x="0px" y="0px"
	 viewBox="0 0 65.3 48.7" style="enable-background:new 0 0 65.3 48.7;" xml:space="preserve">
<style type="text/css">
	.st0{fill:#686868;}
</style>
<path class="st0" d="M3.4,6.3h42.8C47.7,6.3,49,5,49,3.5v0c0-1.5-1.3-2.8-2.8-2.8H3.4C1.9,0.7,0.6,2,0.6,3.5v0
	C0.6,5,1.9,6.3,3.4,6.3z"/>
<path class="st0" d="M3.4,18.3h20.5c1.5,0,2.8-1.3,2.8-2.8v0c0-1.5-1.3-2.8-2.8-2.8H3.4c-1.5,0-2.8,1.3-2.8,2.8v0
	C0.6,17,1.9,18.3,3.4,18.3z"/>
<path class="st0" d="M3.3,30.3h16.5c1.5,0,2.7-1.2,2.7-2.7v0c0-1.5-1.2-2.7-2.7-2.7H3.3c-1.5,0-2.7,1.2-2.7,2.7v0
	C0.6,29.1,1.8,30.3,3.3,30.3z"/>
<path class="st0" d="M3.1,41.9h19.9c1.3,0,2.4-1.1,2.4-2.4v0c0-1.3-1.1-2.4-2.4-2.4H3.1c-1.3,0-2.4,1.1-2.4,2.4v0
	C0.6,40.8,1.7,41.9,3.1,41.9z"/>
<path class="st0" d="M62.9,46.6c-1.3,1.3-3.3,1.3-4.6,0l-5.7-5.7c-2.3,1.5-5.1,2.4-8.1,2.4c-8.3,0-15.1-6.8-15.1-15.1
	S36.2,13,44.5,13c8.3,0,15.1,6.8,15.1,15.1c0,3-0.9,5.8-2.4,8.1l5.7,5.7C64.2,43.2,64.2,45.3,62.9,46.6z M44.8,18.8c-5,0-9,4-9,9
	s4,9,9,9c5,0,9-4,9-9C53.7,22.8,49.7,18.8,44.8,18.8z"/>
</svg>
