<svg baseProfile="full" height="60" width="52" xmlns="http://www.w3.org/2000/svg"><path d="M51 53.002a1 1 0 0 1-1-1h-4V59a1 1 0 0 1-1 1H5a1 1 0 0 1-1-1V48.003H1a1 1 0 0 1-1-1v-3.999a.999.999 0 0 1 1-.999h3v-3.999H1a1 1 0 0 1-1-1v-3.999a1 1 0 0 1 1-1h3v-3.999H1a1 1 0 0 1-1-1v-3.999a1 1 0 0 1 1-1h3V18.01H1c-.553 0-1-.447-1-.999v-3.999a1 1 0 0 1 1-1h3V2.014H3A.999.999 0 1 1 3 .015h44a1 1 0 1 1 0 1.999h-1v11.997h4a.999.999 0 1 1 2 0v37.991a1 1 0 0 1-1 1zm-11 4.999v-7.998h-6v7.998h6zm-34 0h26v-8.998a1 1 0 0 1 1-1h8a1 1 0 0 1 1 1v8.998h2V6.013H6v51.988zM2 44.004v2h2v-2H2zm0-9.997v1.999h2v-1.999H2zm0-9.998v1.999h2v-1.999H2zm0-9.998v2h2v-2H2zM6 2.014v2h38v-2H6zm44 13.997h-4v1.999h4v-1.999zm0 3.999h-4v1.999h4V20.01zm0 3.999h-4v1.999h4v-1.999zm0 3.999h-4v2h4v-2zm0 3.999h-4v2h4v-2zm0 3.999h-4v2h4v-2zm0 3.999h-4v2h4v-2zm0 3.999h-4v2h4v-2zm0 3.999h-4v2h4v-2zM9 8.013h10a1 1 0 0 1 1 1v5.998a1 1 0 0 1-1 1H9a1 1 0 0 1-1-1V9.013a1 1 0 0 1 1-1zm6 5.998h3v-3.999h-3v3.999zm-5 0h3v-3.999h-3v3.999zM9 18.01h10a1 1 0 0 1 1 1v5.999a.999.999 0 0 1-1 .999H9c-.553 0-1-.447-1-.999V19.01a1 1 0 0 1 1-1zm6 5.999h3V20.01h-3v3.999zm-5 0h3V20.01h-3v3.999zm-1 3.999h10a1 1 0 0 1 1 1v5.998a1 1 0 0 1-1 1H9a1 1 0 0 1-1-1v-5.998a1 1 0 0 1 1-1zm6 5.999h3v-3.999h-3v3.999zm-5 0h3v-3.999h-3v3.999zm-1 3.999h10c.553 0 1 .447 1 .999v5.999a1 1 0 0 1-1 1H9a1 1 0 0 1-1-1v-5.999a.999.999 0 0 1 1-.999zm6 5.998h3v-3.999h-3v3.999zm-5 0h3v-3.999h-3v3.999zm-1 3.999h20a1 1 0 0 1 1 1v5.998a1 1 0 0 1-1 1H9a1 1 0 0 1-1-1v-5.998a1 1 0 0 1 1-1zm1 5.999h18v-3.999H10v3.999zm20-14.997a.999.999 0 0 1 1-.999h10c.553 0 1 .447 1 .999v5.999a1 1 0 0 1-1 1H31a1 1 0 0 1-1-1v-5.999zm7 4.999h3v-3.999h-3v3.999zm-5 0h3v-3.999h-3v3.999zm9-7.998H31a1 1 0 0 1-1-1v-5.998a1 1 0 0 1 1-1h10a1 1 0 0 1 1 1v5.998a1 1 0 0 1-1 1zm-6-5.998h-3v3.999h3v-3.999zm5 0h-3v3.999h3v-3.999zm1-4H31c-.553 0-1-.447-1-.999V19.01a1 1 0 0 1 1-1h10a1 1 0 0 1 1 1v5.999a.999.999 0 0 1-1 .999zm-6-5.998h-3v3.999h3V20.01zm5 0h-3v3.999h3V20.01zm1-3.999H31a1 1 0 0 1-1-1V9.013a1 1 0 0 1 1-1h10a1 1 0 0 1 1 1v5.998a1 1 0 0 1-1 1zm-6-5.999h-3v3.999h3v-3.999zm5 0h-3v3.999h3v-3.999zM27 46.004h-4a1 1 0 0 1-1-1V9.013a1 1 0 0 1 1-1h4a1 1 0 0 1 1 1v35.991a1 1 0 0 1-1 1zm-1-35.992h-2v5.999h2v-5.999zm0 7.998h-2v7.998h2V18.01zm0 9.998h-2v7.998h2v-7.998zm0 9.998h-2v5.998h2v-5.998z" fill="#505070"/></svg>