<?xml version="1.0" encoding="utf-8"?>
<!-- Generator: Adobe Illustrator 21.1.0, SVG Export Plug-In . SVG Version: 6.00 Build 0)  -->
<svg version="1.1" id="Layer_1" xmlns="http://www.w3.org/2000/svg" xmlns:xlink="http://www.w3.org/1999/xlink" x="0px" y="0px"
	 viewBox="0 0 44 32" style="enable-background:new 0 0 44 32;" xml:space="preserve">
<style type="text/css">
	.st0{fill:#B82C27;}
</style>
<title></title>
<path class="st0" d="M41.5,19.7v8c0,1.1-0.9,2-2,2H4c-1.1,0-2-0.9-2-2v-8c0-1.1,0.9-2,2-2h10c0.3,3.9,3.6,7.1,7.6,7.1
	c4,0,7.3-3.1,7.6-7.1h10.5C40.7,17.7,41.5,18.5,41.5,19.7 M34.1,0.1c0.5-0.2,1.1,0,1.3,0.5c0,0,0,0,0,0L42.8,17
	c0.1,0.1,0.1,0.3,0.1,0.5c0.4,0.7,0.7,1.4,0.7,2.2v8c0,2.2-1.8,4-4,4H4c-2.2,0-4-1.8-4-4v-8c0-1,0.4-1.9,1-2.6C1,17,1,17,1,17
	L8.5,0.6c0.2-0.5,0.8-0.7,1.3-0.5s0.7,0.8,0.5,1.3L3.8,15.7c0.1,0,0.1,0,0.2,0h10.5c0.4,0,0.7,0.2,0.9,0.6c0.3,0.2,0.6,0.5,0.6,0.9
	c0,3.1,2.5,5.6,5.6,5.6c3.1,0,5.6-2.5,5.6-5.6C27,17,27,16.8,27,16.7c0-0.6,0.4-1,1-1h11.6c0.2,0,0.3,0,0.5,0L33.6,1.4
	C33.4,0.9,33.6,0.3,34.1,0.1C34.1,0.1,34.1,0.1,34.1,0.1z M8.8,12.2c0-0.6,0.4-1,1-1h23c0.6,0,1,0.4,1,1s-0.4,1-1,1h-23
	C9.3,13.2,8.8,12.7,8.8,12.2z M11.8,6.2c0-0.6,0.4-1,1-1h18c0.6,0,1,0.4,1,1s-0.4,1-1,1h-18C12.3,7.2,11.8,6.7,11.8,6.2z M27.8,2.2
	h-12c-0.6,0-1-0.4-1-1s0.4-1,1-1h12c0.6,0,1,0.4,1,1S28.4,2.2,27.8,2.2z"/>
</svg>
