<svg id="Layer_1" xmlns="http://www.w3.org/2000/svg" viewBox="0 0 24 24"><style>.st0{fill:#9d9d9d}</style><title/><g id="Page-1"><g id="_x33_6--Double-Beds--_x28_hotel_x2C_-service_x2C_-travel_x29_"><path id="Fill-270" class="st0" d="M5 19h14c.6 0 1 .4 1 1v2h2V11c0-.6-.4-1-1-1H3c-.6 0-1 .4-1 1v11h2v-2c0-.6.4-1 1-1m17 5h-2c-1.1 0-2-.9-2-2v-1H6v1c0 1.1-.9 2-2 2H2c-1.1 0-2-.9-2-2V11c0-1.7 1.3-3 3-3h18c1.7 0 3 1.3 3 3v11c0 1.1-.9 2-2 2"/><path id="Fill-271" class="st0" d="M2 14h20v-3c0-.6-.4-1-1-1H3c-.6 0-1 .4-1 1v3zm21 2H1c-.6 0-1-.4-1-1v-4c0-1.7 1.3-3 3-3h18c1.7 0 3 1.3 3 3v4c0 .6-.4 1-1 1z"/><path id="Fill-272" class="st0" d="M17.9 8H20V3c0-.6-.4-1-1-1H5c-.6 0-1 .4-1 1v5h2.1C6.6 5.2 9 3 12 3s5.4 2.2 5.9 5m3.1 2h-4c-.6 0-1-.4-1-1 0-2.2-1.8-4-4-4S8 6.8 8 9c0 .6-.4 1-1 1H3c-.6 0-1-.4-1-1V3c0-1.7 1.3-3 3-3h14c1.7 0 3 1.3 3 3v6c0 .6-.4 1-1 1"/></g></g></svg>