<svg id="Layer_1" xmlns="http://www.w3.org/2000/svg" viewBox="0 0 61 61"><style>.st0{fill:#fff}</style><path class="st0" d="M60 60H2c-.6 0-1-.4-1-1s.4-1 1-1h1V9c0-.6.4-1 1-1h5V5c0-.6.4-1 1-1h12V1c0-.6.4-1 1-1s1 .4 1 1v3h12c.6 0 1 .4 1 1v3h5c.6 0 1 .4 1 1v49h8v-8.1c-3.4-.5-6-3.4-6-6.9 0-2.8 2.4-17 7-17s7 14.2 7 17c0 3.5-2.6 6.4-6 6.9V58h7c.6 0 1 .4 1 1s-.5 1-1 1zm-29-2h6V44h-6v14zm2-38v4h4v-4h-4zm4-2v-4h-4v4h4zm-4 8v4h4v-4h-4zm0 6v4h4v-4h-4zm0 6v4h4v-4h-4zm-6-18v4h4v-4h-4zm4-2v-4h-4v4h4zm-4 8v4h4v-4h-4zm0 6v4h4v-4h-4zm0 6v4h4v-4h-4zm-3 20h5V44h-5v14zm-3-38v4h4v-4h-4zm4-2v-4h-4v4h4zm-4 8v4h4v-4h-4zm0 6v4h4v-4h-4zm0 6v4h4v-4h-4zm-4 20h5V44h-5v14zm-2-38v4h4v-4h-4zm4-2v-4h-4v4h4zm-4 8v4h4v-4h-4zm0 6v4h4v-4h-4zm0 6v4h4v-4h-4zM9 58h6V44H9v14zm0-16h4v-4H9v4zm0-6h4v-4H9v4zm0-6h4v-4H9v4zm0-6h4v-4H9v4zm0-6h4v-4H9v4zM35 6H11v2h24V6zm6 4H5v48h2V13c0-.6.4-1 1-1h30c.6 0 1 .4 1 1v45h2V10zm16 33c0-6-3.6-15-5-15-1.5 0-5 9-5 15 0 2.8 2.2 5 5 5 2.7 0 5-2.2 5-5zm-5.8-7.4c-.5.1-1.1-.2-1.2-.8-.1-.5.2-1.1.8-1.2 1.3-.3 2.3.2 3.1 1.3.3.5.2 1.1-.3 1.4-.2.1-.4.2-.6.2-.3 0-.6-.2-.8-.4-.4-.6-.6-.6-1-.5zm-.2 8.3c.5.1.9.7.7 1.2-.1.5-.5.8-1 .8h-.2c-.9-.2-2-.8-2.2-2.6-.1-.5.3-1 .9-1.1.5-.1 1 .3 1.1.9 0 .5.3.7.7.8z"/></svg>