<?xml version="1.0" encoding="utf-8"?>
<!-- Generator: Adobe Illustrator 21.1.0, SVG Export Plug-In . SVG Version: 6.00 Build 0)  -->
<svg version="1.1" id="Layer_1" xmlns="http://www.w3.org/2000/svg" xmlns:xlink="http://www.w3.org/1999/xlink" x="0px" y="0px"
	 viewBox="0 0 136.4 35.4" style="enable-background:new 0 0 136.4 35.4;" xml:space="preserve">
<style type="text/css">
	.st0{fill:#242E39;stroke:#F33536;stroke-miterlimit:10;}
	.st1{fill:#F33536;}
	.st2{fill:#FFFFFF;}
</style>
<path class="st0" d="M135,28.2c0,0.7-0.6,1.2-1.2,1.2H77.9L74.7,33l-3-3.5H2.5c-0.7,0-1.2-0.6-1.2-1.2V2.6c0-0.7,0.6-1.2,1.2-1.2
	h131.3c0.7,0,1.2,0.7,1.2,1.4V28.2z"/>
<path class="st1" d="M2.6,4c0-0.7,0.6-1.2,1.2-1.2h30C34.5,2.8,35,3.3,35,4l0,23c0,0.7-0.6,1.2-1.2,1.2H3.8c-0.7,0-1.2-0.6-1.2-1.2
	C2.6,27,2.6,4,2.6,4z"/>
<path class="st2" d="M22.5,20.3V17h2.4v3.2C24.9,20.3,22.5,20.3,22.5,20.3z M24.9,21.9v3.2h-2.4v-3.2H24.9z M22.5,15.4v-3.2h2.4v3.2
	C24.9,15.4,22.5,15.4,22.5,15.4z M19.2,20.3V17h2.4v3.2C21.7,20.3,19.2,20.3,19.2,20.3z M21.7,21.9v3.2h-2.4v-3.2H21.7z M19.2,15.4
	v-3.2h2.4v3.2C21.7,15.4,19.2,15.4,19.2,15.4z M19.2,10.5V7.3h2.4v3.2L19.2,10.5z M16,20.3V17h2.4v3.2C18.4,20.3,16,20.3,16,20.3z
	 M18.4,21.9v3.2H16v-3.2H18.4z M16,15.4v-3.2h2.4v3.2C18.4,15.4,16,15.4,16,15.4z M16,10.5V7.3h2.4v3.2L16,10.5z M24.9,7.3v3.2h-2.4
	V7.3C22.5,7.3,24.9,7.3,24.9,7.3z M12.7,7.3h2.4v3.2h-2.4C12.7,10.5,12.7,7.3,12.7,7.3z M12.7,12.2h2.4v3.2h-2.4
	C12.7,15.4,12.7,12.2,12.7,12.2z M12.7,17h2.4v3.2h-2.4V17z M12.7,21.9h2.4v3.2h-2.4V21.9z M27,26h-0.5V6.5c0-0.9-0.7-1.6-1.6-1.6
	h-0.8c0-0.9-0.7-1.6-1.6-1.6h-7.3c-0.9,0-1.6,0.7-1.6,1.6h-0.8c-0.9,0-1.6,0.7-1.6,1.6V26h-0.4c-0.2,0-0.4,0.2-0.4,0.4v0.9
	c0,0.2,0.2,0.4,0.4,0.4H27c0.2,0,0.4-0.2,0.4-0.4c0,0,0,0,0,0v-0.9C27.3,26.1,27.2,26,27,26C27,26,27,26,27,26z"/>
</svg>
