<svg xmlns="http://www.w3.org/2000/svg" width="16.334" height="21.833" viewBox="10.672 4.197 16.334 21.833"><path fill="#fff" d="M21.589 18.815v-2.552h1.915v2.552h-1.915zm1.915 1.278v2.553h-1.915v-2.553h1.915zm-1.915-5.107v-2.552h1.915v2.552h-1.915zm-2.552 3.829v-2.552h1.915v2.552h-1.915zm1.914 1.278v2.553h-1.915v-2.553h1.915zm-1.914-5.107v-2.552h1.915v2.552h-1.915zm0-3.83V8.604h1.915v2.554l-1.915-.002zm-2.554 7.659v-2.552h1.915v2.552h-1.915zm1.915 1.278v2.553h-1.915v-2.553h1.915zm-1.915-5.107v-2.552h1.915v2.552h-1.915zm0-3.83V8.604h1.915v2.554l-1.915-.002zm7.021-2.552v2.554h-1.915V8.604h1.915zm-9.573 0h1.915v2.554h-1.915V8.604zm0 3.83h1.915v2.552h-1.915v-2.552zm0 3.829h1.915v2.552h-1.915v-2.552zm0 3.83h1.915v2.553h-1.915v-2.553zm11.208 3.191h-.359V7.965c0-.704-.569-1.275-1.274-1.275h-.638c0-.705-.571-1.275-1.276-1.275h-5.744c-.705 0-1.276.57-1.276 1.275h-.638c-.705 0-1.275.572-1.275 1.275v15.317h-.358a.279.279 0 0 0-.279.278v.72c0 .153.125.278.279.278h12.844a.278.278 0 0 0 .279-.278v-.72a.286.286 0 0 0-.285-.276z"/></svg>