<svg xmlns="http://www.w3.org/2000/svg" width="133.739" height="31.583" viewBox="0.305 0 133.739 31.583"><path fill="#FF9600" d="M134.045 26.846a1.24 1.24 0 0 1-1.239 1.241H76.883l-3.168 3.496-3.04-3.496H1.545a1.241 1.241 0 0 1-1.239-1.241V1.24A1.24 1.24 0 0 1 1.545 0h131.261c.686 0 1.239.746 1.239 1.431v25.415z"/><path fill="#7C4803" d="M1.594 2.62c0-.686.555-1.24 1.24-1.24h29.96c.686 0 1.24.556 1.24 1.24l-.033 22.978a1.24 1.24 0 0 1-1.24 1.239H2.834a1.24 1.24 0 0 1-1.24-1.239V2.62z"/><path fill="#FFF" d="M21.463 18.905V15.66h2.434v3.244h-2.434zm2.434 1.622v3.243h-2.434v-3.243h2.434zm-2.434-6.488v-3.244h2.434v3.244h-2.434zm-3.243 4.866V15.66h2.434v3.244H18.22zm2.433 1.622v3.243h-2.434v-3.243h2.434zm-2.433-6.488v-3.244h2.434v3.244H18.22zm0-4.865V5.927h2.434v3.246H18.22zm-3.245 9.731V15.66h2.434v3.244h-2.434zm2.433 1.622v3.243h-2.434v-3.243h2.434zm-2.433-6.488v-3.244h2.434v3.244h-2.434zm0-4.865V5.927h2.434v3.246h-2.434zm8.922-3.247v3.246h-2.434V5.927h2.434zm-12.166 0h2.433v3.246h-2.433V5.927zm0 4.868h2.433v3.244h-2.433v-3.244zm0 4.866h2.433v3.244h-2.433v-3.244zm0 4.866h2.433v3.243h-2.433v-3.243zm14.243 4.055h-.456V5.118c0-.895-.727-1.621-1.622-1.621h-.811c0-.896-.728-1.624-1.624-1.624h-7.299c-.896 0-1.622.728-1.622 1.624h-.811c-.896 0-1.623.727-1.623 1.621v19.464h-.451a.356.356 0 0 0-.355.355v.911c0 .198.159.356.355.356h16.32a.354.354 0 0 0 .354-.356v-.911a.354.354 0 0 0-.355-.355z"/></svg>