<svg xmlns="http://www.w3.org/2000/svg" width="35.462" height="31.583" viewBox="0 0 35.462 31.583"><path fill="#FF9600" d="M35.274 26.846c0 .686-.555 1.24-1.239 1.24H20.917l-3.167 3.496-3.04-3.496H1.545a1.24 1.24 0 0 1-1.239-1.24V1.24A1.24 1.24 0 0 1 1.545 0h32.49c.687 0 1.239.746 1.239 1.431v25.415z"/><path fill="#7C4803" d="M1.594 2.62c0-.686.555-1.24 1.24-1.24h29.96c.686 0 1.24.556 1.24 1.24l-.033 22.978a1.24 1.24 0 0 1-1.24 1.238H2.834a1.24 1.24 0 0 1-1.24-1.238V2.62z"/><path fill="#FFF" d="M21.462 18.905V15.66h2.435v3.244l-2.435.001zm2.435 1.622v3.243h-2.435v-3.243h2.435zm-2.435-6.488v-3.244h2.435v3.244h-2.435zm-3.242 4.866V15.66h2.434v3.244l-2.434.001zm2.433 1.622v3.243h-2.434v-3.243h2.434zm-2.433-6.488v-3.244h2.434v3.244H18.22zm0-4.865V5.927h2.434v3.246l-2.434.001zm-3.245 9.731V15.66h2.434v3.244l-2.434.001zm2.433 1.622v3.243h-2.434v-3.243h2.434zm-2.433-6.488v-3.244h2.434v3.244h-2.434zm0-4.865V5.927h2.434v3.246l-2.434.001zm8.922-3.247v3.246h-2.435V5.927h2.435zm-12.166 0h2.433v3.246h-2.433V5.927zm0 4.868h2.433v3.244h-2.433v-3.244zm0 4.866h2.433v3.244h-2.433v-3.244zm0 4.866h2.433v3.243h-2.433v-3.243zm14.243 4.056h-.456V5.118c0-.895-.728-1.621-1.622-1.621h-.811c0-.896-.729-1.624-1.625-1.624h-7.298c-.896 0-1.622.728-1.622 1.624h-.811c-.896 0-1.623.727-1.623 1.621v19.464h-.451a.356.356 0 0 0-.355.354v.911c0 .197.159.355.355.355h16.32a.355.355 0 0 0 .354-.355v-.911a.354.354 0 0 0-.355-.353z"/></svg>