<svg id="Layer_1" xmlns="http://www.w3.org/2000/svg" viewBox="0 0 128 128"><style>.st0{fill:#9d9d9d}</style><path class="st0" d="M60.6 61.8V16.1c0-1.1 1.5-2 3.4-2s3.4.9 3.4 2v45.7c0 1.1-1.5 2-3.4 2s-3.4-.8-3.4-2zm0 50.1V87.6c0-1.1 1.5-2 3.4-2s3.4.9 3.4 2v24.3c0 1.1-1.5 2-3.4 2s-3.4-.9-3.4-2zM30.1 48.5V16.2c0-1.1 1.5-2 3.4-2s3.4.9 3.4 2v32.3c0 1.1-1.5 2-3.4 2s-3.4-.9-3.4-2zm0 63.4V74.8c0-1.1 1.5-2 3.4-2s3.4.9 3.4 2v37.1c0 1.1-1.5 2-3.4 2s-3.4-.9-3.4-2zM91.2 35V16.2c0-1.1 1.5-2 3.4-2s3.4.9 3.4 2V35c0 1.1-1.5 2-3.4 2-1.8 0-3.4-.9-3.4-2zm0 76.9V60.8c0-1.1 1.5-2 3.4-2s3.4.9 3.4 2v51.1c0 1.1-1.5 2-3.4 2-1.8 0-3.4-.9-3.4-2z"/><path class="st0" d="M85 42.6c0-5.3 4.3-9.6 9.6-9.6s9.6 4.3 9.6 9.6-4.3 9.6-9.6 9.6-9.6-4.3-9.6-9.6zm15.2 0c0-3.1-2.5-5.6-5.6-5.6-3.1 0-5.6 2.5-5.6 5.6s2.5 5.6 5.6 5.6c3.1 0 5.6-2.5 5.6-5.6zM23.9 56.1c0-5.3 4.3-9.6 9.6-9.6s9.6 4.3 9.6 9.6-4.3 9.6-9.6 9.6-9.6-4.3-9.6-9.6zm15.2 0c0-3.1-2.5-5.6-5.6-5.6-3.1 0-5.6 2.5-5.6 5.6 0 3.1 2.5 5.6 5.6 5.6 3.1 0 5.6-2.5 5.6-5.6zm15.3 13.4c0-5.3 4.3-9.6 9.6-9.6s9.6 4.3 9.6 9.6-4.3 9.6-9.6 9.6-9.6-4.3-9.6-9.6zm15.2 0c0-3.1-2.5-5.6-5.6-5.6-3.1 0-5.6 2.5-5.6 5.6 0 3.1 2.5 5.6 5.6 5.6 3.1 0 5.6-2.5 5.6-5.6z"/></svg>