<svg id="svg3004" xmlns="http://www.w3.org/2000/svg" viewBox="0 0 512 512"><style>.st0{fill:#9d9d9d}</style><path id="path3006" class="st0" d="M239 16v27c-29.4 2-53.8 10.2-71.9 25.3-21.7 18-32.3 45.2-32.3 74.3 0 40.7 17.5 69.5 41 85.7 20.1 13.8 42.5 20.3 63.1 27v146.8c-25.9-2.5-42.8-9.6-53.3-19.7-12.4-12-19.1-30.6-18.2-62.5l-40.9-1.2c-1.1 38.6 8 71 30.6 93 20 19.4 47.9 28.8 81.8 31.5V496h30.6v-52.4c35.3-1.8 64.2-11.4 84.7-30.8 23.7-22.4 32.9-55.7 30.6-93.7v-.8c-3.7-35.9-25-61.5-49.7-75.8-21.1-12.3-44.6-18-65.6-21.4V83.9c20.9 1.6 36.3 7.1 46.1 15.2 11.8 9.7 18.6 23.5 18.2 49.3l40.9.7c.6-34.4-11-63.5-33.1-81.6-19.2-15.7-44-22.9-72.1-24.5V16H239zm0 68v128.2c-16-5.5-30.1-10.7-40-17.6-14.8-10.1-23.3-21.2-23.3-52 0-20 5.7-33.1 17.5-42.9 9.5-7.8 24.3-13.9 45.8-15.7zm30.7 178.5c16.4 3.2 32.6 8 45.2 15.3 16.6 9.6 26.9 21.3 29.4 44.4 1.7 30.1-4.9 48.7-17.9 61-11.1 10.5-29.2 17.8-56.7 19.5V262.5z"/></svg>