<svg viewBox="0 0 128 128" xmlns="http://www.w3.org/2000/svg"><path fill="none" d="M0 0h128v128H0z"/><path d="M102 128H26a8 8 0 0 1-8-8V8a8 8 0 0 1 8-8h54l30 30v90a8 8 0 0 1-8 8z" fill="#00A0DD"/><path d="M110 30H88a8 8 0 0 1-8-8V0s30.062 30 30 30z" fill="#5DC3F0"/><path d="M55.167 93.032h-3.639v11.96c0 .689-.153 1.2-.46 1.533s-.704.5-1.19.5c-.494 0-.896-.169-1.208-.506-.311-.337-.466-.846-.466-1.527v-11.96h-3.639c-.569 0-.992-.126-1.269-.377-.277-.25-.416-.582-.416-.993 0-.427.144-.764.433-1.011.288-.247.706-.371 1.252-.371h10.602c.577 0 1.005.128 1.286.382.28.255.421.588.421 1 0 .411-.142.743-.427.993-.284.251-.711.377-1.28.377zm3.078 10.512l3.684-5.38-3.1-4.784a9.41 9.41 0 0 1-.657-1.196 2.384 2.384 0 0 1-.219-.96c0-.314.141-.597.421-.848A1.486 1.486 0 0 1 59.401 90c.464 0 .826.137 1.083.409.259.273.616.781 1.073 1.522l2.471 3.998 2.64-3.998.555-.865a4.64 4.64 0 0 1 .445-.595c.141-.157.301-.275.477-.354.175-.078.378-.117.611-.117.42 0 .762.125 1.027.376s.4.549.4.893c0 .502-.289 1.184-.865 2.044l-3.246 4.852 3.492 5.38c.314.472.543.862.686 1.173.143.312.213.605.213.882 0 .263-.062.502-.189.719-.129.218-.309.39-.539.517a1.6 1.6 0 0 1-.787.191c-.314 0-.58-.065-.797-.197a1.683 1.683 0 0 1-.527-.488 55.168 55.168 0 0 1-.754-1.134l-2.897-4.56-3.077 4.694c-.24.374-.41.636-.511.786a3.082 3.082 0 0 1-.365.438 1.558 1.558 0 0 1-.505.337 1.738 1.738 0 0 1-.685.124c-.404 0-.739-.124-1.005-.371-.266-.247-.399-.606-.399-1.078-.001-.556.272-1.233.819-2.034zm25.19-10.512h-3.639v11.96c0 .689-.153 1.2-.461 1.533-.307.333-.703.5-1.189.5-.494 0-.897-.169-1.208-.506s-.466-.846-.466-1.527v-11.96h-3.639c-.569 0-.992-.126-1.27-.377-.276-.25-.415-.582-.415-.993 0-.427.145-.764.433-1.011s.705-.371 1.252-.371h10.602c.576 0 1.005.128 1.286.382.28.255.421.588.421 1 0 .411-.143.743-.427.993-.284.251-.711.377-1.28.377z" fill="#FFF"/></svg>