<svg viewBox="0 0 29 32" xmlns="http://www.w3.org/2000/svg"><path d="M26 32H0V0h17.414L26 8.586v4.412h-2V9.414L16.586 2H2v28h22v-3h2z"/><path d="M25 10h-9V1h2v7h7zm4 15.001h-3c-1.654 0-3-1.346-3-3v-4c0-1.654 1.346-3 3-3h3v3h-2v-1h-1c-.551 0-1 .448-1 1v4c0 .552.449 1 1 1h1v-1h2v3zm-19 0H7v-10h3c1.654 0 3 1.346 3 3v4c0 1.654-1.346 3-3 3zm-1-2h1c.551 0 1-.448 1-1v-4c0-.552-.449-1-1-1H9v6zm9 2c-2.206 0-4-1.794-4-4v-2c0-2.206 1.794-4 4-4s4 1.794 4 4v2c0 2.206-1.794 4-4 4zm0-8c-1.103 0-2 .897-2 2v2c0 1.103.897 2 2 2s2-.897 2-2v-2c0-1.103-.897-2-2-2z"/></svg>