<svg id="Layer_1" xmlns="http://www.w3.org/2000/svg" viewBox="0 0 75 63.8"><style>.st0{fill:#b0b0b0}.st1{fill:#fff}</style><path class="st0" d="M41.1 58.7v-2.6c3.9-1.4 6.7-5 6.7-9.4s-2.7-8.1-6.6-9.5l.2-32.6c0-1.7-1.3-3-3-3s-3 1.3-3 3L35.2 37c-4.2 1.1-7.4 5-7.4 9.6s3.1 8.5 7.3 9.7v2.4c0 1.7 1.3 3 3 3 1.6 0 2.9-1.3 3-3zm-26-.1l.1-32.6c3.9-1.4 6.7-5 6.7-9.4s-2.7-8.1-6.6-9.5V4.5c0-1.7-1.3-3-3-3s-3 1.3-3 3v2.4C5.1 8.1 2 11.9 2 16.5s3 8.5 7.2 9.7l-.1 32.3c0 1.7 1.3 3 3 3 1.6.1 2.9-1.3 3-2.9zM60.4 4.8v2.4c-4.2 1.1-7.4 5-7.4 9.6s3.1 8.5 7.3 9.7l-.2 32.4c0 1.7 1.3 3 3 3s3-1.3 3-3l.2-32.6c3.9-1.4 6.7-5 6.7-9.4s-2.7-8.1-6.6-9.5V4.8c0-1.7-1.3-3-3-3s-3 1.4-3 3z"/><circle class="st1" cx="12" cy="16.6" r="7.2"/><circle class="st1" cx="63" cy="16.9" r="7.5"/><circle class="st1" cx="37.8" cy="46.8" r="7.5"/></svg>