<svg id="Layer_1" xmlns="http://www.w3.org/2000/svg" viewBox="0 0 91 91"><style>.st0{fill:#fff}</style><path class="st0" d="M49.1 28.6v-6.4h-3.4v6.4c-9.8.8-17.6 8.6-18.4 18.4h-6.4v3.4h6.4c.8 9.8 8.6 17.6 18.4 18.4v6.4h3.4v-6.4c9.8-.8 17.6-8.6 18.4-18.4h6.4V47h-6.4c-.9-9.7-8.7-17.5-18.4-18.4zm0 36.8v-5.1h-3.4v5.1c-7.9-.8-14.2-7.1-15-15h5.1V47h-5.1c.8-7.9 7.1-14.2 15-15v5.1h3.4V32c7.9.8 14.2 7.1 15 15H59v3.4h5c-.8 7.9-7 14.2-14.9 15z"/><path class="st0" d="M47.4 45.5c-1.8 0-3.2 1.4-3.2 3.2s1.4 3.2 3.2 3.2 3.2-1.4 3.2-3.2-1.5-3.2-3.2-3.2zm-.2 3.2c0-.1.1-.2.2-.2s.2.1.2.2c0 .2-.4.2-.4 0z"/></svg>