<svg id="Layer_1" xmlns="http://www.w3.org/2000/svg" viewBox="0 0 22 22"><style>.st0{fill:#dbdbdb}</style><title/><g id="Page-1"><g id="Icons-Device" transform="translate(-43 -83)"><g id="gps-fixed" transform="translate(43 83)"><path id="Shape" class="st0" d="M11 7c-2.2 0-4 1.8-4 4s1.8 4 4 4 4-1.8 4-4-1.8-4-4-4zm8.9 3c-.5-4.2-3.8-7.5-7.9-7.9V0h-2v2.1c-4.2.4-7.5 3.7-7.9 7.9H0v2h2.1c.5 4.2 3.8 7.5 7.9 7.9V22h2v-2.1c4.2-.5 7.5-3.8 7.9-7.9H22v-2h-2.1zM11 18c-3.9 0-7-3.1-7-7s3.1-7 7-7 7 3.1 7 7-3.1 7-7 7z"/></g></g></g></svg>