<svg id="Calque_1" xmlns="http://www.w3.org/2000/svg" viewBox="0 0 512 512"><style>.st0{fill:#a9bec6}</style><path class="st0" d="M256 443c-103.1 0-187-83.9-187-187S152.9 69 256 69s187 83.9 187 187-83.9 187-187 187zm0-354c-92.1 0-167 74.9-167 167s74.9 167 167 167 167-74.9 167-167S348.1 89 256 89z"/><path class="st0" d="M348.9 181.4c0-.2.1-.3.1-.5s.1-.3.1-.5c0-.1 0-.3.1-.4 0-.2.1-.3.1-.5v-2c0-.2 0-.3-.1-.5 0-.1 0-.3-.1-.4 0-.2-.1-.3-.1-.5s-.1-.3-.1-.5c0-.1-.1-.3-.1-.4-.1-.2-.1-.3-.2-.5v-.1c0-.1-.1-.2-.1-.3-.1-.2-.2-.3-.2-.5-.1-.1-.2-.3-.2-.4-.1-.1-.2-.3-.3-.4-.1-.1-.2-.3-.3-.4-.1-.1-.2-.3-.3-.4-.1-.1-.2-.3-.3-.4l-.3-.3c-.1-.1-.2-.2-.4-.3-.1-.1-.2-.2-.4-.3-.1-.1-.3-.2-.4-.3-.1-.1-.3-.2-.4-.3-.1-.1-.3-.2-.4-.3-.1-.1-.3-.2-.4-.2-.2-.1-.3-.2-.5-.3-.1 0-.2-.1-.3-.1h-.1c-.2-.1-.4-.1-.5-.2-.1 0-.3-.1-.4-.1-.2-.1-.3-.1-.5-.1s-.3-.1-.5-.1-.3 0-.5-.1c-.2 0-.3-.1-.5-.1h-2c-.2 0-.3 0-.5.1-.2 0-.3 0-.5.1-.2 0-.3.1-.5.1s-.3.1-.5.1c-.1 0-.3.1-.4.1-.2.1-.4.1-.6.2h-.1l-187 80.3c-3.7 1.6-6.1 5.2-6.1 9.2 0 4 2.4 7.6 6 9.2l71 30.6 30.6 70.9c1.6 3.7 5.2 6 9.2 6 4 0 7.6-2.4 9.2-6.1l80.3-187v-.1c.1-.2.1-.3.2-.5s.2-.4.2-.5zm-89.8 158.8l-23-53.3c0-.1-.1-.2-.1-.3-.1-.2-.2-.3-.2-.5-.1-.1-.2-.3-.2-.4-.1-.1-.2-.3-.3-.4-.1-.1-.2-.3-.3-.4-.1-.1-.2-.3-.3-.4-.1-.1-.2-.3-.3-.4-.1-.1-.2-.2-.3-.4-.1-.1-.2-.2-.4-.3-.1-.1-.2-.2-.4-.3-.1-.1-.3-.2-.4-.3-.1-.1-.3-.2-.4-.3-.1-.1-.3-.2-.4-.3-.1-.1-.3-.2-.4-.2-.2-.1-.3-.2-.5-.2-.1 0-.2-.1-.3-.1l-53.3-23 142.7-61.2-61.2 142.7z"/></svg>