<svg baseProfile="full" height="49" width="61" xmlns="http://www.w3.org/2000/svg"><path d="M55.008 41.018c2.757 0 5 2.243 5 5v1a1 1 0 0 1-1 1H1.007a1 1 0 0 1-1.001-1v-1a5.007 5.007 0 0 1 4.802-4.996 5.974 5.974 0 0 1 1.198-1.46V20.02h-3a1 1 0 0 1-1-1v-4c0-.395.233-.753.594-.914L29.601 2.107c.259-.115.554-.115.813 0l14.594 6.486V6.02a1 1 0 0 1-1-1V1.021a1 1 0 0 1 1-1h8a1 1 0 0 1 1 1V5.02a1 1 0 0 1-1 1v6.128l4.407 1.958c.36.161.593.519.593.914v4a1 1 0 0 1-1 1h-3v21.111a4.92 4.92 0 0 1 1-.113zm-17-17.999v19.557c.118-.068.236-.137.363-.194a3.962 3.962 0 0 1 3.637-2.364c.466 0 .923.081 1.355.236a5.992 5.992 0 0 1 4.645-2.235c1.515 0 2.925.591 4 1.567V17.675L30.007 8.111l-22 9.564v20.699a5.973 5.973 0 0 1 2-.355c1.807 0 3.515.837 4.645 2.235a4.003 4.003 0 0 1 1.355-.236 4 4 0 0 1 3.472 2.036c.175-.023.351-.036.528-.036a3.95 3.95 0 0 1 2 .557V23.019a1 1 0 0 1 1-1h14.001a1 1 0 0 1 1 1zm-2.001 1h-12v21.999h12V24.019zM5.305 43.053l-.165-.02c-.044-.006-.088-.015-.134-.015-1.654 0-3 1.346-3 3h20.001c-.001-1.351-1.417-2.387-2.743-1.852a1 1 0 0 1-1.338-.667 1.998 1.998 0 0 0-1.919-1.481c-.402 0-.79.119-1.122.346a1.002 1.002 0 0 1-1.429-.328c-.727-1.263-2.017-2.018-3.449-2.018-1.605 0-3.05.955-3.68 2.433a.992.992 0 0 1-1.022.602zM52.008 2.021h-6v2h6v-2zm-5 3.999v3.462l4 1.777V6.02h-4zm9 12v-2.35l-4.389-1.951h-.001l-5.998-2.666-.002-.001-15.611-6.937L4.006 15.67v2.35h2v-1c0-.398.237-.758.602-.917l23-10c.255-.11.543-.11.798 0l23.001 10a1 1 0 0 1 .601.917v1h2zm-2.651 25.497a.998.998 0 0 1-1.515-.566c-.482-1.727-2.057-2.933-3.834-2.933-1.432 0-2.722.755-3.45 2.018a.998.998 0 0 1-1.428.328 1.984 1.984 0 0 0-3.025 1.083.997.997 0 0 1-.669.669 1.98 1.98 0 0 0-1.428 1.902h20c0-1.654-1.345-3-3-3-.587 0-1.158.173-1.651.499zm-4.231.527a.998.998 0 0 1-.551-.166c-.513-.34-.798-.277-1.117-.054a1 1 0 1 1-1.151-1.635c1.057-.746 2.222-.738 3.371.02a1 1 0 0 1-.552 1.835zm-37.409-1.745a.999.999 0 1 1-1.189 1.607c-.498-.367-.784-.319-1.113-.112A1 1 0 1 1 8.351 42.1c.763-.481 1.968-.837 3.366.199zm15.29-8.33c.552 0 1.05.497 1.05 1.05 0 .552-.498 1.05-1.05 1.05s-1.05-.498-1.05-1.05c0-.553.498-1.05 1.05-1.05zm13.001-1.95v-9a1 1 0 0 1 1-1h8a1 1 0 0 1 1 1v9a1 1 0 0 1 0 2h-10a1 1 0 1 1 0-2zm2 0h6v-4h-6v4zm0-6h6v-2h-6v2zm-22.001 8h-10a1 1 0 1 1 0-2v-9a1 1 0 0 1 1-1h8a1 1 0 0 1 1 1v9a1 1 0 0 1 0 2zm-2-10h-6v2h6v-2zm0 4h-6v4h6v-4z" fill="#505070"/></svg>