<?xml version="1.0" encoding="utf-8"?>
<!-- Generator: Adobe Illustrator 21.1.0, SVG Export Plug-In . SVG Version: 6.00 Build 0)  -->
<svg version="1.1" id="Layer_1" xmlns="http://www.w3.org/2000/svg" xmlns:xlink="http://www.w3.org/1999/xlink" x="0px" y="0px"
	 viewBox="0 0 40 26" style="enable-background:new 0 0 40 26;" xml:space="preserve">
<style type="text/css">
	.st0{fill:#B82C27;}
</style>
<title></title>
<path class="st0" d="M2,4c0-0.2,0-0.3,0.1-0.4l17.2,13.3c0,0,0.1,0,0.1,0.1c0,0,0.1,0,0.1,0.1c0.1,0.1,0.3,0.1,0.4,0.1l0,0l0,0
	c0.1,0,0.3,0,0.4-0.1c0,0,0.1,0,0.1-0.1c0,0,0.1,0,0.1-0.1L37.8,3.3c0,0,0,0,0,0C37.9,3.5,38,3.7,38,4v18c0,1.1-0.9,2-2,2H4
	c-1.1,0-2-0.9-2-2V4z M4,2h32c0.1,0,0.1,0,0.2,0L19.8,14.8L3.4,2.1C3.6,2,3.8,2,4,2z M0,4v18c0,2.2,1.8,4,4,4h32c2.2,0,4-1.8,4-4V4
	c0-2.2-1.8-4-4-4H4C1.8,0,0,1.8,0,4z"/>
</svg>
