<svg xmlns="http://www.w3.org/2000/svg" width="61" height="49.234" viewBox="0 0 61 49.234"><path fill="#f33536" d="M60.416 39.75a2 2 0 0 1-2 2H36.624l-6 7.25-6-7.25H2.749a2 2 0 0 1-2-2V2a2 2 0 0 1 2-2h55.667a2 2 0 0 1 2 2v37.75z"/><path fill="#0E4F67" d="M3.499 4.75a2 2 0 0 1 2-2h50.25a2 2 0 0 1 2 2v32.375a2 2 0 0 1-2 2H5.499a2 2 0 0 1-2-2V4.75z"/><path fill="#FFF" d="M51.777 18.283a.535.535 0 0 1-.504.341H34.19a1.57 1.57 0 0 1-1.057-.405l-9.513-9-11.53 9.199a.838.838 0 0 1-1.167-.062l-.92-1.012a.804.804 0 0 1 .064-1.147l3.665-2.958V7.694c0-.49.395-.887.88-.887h2.18c.485 0 .88.397.88.887v2.366l5.398-4.357a.835.835 0 0 1 1.104 0l4.275 3.73H42.13c.42 0 .824.144 1.144.409l8.346 7.863a.514.514 0 0 1 .157.578zm.033 14.087v1.395c0 .34-.276.616-.616.616H11.722a.616.616 0 0 1-.616-.616V32.37c0-.34.276-.615.616-.615h.697V20.122c.178-.08.354-.166.49-.286l10.64-8.486 8.308 7.84a2.88 2.88 0 0 0 1.941.748h16.699v11.817h.697c.34 0 .616.275.616.615zm-17.069-9.191v8.576h1.313v-7.673c0-.113.092-.205.205-.205h10.094c.113 0 .206.092.206.205v7.673h1.313v-8.576a.616.616 0 0 0-.616-.616h-11.9a.615.615 0 0 0-.615.616zm-5.253 1.805c0 .113.092.205.206.205h2.215a.206.206 0 0 0 .206-.205v-2.216a.206.206 0 0 0-.206-.205h-2.215a.206.206 0 0 0-.206.205v2.216zm-14.443 0c0 .113.092.205.205.205h2.216a.205.205 0 0 0 .205-.205v-2.216a.205.205 0 0 0-.205-.205H15.25a.205.205 0 0 0-.205.205v2.216zm5.252 6.771h1.313v-7.673c0-.113.092-.205.205-.205h3.529c.113 0 .205.092.205.205v7.673h1.313v-8.576a.615.615 0 0 0-.615-.616h-5.334a.615.615 0 0 0-.615.616v8.576z"/></svg>