<?xml version="1.0" encoding="utf-8"?>
<!-- Generator: Adobe Illustrator 21.1.0, SVG Export Plug-In . SVG Version: 6.00 Build 0)  -->
<svg version="1.1" id="Layer_1" xmlns="http://www.w3.org/2000/svg" xmlns:xlink="http://www.w3.org/1999/xlink" x="0px" y="0px"
	 viewBox="0 0 45 43" style="enable-background:new 0 0 45 43;" xml:space="preserve">
<style type="text/css">
	.st0{fill:#B82C27;}
</style>
<title></title>
<path class="st0" d="M42,23.3c-0.3,0.3-0.7,0.3-0.9,0L22.8,5c-0.4-0.4-1-0.4-1.4,0L3.1,23.3c-0.3,0.3-0.7,0.3-0.9,0
	c-0.3-0.3-0.3-0.7,0-0.9L22.1,2.4L42,22.3c0.1,0.1,0.2,0.3,0.2,0.5C42.2,23,42.1,23.1,42,23.3z M37.2,22.5v16c0,1.1-0.9,2-2,2h-7
	v-12c0-1.7-1.3-3-3-3h-6c-1.7,0-3,1.3-3,3v12h-7c-1.1,0-2-0.9-2-2v-16c0-0.1,0-0.3-0.1-0.4l15-15l15.2,15.1
	C37.2,22.3,37.2,22.4,37.2,22.5L37.2,22.5z M7.2,8c0-0.8,0.7-1.5,1.6-1.4c0.8,0,1.4,0.7,1.4,1.4v3.5l-3,3V8z M22.8,0.3L22.8,0.3
	c-0.4-0.4-1-0.4-1.4,0c0,0,0,0.1-0.1,0.1l-9.1,9.1V8c0-1.9-1.6-3.5-3.5-3.5C6.8,4.5,5.2,6.1,5.2,8v8.5l-4.4,4.4c-1,1-1,2.7,0,3.8
	c0.5,0.5,1.2,0.8,1.9,0.8c0.7,0,1.4-0.3,1.9-0.8L5.2,24v14.5c0,2.2,1.8,4,4,4h8c0.6,0,1-0.4,1-1v-13c0-0.6,0.4-1,1-1h6
	c0.5,0,1,0.4,1,1v13c0,0.6,0.4,1,1,1h8c2.2,0,4-1.8,4-4V24.2l0.5,0.5c0.5,0.5,1.2,0.8,1.9,0.8c0.7,0,1.4-0.3,1.9-0.8
	c1-1,1-2.7,0-3.8L22.8,0.3L22.8,0.3z"/>
</svg>
