<?xml version="1.0" encoding="utf-8"?>
<!-- Generator: Adobe Illustrator 21.1.0, SVG Export Plug-In . SVG Version: 6.00 Build 0)  -->
<svg version="1.1" id="Layer_1" xmlns="http://www.w3.org/2000/svg" xmlns:xlink="http://www.w3.org/1999/xlink" x="0px" y="0px"
	 viewBox="0 0 136.2 33.8" style="enable-background:new 0 0 136.2 33.8;" xml:space="preserve">
<style type="text/css">
	.st0{fill:#242E39;stroke:#F33536;stroke-miterlimit:10;}
	.st1{fill:#F33536;}
	.st2{fill:#FFFFFF;}
</style>
<path class="st0" d="M134.8,28c0,0.7-0.6,1.2-1.2,1.2H77.6l-3.2,3.5l-3-3.5H2.3c-0.7,0-1.2-0.6-1.2-1.2V2.4c0-0.7,0.6-1.2,1.2-1.2
	h131.3c0.7,0,1.2,0.7,1.2,1.4V28z"/>
<path class="st1" d="M2.3,3.8c0-0.7,0.6-1.2,1.2-1.2h30c0.7,0,1.2,0.6,1.2,1.2l0,23c0,0.7-0.6,1.2-1.2,1.2H3.6
	c-0.7,0-1.2-0.6-1.2-1.2C2.3,26.8,2.3,3.8,2.3,3.8z"/>
<path class="st2" d="M34.3,14c-0.1,0.2-0.2,0.3-0.4,0.3H21.1c-0.3,0-0.6-0.1-0.8-0.3l-7.2-6.8l-8.7,6.9c-0.3,0.2-0.6,0.2-0.9,0
	l-0.7-0.8c-0.2-0.2-0.2-0.6,0-0.9c0,0,0,0,0,0l2.8-2.2V6.1c0-0.4,0.3-0.7,0.7-0.7H8c0.4,0,0.7,0.3,0.7,0.7v1.8l4.1-3.3
	c0.2-0.2,0.6-0.2,0.8,0l3.2,2.8H27c0.3,0,0.6,0.1,0.9,0.3l6.3,5.9C34.3,13.7,34.4,13.9,34.3,14z M34.3,24.7v1.1
	c0,0.3-0.2,0.5-0.5,0.5c0,0,0,0,0,0H4.1c-0.3,0-0.5-0.2-0.5-0.5v0v-1.1c0-0.3,0.2-0.5,0.5-0.5h0.5v-8.8c0.1-0.1,0.3-0.1,0.4-0.2
	l8-6.4l6.3,5.9c0.4,0.4,0.9,0.6,1.5,0.6h12.6v8.9h0.5C34.1,24.2,34.3,24.4,34.3,24.7C34.3,24.6,34.3,24.6,34.3,24.7z M21.5,17.7v6.5
	h1v-5.8c0-0.1,0.1-0.2,0.2-0.2h7.6c0.1,0,0.2,0.1,0.2,0.2v5.8h1v-6.5c0-0.3-0.2-0.5-0.5-0.5c0,0,0,0,0,0h-9
	C21.7,17.3,21.5,17.5,21.5,17.7C21.5,17.7,21.5,17.7,21.5,17.7z M17.5,19.1c0,0.1,0.1,0.2,0.2,0.2h1.7c0.1,0,0.2-0.1,0.2-0.2v-1.7
	c0-0.1-0.1-0.2-0.2-0.2h-1.7c-0.1,0-0.2,0.1-0.2,0.2V19.1z M6.6,19.1c0,0.1,0.1,0.2,0.2,0.2h1.7c0.1,0,0.2-0.1,0.2-0.2v-1.7
	c0-0.1-0.1-0.2-0.2-0.2H6.8c-0.1,0-0.2,0.1-0.2,0.2C6.6,17.4,6.6,19.1,6.6,19.1z M10.6,24.2h1v-5.8c0-0.1,0.1-0.2,0.2-0.2h2.7
	c0.1,0,0.2,0.1,0.2,0.2v5.8h1v-6.5c0-0.3-0.2-0.5-0.5-0.5c0,0,0,0,0,0h-4c-0.3,0-0.5,0.2-0.5,0.5v0C10.6,17.7,10.6,24.2,10.6,24.2z"
	/>
</svg>
