<svg xmlns="http://www.w3.org/2000/svg" width="133.739" height="31.583" viewBox="0.305 0 133.739 31.583"><path fill="#FF9600" d="M134.045 26.846a1.24 1.24 0 0 1-1.239 1.241H76.883l-3.168 3.496-3.04-3.496H1.545a1.241 1.241 0 0 1-1.239-1.241V1.24A1.24 1.24 0 0 1 1.545 0h131.261c.686 0 1.239.746 1.239 1.431v25.415z"/><path fill="#7C4803" d="M1.594 2.62c0-.686.555-1.24 1.24-1.24h29.96c.686 0 1.24.556 1.24 1.24l-.033 22.978a1.24 1.24 0 0 1-1.24 1.239H2.834a1.24 1.24 0 0 1-1.24-1.239V2.62z"/><path fill="#FFF" d="M33.543 12.881a.405.405 0 0 1-.379.259H20.306c-.298 0-.583-.11-.797-.308l-7.16-6.773-8.68 6.924a.626.626 0 0 1-.875-.046l-.693-.76a.609.609 0 0 1 .047-.865l2.757-2.229V4.912c0-.371.3-.667.662-.667H7.21c.365 0 .662.297.662.667v1.779l4.063-3.279a.621.621 0 0 1 .83 0l3.218 2.807h10.295c.318 0 .622.109.86.309l6.284 5.916c.132.109.18.283.121.437zm.025 10.604v1.051a.462.462 0 0 1-.462.463H3.392a.462.462 0 0 1-.461-.463v-1.051c0-.258.208-.464.461-.464h.526v-8.756c.134-.06.267-.123.369-.213l8.01-6.386 6.253 5.9c.4.363.917.562 1.461.562h12.567v8.898h.526a.458.458 0 0 1 .464.459zM20.72 16.568v6.455h.988v-5.774c0-.085.069-.158.154-.158h7.596a.16.16 0 0 1 .157.158v5.774h.987v-6.455a.462.462 0 0 0-.462-.463h-8.96a.46.46 0 0 0-.46.463zm-3.953 1.36c0 .083.069.152.154.152h1.668a.157.157 0 0 0 .156-.152v-1.672a.156.156 0 0 0-.156-.153h-1.668a.155.155 0 0 0-.154.153v1.672zm-10.872 0c0 .083.07.152.155.152h1.668a.154.154 0 0 0 .154-.152v-1.672a.155.155 0 0 0-.154-.153H6.05a.156.156 0 0 0-.155.153v1.672zm3.953 5.093h.989v-5.773c0-.085.069-.157.154-.157h2.655c.086 0 .155.071.155.157v5.773h.989v-6.454a.462.462 0 0 0-.462-.464h-4.016a.463.463 0 0 0-.462.464l-.002 6.454z"/></svg>