<svg id="Layer_1" xmlns="http://www.w3.org/2000/svg" viewBox="0 0 42 38"><style>.st0{fill:#f33536}</style><path class="st0" d="M1.8 5.2v27c0 1.9 1.5 3.4 3.4 3.4h31.2c1.9 0 3.4-1.5 3.4-3.4v-27c0-1.9-1.5-3.4-3.4-3.4H5.2c-1.9 0-3.4 1.5-3.4 3.4zm3.4-.5h31.7v11.6H4.7V5.2c0-.3.2-.5.5-.5zm31.2 28.1H5.2c-.3 0-.5-.2-.5-.5v-13h32.1v13c0 .2-.2.5-.4.5zm.4-27.6v12.1l.1-12.6h-.6c.3 0 .5.2.5.5z"/><path class="st0" d="M6.2 22.9c0 .8.7 1.4 1.5 1.4h25.9c.8 0 1.5-.6 1.5-1.4s-.7-1.4-1.5-1.4h-26c-.8 0-1.4.6-1.4 1.4zm0 6c0 .8.7 1.4 1.5 1.4h25.9c.8 0 1.5-.6 1.5-1.4s-.7-1.4-1.5-1.4h-26c-.8 0-1.4.6-1.4 1.4z"/></svg>