<svg height="32" viewBox="0 0 32 32" width="32" xmlns="http://www.w3.org/2000/svg"><path d="M15.42 7.221c0-.951-.771-1.721-1.721-1.721h-6.97c-.951 0-1.721.771-1.721 1.721v6.103c0 .951.771 1.721 1.721 1.721H13.7c.951 0 1.721-.771 1.721-1.721V7.221zm12.322 0A1.72 1.72 0 0 0 26.021 5.5H19.05c-.951 0-1.721.771-1.721 1.721v6.103c0 .951.77 1.721 1.721 1.721h6.971c.951 0 1.721-.771 1.721-1.721V7.221zM15.42 18.676c0-.951-.771-1.721-1.721-1.721h-6.97a1.72 1.72 0 0 0-1.721 1.721v6.104c0 .95.771 1.721 1.721 1.721H13.7c.951 0 1.721-.771 1.721-1.721v-6.104zm12.322 0a1.72 1.72 0 0 0-1.721-1.721H19.05a1.72 1.72 0 0 0-1.721 1.721v6.104c0 .95.77 1.721 1.721 1.721h6.971c.951 0 1.721-.771 1.721-1.721v-6.104z" fill="#a9bec6"/></svg>