<svg id="Layer_1" xmlns="http://www.w3.org/2000/svg" viewBox="0 0 41.8 37.3"><style>.st0{fill:#f33536}</style><path class="st0" d="M36.2 1.7h-31c-1.9 0-3.4 1.5-3.4 3.4v27.2c0 1.9 1.5 3.4 3.4 3.4h31.1c1.9 0 3.4-1.5 3.4-3.4V5.1c-.1-1.8-1.6-3.4-3.5-3.4zm.5 3.4v27.7H24.1V4.7h12.1c.3 0 .5.2.5.4zm-32 27.2V5.1c0-.3.2-.5.5-.5h16v28.1h-16c-.3.1-.5-.1-.5-.4zm31.5.5H24.1l12.6.1v-.6c0 .3-.2.5-.5.5z"/><path class="st0" d="M26.6 10.1c0 .8.6 1.4 1.4 1.4h5.1c.8 0 1.4-.6 1.4-1.4s-.6-1.4-1.4-1.4H28c-.8 0-1.4.6-1.4 1.4zm0 6c0 .8.6 1.4 1.4 1.4h5.1c.8 0 1.4-.6 1.4-1.4s-.6-1.4-1.4-1.4H28c-.8 0-1.4.6-1.4 1.4zm0 6c0 .8.6 1.4 1.4 1.4h5.1c.8 0 1.4-.6 1.4-1.4s-.6-1.4-1.4-1.4H28c-.8 0-1.4.6-1.4 1.4zm0 6c0 .8.6 1.4 1.4 1.4h5.1c.8 0 1.4-.6 1.4-1.4s-.6-1.4-1.4-1.4H28c-.8 0-1.4.6-1.4 1.4z"/></svg>