<svg id="Layer_1" xmlns="http://www.w3.org/2000/svg" viewBox="0 0 797 595"><style>.st0{fill:none}.st1{fill:#a9bec6}</style><g id="图层_x0020_1"><path class="st0" d="M-25-29h652v652H-25z"/><g id="_151272480"><path id="_152771664" class="st1" d="M53.9 15.1h89.7c19.7 0 35.6 15.9 35.6 35.6v89.7c0 19.7-15.9 35.6-35.6 35.6H53.9c-19.7 0-35.6-15.9-35.6-35.6V50.7c0-19.6 16-35.6 35.6-35.6z"/><path id="_152771544" class="st1" d="M458.3 15.1H548c19.7 0 35.6 15.9 35.6 35.6v89.7c0 19.7-15.9 35.6-35.6 35.6h-89.7c-19.7 0-35.6-15.9-35.6-35.6V50.7c-.1-19.6 15.9-35.6 35.6-35.6z"/><path id="_152772408" class="st1" d="M256.1 15.1h89.7c19.7 0 35.6 15.9 35.6 35.6v89.7c0 19.7-15.9 35.6-35.6 35.6h-89.7c-19.7 0-35.6-15.9-35.6-35.6V50.7c0-19.6 15.9-35.6 35.6-35.6z"/><path id="_152770608" class="st1" d="M53.9 217.3h89.7c19.7 0 35.6 15.9 35.6 35.6v89.7c0 19.7-15.9 35.6-35.6 35.6H53.9c-19.7 0-35.6-15.9-35.6-35.6v-89.7c0-19.7 16-35.6 35.6-35.6z"/><path id="_152771616" class="st1" d="M458.3 217.3H548c19.7 0 35.6 15.9 35.6 35.6v89.7c0 19.7-15.9 35.6-35.6 35.6h-89.7c-19.7 0-35.6-15.9-35.6-35.6v-89.7c-.1-19.7 15.9-35.6 35.6-35.6z"/><path id="_152772264" class="st1" d="M256.1 217.3h89.7c19.7 0 35.6 15.9 35.6 35.6v89.7c0 19.7-15.9 35.6-35.6 35.6h-89.7c-19.7 0-35.6-15.9-35.6-35.6v-89.7c0-19.7 15.9-35.6 35.6-35.6z"/><path id="_45153608" class="st1" d="M53.9 419.4h89.7c19.7 0 35.6 15.9 35.6 35.6v89.7c0 19.7-15.9 35.6-35.6 35.6H53.9c-19.7 0-35.6-15.9-35.6-35.6V455c0-19.6 16-35.6 35.6-35.6z"/><path id="_152770872" class="st1" d="M458.3 419.4H548c19.7 0 35.6 15.9 35.6 35.6v89.7c0 19.7-15.9 35.6-35.6 35.6h-89.7c-19.7 0-35.6-15.9-35.6-35.6V455c-.1-19.6 15.9-35.6 35.6-35.6z"/><path class="st0" d="M822-29v652"/><path id="_152771544_1_" class="st1" d="M653.3 15.1H743c19.7 0 35.6 15.9 35.6 35.6v89.7c0 19.7-15.9 35.6-35.6 35.6h-89.7c-19.7 0-35.6-15.9-35.6-35.6V50.7c-.1-19.6 15.9-35.6 35.6-35.6z"/><path id="_152771616_1_" class="st1" d="M653.3 217.3H743c19.7 0 35.6 15.9 35.6 35.6v89.7c0 19.7-15.9 35.6-35.6 35.6h-89.7c-19.7 0-35.6-15.9-35.6-35.6v-89.7c-.1-19.7 15.9-35.6 35.6-35.6z"/><path id="_152770872_2_" class="st1" d="M652.3 580.3c-19.7 0-34.6-15.9-34.6-35.6V455c0-19.7 15.9-35.6 35.6-35.6H743c19.7 0 35.6 15.9 35.6 35.6v89.7c0 19.7-16.9 35.6-36.6 35.6"/><path id="_152770464" class="st1" d="M256.1 419.4h89.7c19.7 0 35.6 15.9 35.6 35.6v89.7c0 19.7-15.9 35.6-35.6 35.6h-89.7c-19.7 0-35.6-15.9-35.6-35.6V455c0-19.6 15.9-35.6 35.6-35.6z"/></g></g></svg>