<svg id="Layer_1" xmlns="http://www.w3.org/2000/svg" viewBox="0 0 32 32"><style>.st0{fill:#f33536;stroke:#f33536;stroke-width:2;stroke-linecap:round;stroke-linejoin:round;stroke-miterlimit:10}</style><path class="st0" d="M649 138h26v18h-14m-8 0h-4v-14m12 14l-8 6v-6"/><g fill="#f33536"><path d="M16 27c-.2 0-.5-.1-.6-.2-.2-.2-5.9-5.1-8.3-10.4-.2-.5 0-1.1.5-1.3.5-.2 1.1 0 1.3.5 1.7 3.9 5.6 7.7 7.1 9.1 2.7-2.6 8-8.6 8-12.4C24 7.7 20.4 4 16 4s-8 3.7-8 8.2c0 .6-.4 1-1 1s-1-.4-1-1C6 6.6 10.5 2 16 2s10 4.6 10 10.2c0 5.9-8.9 14.2-9.3 14.5-.2.2-.5.3-.7.3z"/><path d="M16 16c-2.2 0-4-1.8-4-4s1.8-4 4-4 4 1.8 4 4-1.8 4-4 4zm0-6c-1.1 0-2 .9-2 2s.9 2 2 2 2-.9 2-2-.9-2-2-2zm13 20H3c-.4 0-.7-.2-.9-.5s-.2-.7 0-1l4-7c.3-.5.9-.6 1.4-.4.5.3.6.9.4 1.4L4.7 28h22.6l-3.1-5.5c-.3-.5-.1-1.1.4-1.4.5-.3 1.1-.1 1.4.4l4 7c.2.3.2.7 0 1-.3.3-.6.5-1 .5z"/></g></svg>