<svg id="Layer_1" xmlns="http://www.w3.org/2000/svg" viewBox="24.5 108.5 566 579"><style>.st0{fill:none}.st1{fill:#f33536}</style><g id="图层_x0020_1"><path class="st0" d="M0 90h612v612H0z"/><g id="_151272480"><path id="_152771664" class="st1" d="M74.1 131.4h84.2c18.5 0 33.4 15 33.4 33.4V249c0 18.5-15 33.4-33.4 33.4H74.1c-18.5 0-33.4-15-33.4-33.4v-84.2c0-18.4 14.9-33.4 33.4-33.4z"/><path id="_152771544" class="st1" d="M453.6 131.4h84.2c18.5 0 33.4 15 33.4 33.4V249c0 18.5-15 33.4-33.4 33.4h-84.2c-18.5 0-33.4-15-33.4-33.4v-84.2c0-18.4 14.9-33.4 33.4-33.4z"/><path id="_152772408" class="st1" d="M263.8 131.4H348c18.5 0 33.4 15 33.4 33.4V249c0 18.5-15 33.4-33.4 33.4h-84.2c-18.5 0-33.4-15-33.4-33.4v-84.2c0-18.4 15-33.4 33.4-33.4z"/><path id="_152770608" class="st1" d="M74.1 321.2h84.2c18.5 0 33.4 15 33.4 33.4v84.2c0 18.5-15 33.4-33.4 33.4H74.1c-18.5 0-33.4-15-33.4-33.4v-84.2c0-18.5 14.9-33.4 33.4-33.4z"/><path id="_152771616" class="st1" d="M453.6 321.2h84.2c18.5 0 33.4 15 33.4 33.4v84.2c0 18.5-15 33.4-33.4 33.4h-84.2c-18.5 0-33.4-15-33.4-33.4v-84.2c0-18.5 14.9-33.4 33.4-33.4z"/><path id="_152772264" class="st1" d="M263.8 321.2H348c18.5 0 33.4 15 33.4 33.4v84.2c0 18.5-15 33.4-33.4 33.4h-84.2c-18.5 0-33.4-15-33.4-33.4v-84.2c0-18.5 15-33.4 33.4-33.4z"/><path id="_45153608" class="st1" d="M74.1 510.9h84.2c18.5 0 33.4 15 33.4 33.4v84.2c0 18.5-15 33.4-33.4 33.4H74.1c-18.5 0-33.4-15-33.4-33.4v-84.2c0-18.4 14.9-33.4 33.4-33.4z"/><path id="_152770872" class="st1" d="M453.6 510.9h84.2c18.5 0 33.4 15 33.4 33.4v84.2c0 18.5-15 33.4-33.4 33.4h-84.2c-18.5 0-33.4-15-33.4-33.4v-84.2c0-18.4 14.9-33.4 33.4-33.4z"/><path id="_152770464" class="st1" d="M263.8 510.9H348c18.5 0 33.4 15 33.4 33.4v84.2c0 18.5-15 33.4-33.4 33.4h-84.2c-18.5 0-33.4-15-33.4-33.4v-84.2c0-18.4 15-33.4 33.4-33.4z"/></g></g></svg>