<svg id="svg3004" xmlns="http://www.w3.org/2000/svg" viewBox="91.5 149.5 322 283"><style>.st0{fill:#f33536}</style><path class="st0" d="M107.1 179.3c0 8.2 6.6 14.8 14.8 14.8h259.3c8.2 0 14.8-6.6 14.8-14.8 0-8.2-6.6-14.8-14.8-14.8H121.9c-8.2 0-14.8 6.6-14.8 14.8zm0 70.4c0 8.2 6.6 14.8 14.8 14.8h259.3c8.2 0 14.8-6.6 14.8-14.8 0-8.2-6.6-14.8-14.8-14.8H121.9c-8.2 0-14.8 6.7-14.8 14.8zm0 70.4c0 8.2 6.6 14.8 14.8 14.8h259.3c8.2 0 14.8-6.6 14.8-14.8 0-8.2-6.6-14.8-14.8-14.8H121.9c-8.2.1-14.8 6.7-14.8 14.8zm0 71c0 8.2 6.6 14.8 14.8 14.8h259.3c8.2 0 14.8-6.6 14.8-14.8 0-8.2-6.6-14.8-14.8-14.8H121.9c-8.2.1-14.8 6.7-14.8 14.8z"/></svg>