<svg xmlns="http://www.w3.org/2000/svg" width="30" height="30" viewBox="0 0 30 30"><path fill="none" d="M20.987 7h-12c-1.654 0-3 1.346-3 3v10c0 1.654 1.346 3 3 3h12c1.654 0 3-1.346 3-3V10c0-1.654-1.345-3-3-3zm-12 3h12.018a1 1 0 1 1 0 2H8.987a1 1 0 0 1 0-2zm0 4h12a1 1 0 1 1 0 2h-12a1 1 0 0 1 0-2zm12.031 6l-12.032-.01a1 1 0 1 1 .001-2h.001l12.031.01a1 1 0 0 1-.001 2z"/><path fill="#f33536" d="M8.987 12h12.018a1 1 0 1 0 0-2H8.987a1 1 0 0 0 0 2zm0 4h12a1 1 0 1 0 0-2h-12a1 1 0 0 0 0 2zm12.032 2l-12.03-.01h-.001a1 1 0 0 0-.001 2l12.03.01h.001a1 1 0 0 0 .001-2z"/><path d="M225.795-208.38h-407.591c-24.48 0-44.676 20.196-44.676 44.676v356.796c0 24.48 20.196 44.676 44.676 44.676h408.205c24.479 0 44.676-20.195 44.676-44.676v-356.796c-.614-24.48-20.198-44.676-45.29-44.676zm-414.323 402.084v-357.408c0-3.672 3.06-6.12 6.12-6.12H-198.5l1 369.648h15.704c-3.672 0-6.732-3.06-6.732-6.12zm421.056 0c0 3.672-3.061 6.12-6.119 6.12H-196.5l-1.972-369.648h424.268c3.672 0 6.121 3.06 6.121 6.12v357.408h.611z"/><path d="M218.795-210.38h-407.591c-24.48 0-44.676 20.196-44.676 44.676v356.796c0 24.48 20.196 44.676 44.676 44.676h408.205c24.479 0 44.676-20.195 44.676-44.676v-356.796c-.614-24.48-20.198-44.676-45.29-44.676zm-414.323 402.084v-357.408c0-3.672 3.06-6.12 6.12-6.12H-205.5l1 369.648h15.704c-3.672 0-6.732-3.06-6.732-6.12zm421.056 0c0 3.672-3.061 6.12-6.119 6.12H-203.5l-1.972-369.648h424.268c3.672 0 6.121 3.06 6.121 6.12v357.408h.611z"/><path d="M219.795-205.38h-407.591c-24.48 0-44.676 20.196-44.676 44.676v356.796c0 24.48 20.196 44.676 44.676 44.676h408.205c24.479 0 44.676-20.195 44.676-44.676v-356.796c-.614-24.48-20.198-44.676-45.29-44.676zm-414.323 402.084v-357.408c0-3.672 3.06-6.12 6.12-6.12H-204.5l1 369.648h15.704c-3.672 0-6.732-3.06-6.732-6.12zm421.056 0c0 3.672-3.061 6.12-6.119 6.12H-202.5l-1.972-369.648h424.268c3.672 0 6.121 3.06 6.121 6.12v357.408h.611z"/><path d="M209.795-217.38h-407.591c-24.48 0-44.676 20.196-44.676 44.676v356.796c0 24.48 20.196 44.676 44.676 44.676h408.205c24.479 0 44.676-20.195 44.676-44.676v-356.796c-.614-24.48-20.198-44.676-45.29-44.676zm-414.323 402.084v-357.408c0-3.672 3.06-6.12 6.12-6.12H-214.5l1 369.648h15.704c-3.672 0-6.732-3.06-6.732-6.12zm421.056 0c0 3.672-3.061 6.12-6.119 6.12H-212.5l-1.972-369.648h424.268c3.672 0 6.121 3.06 6.121 6.12v357.408h.611z"/><path fill="#f33536" d="M24.139 4.959h-18.3c-1.1 0-2.006.907-2.006 2.006v16.019c0 1.1.906 2.006 2.006 2.006h18.327c1.1 0 2.006-.906 2.006-2.006V6.965c-.027-1.099-.906-2.006-2.033-2.006zM5.537 23.011V6.965c0-.166.137-.275.275-.275h-.723l.045 16.597h.705c-.165-.001-.302-.14-.302-.276zm18.904 0a.275.275 0 0 1-.274.275H5.179L5.09 6.689h19.049c.165 0 .274.137.274.275V23.01h.028z"/></svg>