<?xml version="1.0" encoding="utf-8"?>
<!-- Generator: Adobe Illustrator 21.1.0, SVG Export Plug-In . SVG Version: 6.00 Build 0)  -->
<svg version="1.1" id="Layer_1" xmlns="http://www.w3.org/2000/svg" xmlns:xlink="http://www.w3.org/1999/xlink" x="0px" y="0px"
	 viewBox="0 0 137.5 35" style="enable-background:new 0 0 137.5 35;" xml:space="preserve">
<style type="text/css">
	.st0{fill:#242E39;stroke:#F33536;stroke-miterlimit:10;}
	.st1{fill:#F33536;}
	.st2{fill:#FFFFFF;}
</style>
<path class="st0" d="M135.4,28.7c0,0.7-0.6,1.2-1.2,1.2H78.2L75,33.4l-3-3.5H2.9c-0.7,0-1.2-0.6-1.2-1.2V3.1c0-0.7,0.6-1.2,1.2-1.2
	h131.3c0.7,0,1.2,0.7,1.2,1.4V28.7z"/>
<path class="st1" d="M2.9,4.5c0-0.7,0.6-1.2,1.2-1.2h30c0.7,0,1.2,0.6,1.2,1.2l0,23c0,0.7-0.6,1.2-1.2,1.2H4.2
	c-0.7,0-1.2-0.6-1.2-1.2C2.9,27.4,2.9,4.5,2.9,4.5z"/>
<path class="st2" d="M29.1,3.8H8.5L5.5,28h27.3L29.1,3.8z M31.5,26.8h-8.1L21.8,20l0.3-0.2l4.4-4.4l3.3,1
	C29.9,16.3,31.5,26.8,31.5,26.8z M29.7,15.1l-3.5-1l-4.8,4.8l-2.9,1.4L16,15.4l0.3,0.3l4.8-5.9l-0.5-4.8h7.5
	C28.1,4.9,29.7,15.1,29.7,15.1z M9.5,4.9h9.9L20,9.4l-4.3,5.3l-1.9-3.8l-5.7,5.7C8.1,16.6,9.5,4.9,9.5,4.9z M8,17.7L8.3,18l5.2-5.2
	l4.5,9l2.7-1.3l1.4,6.3H6.8C6.8,26.9,8,17.7,8,17.7z"/>
</svg>
