<svg xmlns="http://www.w3.org/2000/svg" width="133.739" height="31.583" viewBox="0.305 0 133.739 31.583"><path fill="#FF9600" d="M134.045 26.846a1.24 1.24 0 0 1-1.239 1.241H76.883l-3.168 3.496-3.04-3.496H1.545a1.241 1.241 0 0 1-1.239-1.241V1.24A1.24 1.24 0 0 1 1.545 0h131.261c.686 0 1.239.746 1.239 1.431v25.415z"/><path fill="#7C4803" d="M1.594 2.62c0-.686.555-1.24 1.24-1.24h29.96c.686 0 1.24.556 1.24 1.24l-.033 22.978a1.24 1.24 0 0 1-1.24 1.239H2.834a1.24 1.24 0 0 1-1.24-1.239V2.62z"/><path fill="#FFF" d="M27.816 1.946H7.177l-2.995 24.21h27.265l-3.631-24.21zm2.305 23.059h-8.07l-1.555-6.86.287-.172 4.437-4.438 3.343.979 1.558 10.491zm-1.788-11.759l-3.518-.98-4.783 4.785-2.882 1.439-2.478-4.896.346.288 4.781-5.941-.516-4.838h7.495l1.555 10.143zM8.216 3.101h9.917l.52 4.438-4.268 5.302-1.902-3.805-5.707 5.708 1.44-11.643zM6.659 15.84l.346.346L12.193 11l4.496 9.049 2.71-1.328 1.441 6.344H5.505l1.154-9.225z"/></svg>