<svg xmlns="http://www.w3.org/2000/svg" width="24.833" height="21.833" viewBox="13.839 4.197 24.833 21.833"><path fill="#fff" d="M34.777 4.754H17.366l-2.527 20.423h23L34.777 4.754zm1.944 19.452h-6.808l-1.312-5.787.242-.146 3.744-3.743 2.818.826 1.316 8.85zm-1.509-9.92l-2.967-.827-4.035 4.036-2.432 1.215-2.09-4.131.291.243 4.034-5.011-.436-4.083H33.9l1.312 8.558zm-16.97-8.558h8.365l.438 3.745-3.601 4.473-1.604-3.209-4.814 4.815 1.216-9.824zm-1.314 10.746l.292.293 4.377-4.376 3.793 7.635 2.285-1.12 1.217 5.35H15.955l.973-7.782z"/></svg>