<svg xmlns="http://www.w3.org/2000/svg" width="35.482" height="31.583" viewBox="0 0 35.482 31.583"><path fill="#f33536" d="M35.274 26.846c0 .686-.555 1.24-1.239 1.24H20.917l-3.167 3.496-3.04-3.496H1.545a1.24 1.24 0 0 1-1.239-1.24V1.24A1.24 1.24 0 0 1 1.545 0h32.49c.687 0 1.239.746 1.239 1.431v25.415z"/><path fill="#992020" d="M1.594 2.62c0-.686.555-1.24 1.24-1.24h29.96c.686 0 1.24.556 1.24 1.24l-.033 22.978a1.24 1.24 0 0 1-1.24 1.238H2.834a1.24 1.24 0 0 1-1.24-1.238V2.62z"/><path fill="#FFF" d="M27.816 1.946H7.177L4.182 26.157h27.265L27.816 1.946zm2.305 23.058h-8.07l-1.555-6.859.287-.172 4.438-4.438 3.343.979 1.557 10.49zm-1.788-11.758l-3.519-.98-4.782 4.785-2.883 1.439-2.478-4.897.346.288 4.78-5.941-.516-4.838h7.495l1.557 10.144zM8.216 3.101h9.917l.521 4.438-4.268 5.302-1.902-3.805-5.707 5.708L8.216 3.101zM6.659 15.84l.346.346L12.193 11l4.496 9.049 2.71-1.328 1.44 6.344H5.505l1.154-9.225z"/></svg>