<svg id="Layer_1" xmlns="http://www.w3.org/2000/svg" viewBox="0 0 16 16"><style>.st0{fill:#f33536}</style><path d="M13 0v3h1v1h1V3h1V0h-3zm2 2h-1V1h1v1zm-2 12h-1v1h1v1h3v-3h-3v1zm1 0h1v1h-1v-1zM1 8h1v1H1zm0 2h1v1H1zm0-6h1v1H1zm0 2h1v1H1zm1 6H1v1H0v3h3v-3H2v-1zm0 3H1v-1h1v1zm12-6h1v1h-1zm0 2h1v1h-1zm0-6h1v1h-1zm0 2h1v1h-1zm-3-6h1v1h-1zM9 1h1v1H9zM7 1h1v1H7zM5 1h1v1H5zM4 2V1H3V0H0v3h3V2h1zM2 2H1V1h1v1zm8 12h1v1h-1zm-4 0h1v1H6zm2 0h1v1H8zm-4 0h1v1H4z" fill="#f33536"/><path class="st0" d="M5 3.5h6V3h1.6v1.6H12v5.8h.6V12H11v-.6H5v.6H3.5v-1.6h.6V4.6h-.6V3H5v.5zm6.5 1.1H11V4H5v.6h-.5v5.8H5v.6h6v-.6h.5V4.6z" id="Layer_x0020_1"/></svg>