<svg height="26" viewBox="0 0 40 26" width="40" xmlns="http://www.w3.org/2000/svg"><title/><path d="M2 4c0-.154.021-.302.054-.446l17.179 13.297c.04.03.086.045.129.068.034.019.064.039.099.054.125.052.253.087.384.087l.001-.001.001.001a1 1 0 0 0 .384-.088c.037-.016.069-.036.104-.056.042-.024.088-.038.127-.069L37.806 3.27c.016-.012.023-.031.038-.044.1.238.156.5.156.774v18c0 1.103-.897 2-2 2H4c-1.103 0-2-.897-2-2V4zm2-2h32c.056 0 .108.012.162.016l-16.32 12.776-16.408-12.7C3.615 2.038 3.802 2 4 2zM0 4v18c0 2.206 1.794 4 4 4h32c2.206 0 4-1.794 4-4V4c0-2.206-1.794-4-4-4H4C1.794 0 0 1.794 0 4z" fill="#f33536" fill-rule="evenodd"/></svg>