<svg id="Layer_1" xmlns="http://www.w3.org/2000/svg" viewBox="0 0 62 61"><style>.st0{fill:#fff}</style><path class="st0" d="M60 12h-1v47c0 .6-.4 1-1 1H4c-.6 0-1-.4-1-1V12H2c-.4 0-.8-.2-.9-.6-.2-.4-.1-.8.2-1.1l10-10c.2-.2.4-.3.7-.3h38c.3 0 .5.1.7.3l9.9 9.9c.3.2.4.5.4.8 0 .6-.4 1-1 1zM39 58h18v-2H39v2zm-14 0h12V40H25v18zM5 58h18v-2H5v2zm0-4h18V39c0-.6.4-1 1-1h14c.6 0 1 .4 1 1v15h18V36H5v18zm0-20h52V16H5v18zm0-20h52v-2H5v2zM49.6 2H12.4l-8 8h53.2l-8-8zM53 30H41c-.6 0-1-.4-1-1s.4-1 1-1v-9c0-.6.4-1 1-1h10c.6 0 1 .4 1 1v9c.6 0 1 .4 1 1s-.4 1-1 1zm-7-10h-3v2h3v-2zm0 4h-3v4h3v-4zm5-4h-3v2h3v-2zm0 4h-3v4h3v-4zm-14 6H25c-.6 0-1-.4-1-1s.4-1 1-1v-9c0-.6.4-1 1-1h10c.6 0 1 .4 1 1v9c.6 0 1 .4 1 1s-.4 1-1 1zm-7-10h-3v2h3v-2zm0 4h-3v4h3v-4zm5-4h-3v2h3v-2zm0 4h-3v4h3v-4zm-14 6H9c-.6 0-1-.4-1-1s.4-1 1-1v-9c0-.6.4-1 1-1h10c.6 0 1 .4 1 1v9c.6 0 1 .4 1 1s-.4 1-1 1zm-7-10h-3v2h3v-2zm0 4h-3v4h3v-4zm5-4h-3v2h3v-2zm0 4h-3v4h3v-4zm34 26H41c-.6 0-1-.4-1-1s.4-1 1-1v-9c0-.6.4-1 1-1h10c.6 0 1 .4 1 1v9c.6 0 1 .4 1 1s-.4 1-1 1zm-7-10h-3v2h3v-2zm0 4h-3v4h3v-4zm5-4h-3v2h3v-2zm0 4h-3v4h3v-4zm-30 6H9c-.6 0-1-.4-1-1s.4-1 1-1v-9c0-.6.4-1 1-1h10c.6 0 1 .4 1 1v9c.6 0 1 .4 1 1s-.4 1-1 1zm-7-10h-3v2h3v-2zm0 4h-3v4h3v-4zm5-4h-3v2h3v-2zm0 4h-3v4h3v-4zm9 6.1c-.6 0-1-.5-1-1 0-.6.5-1 1-1s1.1.5 1.1 1-.5 1-1.1 1z"/></svg>