<svg height="100" width="100" xmlns="http://www.w3.org/2000/svg"><path d="M20 70.15c22 0 26.35-35 50-35v-5c-26.6 0-31.25 35-50 35zm17.55-26.3c1.1-1.3 2.2-2.6 3.4-3.9-5.35-5.55-11.85-9.8-20.95-9.8v5c7.4 0 12.85 3.7 17.55 8.7zM70 70.15v-5c-7.45 0-12.6-5.95-17.85-12.9-1.15 1.3-2.25 2.65-3.4 4 5.8 7.4 11.9 13.9 21.25 13.9zm2.85-37.55l-10.6 10.6 3.55 3.55L80 32.65l-14.1-14.1-3.55 3.55zm0 34.85l-10.6 10.6 3.55 3.55L80 67.5 65.9 53.4l-3.55 3.55zm2.75-32.3l-.1-5H70v5zm0 35l-.1-5H70v5zm0 0" fill="rgba(0,0,0,1.0)"/></svg>