<svg id="Layer_1" xmlns="http://www.w3.org/2000/svg" viewBox="0 0 61 61"><style>.st0{fill:#fff}</style><path class="st0" d="M59 39.8V59c0 .6-.4 1-1 1H4c-.6 0-1-.4-1-1V39.8c-1.2-.4-2-1.5-2-2.8v-8c0-.6.4-1 1-1s1 .4 1 1v1h2v-1c0-.6.4-1 1-1s1 .4 1 1v1h2v-1c0-.6.4-1 1-1s1 .4 1 1v1h2v-1c0-.6.4-1 1-1s1 .4 1 1v1h2v-1c0-.6.4-1 1-1s1 .4 1 1v8c0 1.3-.8 2.4-2 2.8V42h4V22h-1c-.4 0-.8-.3-1-.7-.1-.4 0-.9.4-1.1L30 12.5V1c0-.6.4-1 1-1s1 .4 1 1v1.3l7.4 2.8c.3.1.6.5.6.9s-.3.8-.6.9L32 9.7v2.8l10.5 7.6c.3.2.5.5.5.9 0 .6-.4 1-1 1h-1v20h4v-2.2c-1.2-.4-2-1.5-2-2.8v-8c0-.6.4-1 1-1s1 .4 1 1v1h2v-1c0-.6.4-1 1-1s1 .4 1 1v1h2v-1c0-.6.4-1 1-1s1 .4 1 1v1h2v-1c0-.6.4-1 1-1s1 .4 1 1v1h2v-1c0-.6.4-1 1-1s1 .4 1 1v8c0 1.3-.8 2.4-2 2.8zM37 58h20v-2H37v2zm-2 0v-6c0-2.2-1.8-4-4-4s-4 1.8-4 4v6h8zM5 58h20v-2H5v2zm12-26H3v5c0 .6.4 1 1 1h12c.6 0 1-.4 1-1v-5zM36.1 6L32 4.5v3.1L36.1 6zM31 14.3L23.1 20h15.8L31 14.3zm8 7.7H23v2h16v-2zm0 4H23v16h16V26zm1 18H16c-.6 0-1-.4-1-1v-3H5v14h20v-2c0-3.3 2.7-6 6-6s6 2.7 6 6v2h20V40H47v3c0 .6-.4 1-1 1h-6zm19-12H45v5c0 .6.4 1 1 1h12c.6 0 1-.4 1-1v-5zM12 50H8c-.6 0-1-.4-1-1v-4c0-1.7 1.3-3 3-3s3 1.3 3 3v4c0 .6-.5 1-1 1zm-1-5c0-.6-.4-1-1-1s-1 .4-1 1v3h2v-3zm41-3c1.7 0 3 1.3 3 3v4c0 .6-.4 1-1 1h-4c-.6 0-1-.4-1-1v-4c0-1.6 1.3-3 3-3zm-1 6h2v-3c0-.6-.4-1-1-1s-1 .4-1 1v3zM31 28c1.7 0 3 1.3 3 3v4c0 .6-.4 1-1 1h-4c-.6 0-1-.4-1-1v-4c0-1.6 1.3-3 3-3zm-1 6h2v-3c0-.6-.4-1-1-1s-1 .4-1 1v3z"/></svg>