<svg id="Layer_1" xmlns="http://www.w3.org/2000/svg" viewBox="0 0 56.7 56.7"><style>.st0{fill:#f33536}</style><path class="st0" d="M53.2 17c-.3-.4-.7-.6-1.1-.7l-4.5-.7-.8-4.5c-.2-.9-1.1-1.5-2-1.4l-16.6 3.1-12.9-1.9c-.9-.1-1.8.5-1.9 1.4l-.5 3.2-7.2 1.3c-.4.1-.8.3-1.1.7-.3.4-.4.8-.3 1.3l5.1 28c.1.4.3.8.7 1.1.3.2.6.3 1 .3h.3L34.3 44l13.5 2h.2c.8 0 1.6-.6 1.7-1.5l.5-3.5.3-.1c.9-.2 1.5-1.1 1.4-2l-.8-4.1L53.5 18c.1-.1 0-.6-.3-1zm-4 7.6l-1.5 10.6-.5 3.2-.5 3.6-.1.6-1.9-.3-10.6-1.5-21.1-3 2.7-19 .5-3.6.1-.4 1.2.2 10.6 1.5 16.5 2.4 3.6.5 1.7.2-.7 5zm-5.5-11.1l.3 1.7-5.3-.8 5-.9zM7.9 20.1l4.4-.8-2 13.8-2.4-13zm4.5 24.6l-.7-3.8 11.9 1.7-11.2 2.1z"/><circle class="st0" cx="23.9" cy="23.4" r="3.3"/><path class="st0" d="M42.6 28.9l-3.1 3.2-3.9-7.7-7.4 8.5s-9.8-3.9-12.5 2.9L41 39.4l3.7.5-.2-1.2-1.9-9.8z"/></svg>