<svg height="60.115" viewBox="0 0 61.994 60.115" width="61.994" xmlns="http://www.w3.org/2000/svg"><g fill="none" stroke="#f33536" stroke-width="1.633" stroke-linecap="round" stroke-linejoin="round" stroke-miterlimit="10"><path d="M6.735 12.301a5.565 5.565 0 0 1 5.563-5.566 5.566 5.566 0 0 1 5.561 5.566 5.562 5.562 0 0 1-11.124 0z"/><path d="M23.777 12.297c0-6.342-5.141-11.48-11.479-11.48C5.957.817.817 5.956.817 12.297c0 1.951.49 3.785 1.348 5.393h-.004l.037.07.007.014c2.45 4.488 10.093 12.686 10.093 12.686s6.862-7.107 10.136-12.77h-.004a11.43 11.43 0 0 0 1.347-5.393z"/><path d="M12.298 30.459s-.958-1.025-2.293-2.541a3.073 3.073 0 0 0-.811 2.072 3.103 3.103 0 1 0 6.207 0c0-.787-.304-1.496-.789-2.045a91.195 91.195 0 0 1-2.314 2.514zm37.399 26.207s-.957-1.029-2.293-2.543a3.083 3.083 0 0 0-.811 2.074 3.103 3.103 0 1 0 6.208 0c0-.787-.304-1.5-.789-2.047-1.362 1.528-2.315 2.516-2.315 2.516zm-5.56-18.117a5.564 5.564 0 0 1 5.561-5.563 5.565 5.565 0 0 1 5.563 5.563 5.562 5.562 0 1 1-11.124 0z"/><path d="M61.178 38.547c0-6.34-5.141-11.48-11.48-11.48-6.341 0-11.479 5.141-11.479 11.48 0 1.951.489 3.785 1.347 5.393h-.002l.036.07c.002.006.005.01.007.018 2.449 4.484 10.092 12.684 10.092 12.684s6.863-7.107 10.137-12.771h-.006a11.426 11.426 0 0 0 1.348-5.394zM9.443 40.885a3.572 3.572 0 0 1 7.143 0 3.57 3.57 0 0 1-3.571 3.57 3.57 3.57 0 0 1-3.572-3.57z"/><circle cx="31.627" cy="31.646" r="3.062"/><circle cx="29.955" cy="49.736" r="3.062"/><path d="M12.298 33.096v4.218m4.223 2.913l12.044-6.803m3.062 1.283l-.753 11.967m15.72 9.523l-14.281-4.529"/></g></svg>