<svg id="Layer_1" viewBox="0 0 36 36" xmlns="http://www.w3.org/2000/svg"><style>.st0{fill:#f33536}</style><path class="st0" d="M25 19H11c-.6 0-1 .4-1 1s.4 1 1 1h14c.6 0 1-.4 1-1s-.4-1-1-1zm0-7H11c-.6 0-1 .4-1 1s.4 1 1 1h14c.6 0 1-.4 1-1s-.4-1-1-1zm0 14H11c-.6 0-1 .4-1 1s.4 1 1 1h14c.6 0 1-.4 1-1s-.4-1-1-1z"/><path class="st0" d="M28 2h-1.2C26.4.8 25.3 0 24 0H12c-1.3 0-2.4.8-2.8 2H8C5.2 2 3 4.2 3 7v24c0 2.8 2.2 5 5 5h20c2.8 0 5-2.2 5-5V7c0-2.8-2.2-5-5-5zM12 2h12c.6 0 1 .4 1 1s-.4 1-1 1H12c-.6 0-1-.4-1-1s.4-1 1-1zm19 29c0 1.7-1.3 3-3 3H8c-1.7 0-3-1.3-3-3V7c0-1.7 1.3-3 3-3h1.2c.4 1.2 1.5 2 2.8 2h12c1.3 0 2.4-.8 2.8-2H28c1.7 0 3 1.3 3 3v24z"/></svg>