<svg height="2048" viewBox="0 0 2048 2048" width="2048" xmlns="http://www.w3.org/2000/svg" shape-rendering="geometricPrecision" text-rendering="geometricPrecision" image-rendering="optimizeQuality" fill-rule="evenodd" clip-rule="evenodd"><defs><style>.fil1{fill:none}.fil0{fill:#f33536;fill-rule:nonzero}</style></defs><g id="Layer_x0020_1"><g id="_206528384"><path class="fil0" d="M713.476 255.999h857.026c23.164 0 44.206 9.46 59.444 24.698 15.238 15.237 24.698 36.28 24.698 59.444v1138.94c0 23.162-9.46 44.205-24.698 59.442-15.238 15.238-36.28 24.697-59.444 24.697h-563.324c-13.254 0-24-10.745-24-24 0-8.17 4.084-15.386 10.322-19.72a231.012 231.012 0 0 0 7.058-6.132c2.406-2.18 5.14-4.799 8.211-7.867l-.046-.047c45.397-45.397 68.098-104.904 68.098-164.411 0-59.507-22.7-119.012-68.098-164.411-45.4-45.398-104.904-68.1-164.411-68.1-59.505 0-119.013 22.703-164.41 68.1-2.43 2.43-3.885 3.9-4.413 4.458l-.269.28a273.43 273.43 0 0 0-4.075 4.464c-8.853 9.837-24.006 10.634-33.843 1.78-5.256-4.73-7.929-11.256-7.931-17.811h-.038V340.139c0-23.164 9.46-44.207 24.698-59.444 15.238-15.239 36.28-24.698 59.444-24.698zm857.026 48H713.476c-9.913 0-18.944 4.074-25.506 10.636-6.562 6.562-10.636 15.593-10.636 25.506v775.47c49.437-36.714 108.21-55.076 166.978-55.076 71.787 0 143.575 27.388 198.35 82.16 54.772 54.775 82.16 126.563 82.16 198.35 0 61.65-20.201 123.302-60.599 174.177h506.28c9.912 0 18.944-4.074 25.505-10.635 6.563-6.562 10.636-15.593 10.636-25.505V340.142c0-9.913-4.073-18.943-10.636-25.506-6.562-6.562-15.593-10.635-25.506-10.635z" id="_206528936"/><path class="fil0" d="M997.384 1159.19c-13.254 0-24-10.746-24-24s10.746-24 24-24h427.295c13.254 0 24 10.746 24 24s-10.746 24-24 24H997.384z" id="_206528528"/><path class="fil0" d="M1086.83 1281.36c-13.254 0-24-10.746-24-24s10.746-24 24-24h337.844c13.254 0 24 10.746 24 24s-10.746 24-24 24H1086.83z" id="_206529080"/><path class="fil0" d="M1097.92 1403.52c-13.254 0-24-10.746-24-24s10.746-24 24-24h326.757c13.254 0 24 10.746 24 24s-10.746 24-24 24H1097.92z" id="_206528000"/><path class="fil0" d="M946.615 672.814l196.188-188.626c9.334-8.979 24.07-8.876 33.281.093l.01.01.144.14 194.033 188.476.154.154 5.78 5.174c5.274 4.719 7.96 11.251 7.963 17.812h.1v279.26c0 13.254-10.746 24-24 24h-401.71c-13.254 0-24-10.746-24-24v-280.77c0-7.426 3.374-14.067 8.672-18.468l3.385-3.256zm212.698-138.091L982.559 704.664v246.643h353.71V706.612l-176.955-171.888z" id="_206527952"/><path class="fil0" d="M1106.63 781.507h105.558c13.254 0 24 10.746 24 24v170.068c0 13.254-10.746 24-24 24H1106.63c-13.254 0-24-10.746-24-24V805.507c0-13.254 10.746-24 24-24zm81.558 48h-57.558v122.068h57.557V829.507z" id="_206527976"/><path class="fil0" d="M895.268 685.47c-9.578 9.112-24.731 8.734-33.843-.843-9.113-9.578-8.735-24.731.843-33.844l280.645-266.505c9.288-8.837 23.82-8.747 33 0l280.645 266.505c9.578 9.113 9.956 24.266.843 33.844-9.112 9.577-24.265 9.955-33.843.843l-264.145-250.837L895.268 685.47z" id="_206527784"/><path class="fil0" d="M1042.66 1142.7c54.774 54.774 82.161 126.562 82.161 198.349 0 71.784-27.387 143.575-82.161 198.347l-.001.001c-54.773 54.773-126.562 82.16-198.346 82.16-71.786 0-143.574-27.387-198.347-82.16l-.001-.001c-54.773-54.773-82.16-126.563-82.16-198.347 0-71.786 27.387-143.575 82.16-198.349v-.001c54.773-54.773 126.564-82.16 198.348-82.16 71.784 0 143.574 27.387 198.346 82.16l.001.001zm34.161 198.349c0-59.506-22.7-119.013-68.099-164.411l-.001-.001c-45.397-45.397-104.903-68.098-164.408-68.098-59.505 0-119.013 22.7-164.41 68.098l-.001.001c-45.398 45.4-68.098 104.904-68.098 164.411 0 59.505 22.7 119.013 68.098 164.41v.001c45.4 45.398 104.904 68.098 164.41 68.098s119.013-22.7 164.409-68.098l.001-.001c45.4-45.398 68.099-104.904 68.099-164.41z" id="_206528504"/><path class="fil0" d="M726.012 1576.02l-200.326 200.326-.001.001c-10.436 10.436-24.17 15.658-37.882 15.658-13.713 0-27.444-5.222-37.882-15.658l-.002-.001-40.905-40.905c-10.44-10.437-15.658-24.17-15.658-37.883 0-13.712 5.22-27.445 15.658-37.884l200.326-200.326c9.371-9.37 24.567-9.37 33.938 0a23.99 23.99 0 0 1 4.103 5.477 231.762 231.762 0 0 0 14.633 20.65c5.34 6.724 11.303 13.399 17.888 19.984 6.586 6.585 13.259 12.548 19.984 17.889a232.073 232.073 0 0 0 21.814 15.36c11.235 6.99 14.676 21.765 7.687 33a23.982 23.982 0 0 1-3.399 4.288l.024.024zm-234.264 166.388l180.135-180.135-1.81-1.426c-8.53-6.774-16.588-13.93-24.11-21.45-7.52-7.522-14.676-15.58-21.45-24.11l-1.425-1.811-180.136 180.136c-1.063 1.063-1.596 2.497-1.596 3.946 0 1.449.533 2.882 1.596 3.945l40.905 40.905h.001c1.063 1.064 2.497 1.597 3.945 1.597s2.881-.533 3.944-1.596l.001-.001z" id="_206527928"/></g></g><path class="fil1" d="M0 0h2048v2048H0z"/></svg>