<svg height="32" id="svg2" overflow="visible" viewBox="0 0 25.600005 25.600001" width="32" xmlns="http://www.w3.org/2000/svg" fill-rule="evenodd" stroke-width=".501" stroke-linejoin="bevel"><script id="script3301"/><script id="script3299"/><defs id="defs4"><marker id="DefaultArrow2" markerHeight="1" markerWidth="1" orient="auto" overflow="visible" viewBox="0 0 1 1"><g id="g7" transform="scale(.00926)"><path d="M-9 54V-54L117 0z" id="path9"/></g></marker><marker id="DefaultArrow3" markerHeight="1" markerWidth="1" orient="auto" overflow="visible" viewBox="0 0 1 1"><g id="g12" transform="scale(.00926)"><path d="M-27 54L-9 0l-18-54L135 0z" id="path14"/></g></marker><marker id="DefaultArrow4" markerHeight="1" markerWidth="1" orient="auto" overflow="visible" viewBox="0 0 1 1"><g id="g17" transform="scale(.00926)"><path d="M-9 0v-45c0-6.708 11.808-11.58 18-9L117-9c3.916 1.631 9 4.758 9 9s-5.084 7.369-9 9L9 54c-6.192 2.58-18-2.292-18-9z" id="path19"/></g></marker><marker id="DefaultArrow5" markerHeight="1" markerWidth="1" orient="auto" overflow="visible" viewBox="0 0 1 1"><g id="g22" transform="scale(.00926)"><path d="M-54 0c0 29.807 24.193 54 54 54S54 29.807 54 0 29.807-54 0-54-54-29.807-54 0z" id="path24"/></g></marker><marker id="DefaultArrow6" markerHeight="1" markerWidth="1" orient="auto" overflow="visible" viewBox="0 0 1 1"><g id="g27" transform="scale(.00926)"><path d="M-63 0L0 63 63 0 0-63z" id="path29"/></g></marker><marker id="DefaultArrow7" markerHeight="1" markerWidth="1" orient="auto" overflow="visible" viewBox="0 0 1 1"><g id="g32" transform="scale(.00926)"><path d="M18-54h90L63 0l45 54H18L-36 0z" id="path34"/></g></marker><marker id="DefaultArrow8" markerHeight="1" markerWidth="1" orient="auto" overflow="visible" viewBox="0 0 1 1"><g id="g37" transform="scale(.00926)"><path d="M-36 0l54-54h36L18-18h9l36-36h36L63-18h9l36-36h36L90 0l54 54h-36L72 18h-9l36 36H63L27 18h-9l36 36H18z" id="path39"/></g></marker><marker id="DefaultArrow9" markerHeight="1" markerWidth="1" orient="auto" overflow="visible" viewBox="0 0 1 1"><g id="g42" transform="scale(.00926)"><path d="M0 45L-45 0 0-45 45 0zm0 18L-63 0 0-63 63 0z" id="path44"/></g></marker><filter color-interpolation-filters="sRGB" id="StainedFilter"><feBlend id="feBlend47" in="SourceGraphic" in2="BackgroundImage" mode="multiply" result="blend"/><feComposite id="feComposite49" in="blend" in2="SourceAlpha" operator="in" result="comp"/></filter><filter color-interpolation-filters="sRGB" id="BleachFilter"><feBlend id="feBlend52" in="SourceGraphic" in2="BackgroundImage" mode="screen" result="blend"/><feComposite id="feComposite54" in="blend" in2="SourceAlpha" operator="in" result="comp"/></filter><filter color-interpolation-filters="sRGB" id="InvertTransparencyBitmapFilter"><feComponentTransfer id="feComponentTransfer57"><feFuncR amplitude="1.055" exponent=".417" id="feFuncR59" offset="-.055" type="gamma"/><feFuncG amplitude="1.055" exponent=".417" id="feFuncG61" offset="-.055" type="gamma"/><feFuncB amplitude="1.055" exponent=".417" id="feFuncB63" offset="-.055" type="gamma"/></feComponentTransfer><feComponentTransfer id="feComponentTransfer65"><feFuncR id="feFuncR67" intercept="1" slope="-1" type="linear"/><feFuncG id="feFuncG69" intercept="1" slope="-1" type="linear"/><feFuncB id="feFuncB71" intercept="1" slope="-1" type="linear"/><feFuncA id="feFuncA73" type="linear"/></feComponentTransfer><feComponentTransfer id="feComponentTransfer75"><feFuncR exponent="2.4" id="feFuncR77" type="gamma"/><feFuncG exponent="2.4" id="feFuncG79" type="gamma"/><feFuncB exponent="2.4" id="feFuncB81" type="gamma"/></feComponentTransfer></filter><radialGradient cx="0" cy="0" gradientTransform="matrix(0 -1 .88605 0 172.174 122.358)" gradientUnits="userSpaceOnUse" id="RadialGradient" r="237.428"><stop id="stop84" offset="0" stop-color="#473600"/><stop id="stop86" offset=".792" stop-color="#3d2f00"/><stop id="stop88" offset=".99" stop-color="#3a2c00"/><stop id="stop90" offset="1" stop-color="#3a2c00"/></radialGradient><radialGradient cx="0" cy="0" gradientTransform="matrix(0 -1 .88605 0 170.916 119.88)" gradientUnits="userSpaceOnUse" id="RadialGradient_1" r="237.428"><stop id="stop93" offset="0" stop-color="#553e00"/><stop id="stop95" offset=".792" stop-color="#403200"/><stop id="stop97" offset=".99" stop-color="#3b2b00"/><stop id="stop99" offset="1" stop-color="#3b2b00"/></radialGradient><radialGradient cx="0" cy="0" gradientTransform="matrix(0 -1 .88605 0 169.66 117.403)" gradientUnits="userSpaceOnUse" id="RadialGradient_2" r="237.428"><stop id="stop102" offset="0" stop-color="#634700"/><stop id="stop104" offset=".792" stop-color="#443400"/><stop id="stop106" offset=".99" stop-color="#3c2a00"/><stop id="stop108" offset="1" stop-color="#3c2a00"/></radialGradient><radialGradient cx="0" cy="0" gradientTransform="matrix(0 -1 .88605 0 168.403 114.925)" gradientUnits="userSpaceOnUse" id="RadialGradient_3" r="237.428"><stop id="stop111" offset="0" stop-color="#724f00"/><stop id="stop113" offset=".792" stop-color="#473600"/><stop id="stop115" offset=".99" stop-color="#3c2900"/><stop id="stop117" offset="1" stop-color="#3c2900"/></radialGradient><radialGradient cx="0" cy="0" gradientTransform="matrix(0 -1 .88605 0 167.146 112.448)" gradientUnits="userSpaceOnUse" id="RadialGradient_4" r="237.428"><stop id="stop120" offset="0" stop-color="#805800"/><stop id="stop122" offset=".792" stop-color="#4b3800"/><stop id="stop124" offset=".99" stop-color="#3d2800"/><stop id="stop126" offset="1" stop-color="#3d2800"/></radialGradient><radialGradient cx="0" cy="0" gradientTransform="matrix(0 -1 .88605 0 165.889 109.97)" gradientUnits="userSpaceOnUse" id="RadialGradient_5" r="237.428"><stop id="stop129" offset="0" stop-color="#8e6000"/><stop id="stop131" offset=".792" stop-color="#4e3b00"/><stop id="stop133" offset=".99" stop-color="#3e2700"/><stop id="stop135" offset="1" stop-color="#3e2700"/></radialGradient><radialGradient cx="0" cy="0" gradientTransform="matrix(0 -1 .88605 0 164.632 107.493)" gradientUnits="userSpaceOnUse" id="RadialGradient_6" r="237.428"><stop id="stop138" offset="0" stop-color="#9c6900"/><stop id="stop140" offset=".792" stop-color="#523d00"/><stop id="stop142" offset=".99" stop-color="#3f2600"/><stop id="stop144" offset="1" stop-color="#3f2600"/></radialGradient><linearGradient gradientTransform="translate(218.601 165.399)" gradientUnits="userSpaceOnUse" id="LinearGradient" x2="42.75" y2="36.75"><stop id="stop147" offset="0" stop-color="#5c5c5c"/><stop id="stop149" offset="1"/></linearGradient><linearGradient gradientTransform="translate(181.122 157.792)" gradientUnits="userSpaceOnUse" id="LinearGradient_1" x2="-9.672" y2="-141.858"><stop id="stop152" offset="0" stop-color="#fff"/><stop id="stop154" offset="1" stop-color="#cfd1d2"/></linearGradient><linearGradient gradientTransform="translate(259.851 172.899)" gradientUnits="userSpaceOnUse" id="LinearGradient_2" x2="69.75" y2="-189.75"><stop id="stop157" offset="0" stop-color="#b5b5b5"/><stop id="stop159" offset="1"/></linearGradient><linearGradient gradientTransform="translate(204.11 87.059)" gradientUnits="userSpaceOnUse" id="LinearGradient_3" x2="-51.527" y2="-64.41"><stop id="stop162" offset="0" stop-color="#df9000"/><stop id="stop164" offset=".73" stop-color="#7f5200"/><stop id="stop166" offset=".99" stop-color="#3f2600"/><stop id="stop168" offset="1" stop-color="#3f2600"/></linearGradient><linearGradient gradientTransform="translate(199.945 96.333)" gradientUnits="userSpaceOnUse" id="LinearGradient_4" x2="19.041" y2="85.19"><stop id="stop171" offset="0" stop-color="#ba7d00"/><stop id="stop173" offset=".792" stop-color="#7f5200"/><stop id="stop175" offset=".99" stop-color="#3f2600"/><stop id="stop177" offset="1" stop-color="#3f2600"/></linearGradient><linearGradient gradientTransform="translate(129.134 111.014)" gradientUnits="userSpaceOnUse" id="LinearGradient_5" x2="-1.007" y2="-63.536"><stop id="stop180" offset="0" stop-color="#df9000"/><stop id="stop182" offset=".792" stop-color="#7f5200"/><stop id="stop184" offset=".99" stop-color="#3f2600"/><stop id="stop186" offset="1" stop-color="#3f2600"/></linearGradient><linearGradient gradientTransform="translate(129.286 104.867)" gradientUnits="userSpaceOnUse" id="LinearGradient_6" x2="15.098" y2="58.375"><stop id="stop189" offset="0" stop-color="#df9000"/><stop id="stop191" offset=".792" stop-color="#7f5200"/><stop id="stop193" offset=".99" stop-color="#3f2600"/><stop id="stop195" offset="1" stop-color="#3f2600"/></linearGradient><radialGradient cx="0" cy="0" gradientTransform="matrix(.69736 -.71673 1.23192 1.19862 183.351 196.899)" gradientUnits="userSpaceOnUse" id="RadialGradient_7" r="38.717"><stop id="stop198" offset="0" stop-color="#6b4c29"/><stop id="stop200" offset="1" stop-color="#a57348"/></radialGradient><radialGradient cx="0" cy="0" gradientTransform="matrix(0 -1 .97394 0 134.346 314.993)" gradientUnits="userSpaceOnUse" id="RadialGradient_8" r="120.999"><stop id="stop203" offset="0" stop-color="#e0bf9e"/><stop id="stop205" offset=".017" stop-color="#e0bf9e"/><stop id="stop207" offset=".202" stop-color="#e6b891"/><stop id="stop209" offset="1" stop-color="#7b5d39"/></radialGradient><radialGradient cx="0" cy="0" gradientTransform="matrix(-.01429 -.9999 1.20614 -.01724 146.601 370.899)" gradientUnits="userSpaceOnUse" id="RadialGradient_9" r="87.054"><stop id="stop212" offset="0" stop-color="#9a9a9a"/><stop id="stop214" offset="1" stop-color="#313131"/></radialGradient><linearGradient gradientTransform="translate(213.351 257.649)" gradientUnits="userSpaceOnUse" id="LinearGradient_7" x2="-54" y2="-87"><stop id="stop217" offset="0" stop-color="#484848"/><stop id="stop219" offset="1"/></linearGradient><linearGradient gradientTransform="translate(133.101 343.149)" gradientUnits="userSpaceOnUse" id="LinearGradient_8" x2="10.5" y2="-85.5"><stop id="stop222" offset="0" stop-color="#8d8d8d"/><stop id="stop224" offset="1"/></linearGradient><linearGradient gradientTransform="translate(239.24 380.259)" gradientUnits="userSpaceOnUse" id="LinearGradient_9" x2="3.6" y2="-129"><stop id="stop227" offset="0" stop-color="#fff"/><stop id="stop229" offset="1"/></linearGradient><linearGradient gradientTransform="translate(115.007 352.336)" gradientUnits="userSpaceOnUse" id="LinearGradient_10" x2="108" y2="-33.75"><stop id="stop232" offset="0" stop-color="#fff"/><stop id="stop234" offset="1"/></linearGradient><linearGradient gradientTransform="translate(226.61 87.059)" gradientUnits="userSpaceOnUse" id="LinearGradient_11" x2="-51.527" y2="-64.41"><stop id="stop237" offset="0" stop-color="#df9000"/><stop id="stop239" offset=".73" stop-color="#7f5200"/><stop id="stop241" offset=".99" stop-color="#3f2600"/><stop id="stop243" offset="1" stop-color="#3f2600"/></linearGradient></defs><g id="g3123" transform="matrix(.6405 0 0 .64032 0 25.6)" fill="#333"><path d="M0-19.99c0-11.035 8.953-19.99 19.984-19.99 11.032 0 19.985 8.955 19.985 19.99C39.969-8.956 31.016 0 19.984 0 8.953 0 0-8.956 0-19.99zm37.47 0c0-9.655-7.833-17.492-17.486-17.492-9.652 0-17.486 7.837-17.486 17.492 0 9.655 7.834 17.491 17.486 17.491 9.653 0 17.486-7.836 17.486-17.491z" id="path3125"/><path d="M12.56-19.06c-.521-.397-1-1.183-1.209-2.083-.305-1.301.05-2.355.794-2.354h.027a.292.292 0 0 0 .068.005c-.006 0 .045.005.094.015-.255-1.696-.427-3.325-.115-4.914.046-.288.128-.591.25-.901.597-2.03 3.17-4.441 7.515-4.441s6.918 2.41 7.516 4.44c.118.31.203.614.25.902.311 1.59.14 3.218-.115 4.914.053-.01.111-.016.091-.015.04 0 .062-.001.074-.005h.021c.746-.001 1.101 1.053.796 2.354-.21.9-.687 1.686-1.209 2.082-1.828 4.093-4.146 6.567-7.424 6.567-3.277 0-5.595-2.474-7.424-6.567zm13.848-.425a1.05 1.05 0 0 1 .333-.417c.266-.2.637-.74.81-1.477.08-.325.092-.584.08-.773.002-.024.002-.045.002-.067a.885.885 0 0 0-.481-.785c-.541-.17-1.014 1.121-1.27 1.84.276-1.302.652-2.98.657-4.044-5.722-.2-7.927-1.682-9.889-3.59-1.435.134-2.536 1.217-3.224 2.71v.857l.002-.007c0 1.062.381 2.757.658 4.073-.255-.718-.725-2.009-1.27-1.839a.889.889 0 0 0-.48.852c-.009.19.003.448.08.773.174.737.545 1.277.814 1.477.146.11.26.253.331.417 1.742 3.898 3.146 5.928 6.423 5.928 3.278 0 4.682-2.03 6.424-5.928z" id="path3127"/><path d="M17.986-10.328a3.938 3.938 0 0 1 .999-.916h1.998c.432.248.747.563 1 .916-.448.71-1.181 1.292-1.999 1.832-.772-.511-1.567-1.006-1.998-1.832z" id="path3129"/><path d="M17.986-5.676l1.998-4.819 1.999 4.82c-.472.732-1.173 1.362-1.999 1.927-.816-.545-1.549-1.15-1.998-1.928z" id="path3131"/><path d="M6.05-7.465l.102-.198c1.935-2.112 5.442-2.61 8.836-3.831-.146 1.214-.136 2.312.245 3.305.535 1.36 2.107 4.38 4.751 6.082 2.645-1.703 4.217-4.721 4.752-6.082.38-.993.39-2.09.244-3.305 3.394 1.22 6.902 1.719 8.837 3.831l.1.198c-3.431 3.815-8.404 6.216-13.933 6.216-5.53 0-10.503-2.4-13.934-6.216z" id="path3133"/></g></svg>