<?xml version="1.0" encoding="utf-8"?>
<!-- Generator: Adobe Illustrator 21.1.0, SVG Export Plug-In . SVG Version: 6.00 Build 0)  -->
<svg version="1.1" xmlns="http://www.w3.org/2000/svg" xmlns:xlink="http://www.w3.org/1999/xlink" x="0px" y="0px"
	 viewBox="0 0 300 300" style="enable-background:new 0 0 300 300;" xml:space="preserve">
<style type="text/css">
	.st0{fill:#B4191D;}
	.st1{fill:#FFFFFF;}
</style>
<g id="Layer_1">
	<title></title>
	<path class="st0" d="M287.4,149.5L150.2,286.7h4.2L17.3,149.5v4.2L154.5,16.6h-4.2l137.2,137.2c2.7,2.7,7-1.5,4.2-4.2L154.5,12.4
		c-1.2-1.2-3.1-1.2-4.2,0L13,149.5c-1.2,1.2-1.2,3.1,0,4.2L150.2,291c1.2,1.2,3.1,1.2,4.2,0l0,0l137.2-137.2
		C294.4,151.1,290.1,146.8,287.4,149.5z"/>
	
		<rect x="70.3" y="68.7" transform="matrix(0.7071 -0.7071 0.7071 0.7071 -61.9509 151.8561)" class="st0" width="164" height="164"/>
</g>
<g id="Layer_2">
	<path class="st1" d="M141,158.4c-0.6,0.6-1.3,0.8-2.1,0.8H95.6V178c0,1.7-0.6,3-1.7,4.2c-1.1,1.1-2.5,1.7-4.2,1.7
		c-1.7,0-3-0.6-4.2-1.7L56.4,153c-1.1-1.1-2.5-2.5-4.1-4.2c1-1,3-3,4.1-4.2l29.2-29.2c1.1-1.1,2.5-1.7,4.2-1.7c1.7,0,3,0.6,4.2,1.7
		s1.7,2.5,1.7,4.2v18.8h43.3c0.9,0,1.6,0.3,2.1,0.8c0.6,0.6,0.8,1.3,0.8,2.1v14.9C141.8,157.1,141.5,157.8,141,158.4z M248.1,153
		l-29.2,29.2c-1.1,1.1-2.5,1.7-4.2,1.7c-1.7,0-3-0.6-4.2-1.7s-1.7-2.5-1.7-4.2v-18.8h-43.3c-0.9,0-1.6-0.3-2.1-0.8s-0.8-1.3-0.8-2.1
		v-14.9c0-0.9,0.3-1.6,0.8-2.1s1.3-0.8,2.1-0.8h43.3v-18.8c0-1.7,0.6-3,1.7-4.2c1.1-1.1,2.5-1.7,4.2-1.7c1.7,0,3,0.6,4.2,1.7
		l29.2,29.2c1.1,1.1,3.1,3.1,4.2,4.2C251.1,150,249.3,151.8,248.1,153z"/>
</g>
</svg>
