<svg id="Layer_1" xmlns="http://www.w3.org/2000/svg" viewBox="0 0 512 512"><style>.st0,.st1{stroke:#9d9d9d;stroke-miterlimit:10}.st0{stroke-width:12;stroke-linecap:round;stroke-linejoin:round;fill:none}.st1{fill:#9d9d9d}</style><path class="st0" d="M439.7 197.4c1.8 5.6 2.7 11.8 2.9 18.6.4 21.8-14.7 46.4-43.9 53.2m0-108c11.2 3.3 20.5 8.2 27.6 14.8M377 269.1c-14.5-3.4-26.1-10.9-34.5-23.1-6.3-9.2-9.4-19.5-9.4-30.7 0-13 4.1-24.5 12.3-34.6 8.2-10 18.8-16.3 31.6-19.2m-242.1-.3c3.9 1.4 7.7 2.5 11.2 4.1 21.7 9.5 34.3 31 32.5 55.3-1.7 22.1-18.5 41.9-40.7 47.6m-24.6 1.3c-27.9-8.4-43.8-26.4-43.8-56.1 0-22.4 15.8-45.5 43.8-52.1m103.8 106.1c6.6-6.7 15-11.8 24.5-14.3 1.1-.3 2.1-.6 3.6-1m-3.5 106.6c-23.8-6.3-40.5-28.4-40.3-53 0-3.6.4-7.1 1.1-10.6m64.4-43c11.8 2.7 21.6 8.2 29.6 16.9 27.5 30.1 13.2 79.3-26.2 89.7"/><path class="st1" d="M124.1 148.6c-2.8 0-5-2.2-5-5v-73c0-2.8 2.2-5 5-5s5 2.2 5 5v73c0 2.7-2.3 5-5 5zm0 298c-2.8 0-5-2.2-5-5v-57.2c0-2.8 2.2-5 5-5s5 2.2 5 5v57.2c0 2.7-2.3 5-5 5z"/><path class="st1" d="M124.1 410.9c-2.8 0-5-2.2-5-5V285.3c0-2.8 2.2-5 5-5s5 2.2 5 5v120.6c0 2.8-2.3 5-5 5zm263.8-262.3c-2.8 0-5-2.2-5-5v-73c0-2.8 2.2-5 5-5s5 2.2 5 5v73c0 2.7-2.3 5-5 5zm0 298c-2.8 0-5-2.2-5-5v-57.2c0-2.8 2.2-5 5-5s5 2.2 5 5v57.2c0 2.7-2.3 5-5 5z"/><path class="st1" d="M387.9 392.2c-2.8 0-5-2.2-5-5V285.3c0-2.8 2.2-5 5-5s5 2.2 5 5v101.9c0 2.7-2.3 5-5 5zM256 446.6c-2.8 0-5-2.2-5-5v-73c0-2.8 2.2-5 5-5s5 2.2 5 5v73c0 2.7-2.2 5-5 5zm0-204.8c-2.8 0-5-2.2-5-5v-98.5c0-2.8 2.2-5 5-5s5 2.2 5 5v98.5c0 2.8-2.2 5-5 5z"/><path class="st1" d="M256 145c-2.8 0-5-2.2-5-5V70.4c0-2.8 2.2-5 5-5s5 2.2 5 5V140c0 2.7-2.2 5-5 5z"/></svg>