<svg id="Layer_1" xmlns="http://www.w3.org/2000/svg" viewBox="0 0 64 64"><style>.st0{fill:#b4191d}</style><path class="st0" d="M51.2 41.1c-2.9 0-5.5 1.2-7.3 3.2L22.3 33.7c.1-.5.1-1 .1-1.5s0-1-.1-1.5l21.5-10.4c1.8 2 4.5 3.2 7.4 3.2 5.6 0 10.1-4.5 10.1-10.1S56.8 3.3 51.2 3.3s-10.1 4.4-10.1 10c0 .5 0 1 .1 1.5L19.7 25.2c-1.8-2-4.5-3.2-7.4-3.2-5.6 0-10.1 4.6-10.1 10.2s4.5 10.1 10.1 10.1c2.9 0 5.5-1.2 7.3-3.2l21.6 10.6c-.1.5-.1 1-.1 1.5 0 5.6 4.5 10.1 10.1 10.1s10.1-4.5 10.1-10.1-4.5-10.1-10.1-10.1z"/></svg>