<?xml version="1.0" encoding="utf-8"?>
<!-- Generator: Adobe Illustrator 21.1.0, SVG Export Plug-In . SVG Version: 6.00 Build 0)  -->
<svg version="1.1" id="Layer_1" xmlns="http://www.w3.org/2000/svg" xmlns:xlink="http://www.w3.org/1999/xlink" x="0px" y="0px"
	 viewBox="0 0 14 14" style="enable-background:new 0 0 14 14;" xml:space="preserve">
<style type="text/css">
	.st0{fill:#FFFFFF;}
</style>
<title>show-less</title>
<path class="st0" d="M9.4,8.5L7,6.1L4.6,8.5c-0.1,0.1-0.1,0.1-0.2,0c0,0,0,0,0,0L3.8,7.9c-0.1-0.1-0.1-0.1,0-0.2c0,0,0,0,0,0
	l3.1-3.1C7,4.5,7,4.5,7.1,4.5c0,0,0,0,0,0l3.1,3.1c0.1,0.1,0.1,0.1,0,0.2c0,0,0,0,0,0L9.6,8.5C9.6,8.5,9.5,8.5,9.4,8.5
	C9.4,8.5,9.4,8.5,9.4,8.5"/>
</svg>
