<svg id="Layer_1" xmlns="http://www.w3.org/2000/svg" viewBox="0 0 16 16"><style>.st0{fill:#212121}.st1{fill:none;stroke:#0d0f0f;stroke-width:.75;stroke-miterlimit:10}.st2{fill:#0d0f0f}</style><g id="Row_2_1_"><path class="st0" d="M1 4h10c.6 0 1-.4 1-1s-.4-1-1-1H1c-.6 0-1 .4-1 1s.4 1 1 1zm8 6H3c-.6 0-1 .4-1 1s.4 1 1 1h6c.6 0 1-.4 1-1s-.4-1-1-1zm1-4H2c-.6 0-1 .4-1 1s.4 1 1 1h8c.6 0 1-.4 1-1s-.4-1-1-1z" id="sort_list"/></g><path id="XMLID_3_" class="st1" d="M13.1 2v10"/><path id="XMLID_8_" class="st1" d="M10.8 8.8l2.3 3"/><path id="XMLID_21_" class="st1" d="M13.1 11.8l2.3-3"/><path id="XMLID_23_" class="st2" d="M12.8 11.3h.7v.7h-.7z"/></svg>