<svg viewBox="0 0 100 100" xmlns="http://www.w3.org/2000/svg"><path d="M41.04 75.03l-13.4 13.39c-.27.27-.57.52-.88.73l-.15.09c-.14.09-.28.18-.42.25-.17.09-.35.17-.52.25-.02 0-.04.01-.06.02-.17.06-.34.12-.5.17-.19.06-.38.1-.57.14-.37.07-.76.11-1.14.11-.58 0-1.15-.08-1.71-.25a7.33 7.33 0 0 1-.5-.17c-.02-.01-.04-.02-.06-.02-.18-.08-.35-.16-.52-.25-.14-.07-.28-.15-.42-.25-.36-.22-.71-.49-1.03-.82h-.01L5.76 75.03a5.993 5.993 0 0 1 0-8.49 6 6 0 0 1 8.48 0l3.16 3.16V15.82c0-3.31 2.68-6 6-6 3.31 0 6 2.69 6 6v53.87l3.15-3.15a6.011 6.011 0 0 1 8.49 0c2.34 2.34 2.34 6.14 0 8.49zM90 21.82H54.229a6 6 0 0 1 0-12H90a6 6 0 0 1 0 12zm-7.154 22.548H54.229a6 6 0 0 1 0-12h28.617a6 6 0 0 1 0 12zm-7.155 22.547H54.229a6 6 0 0 1 0-12h21.463a6 6 0 0 1-.001 12zm-7.154 22.548H54.229a6 6 0 0 1 0-12h14.309a6 6 0 0 1-.001 12z"/></svg>