<svg id="Layer_1" xmlns="http://www.w3.org/2000/svg" viewBox="0 0 91 91"><style>.st0{fill:#fff}</style><path class="st0" d="M43.1 28.6c0-3.4-2.7-6.1-6.1-6.1-3.4 0-6.1 2.7-6.1 6.1s2.7 6.1 6.1 6.1c3.4 0 6.1-2.8 6.1-6.1zm-8.8 0c0-1.5 1.2-2.7 2.7-2.7s2.7 1.2 2.7 2.7-1.2 2.7-2.7 2.7-2.7-1.2-2.7-2.7z"/><path class="st0" d="M55.4 34.4h-9.1c1.1-2 1.8-4 1.8-5.6 0-6.2-5-11.2-11.2-11.2-6.2 0-11.2 5-11.2 11.2 0 1.7.8 3.6 1.8 5.6h-9.1V72h49.2c3.7 0 6.7-3 6.7-6.7V44H55.4v-9.6zM37 21c4.3 0 7.8 3.5 7.8 7.8 0 2.9-4.4 8.8-7.8 12.6-3.4-3.8-7.8-9.6-7.8-12.6 0-4.3 3.5-7.8 7.8-7.8zm15 47.6H22V37.8h7.6v-.3c2.6 3.7 5.6 7 6.2 7.6l1.2 1.3 1.2-1.3c.6-.6 3.6-3.8 6.2-7.6v.3H52v30.8zm18.9-21.2v17.9c0 1.8-1.5 3.3-3.3 3.3H55.4V47.3l15.5.1z"/><path class="st0" d="M30.1 59h3.4v6.3h-3.4zm0-12.5h3.4v6.3h-3.4zM40.5 59h3.4v6.3h-3.4zm0-12.5h3.4v6.3h-3.4zM60 52h6.6v3.4H60zm0 8.4h6.6v3.4H60z"/></svg>