<?xml version="1.0" encoding="utf-8"?>
<!-- Generator: Adobe Illustrator 21.1.0, SVG Export Plug-In . SVG Version: 6.00 Build 0)  -->
<svg version="1.1" id="Layer_1" xmlns="http://www.w3.org/2000/svg" xmlns:xlink="http://www.w3.org/1999/xlink" x="0px" y="0px"
	 viewBox="0 0 128 128" style="enable-background:new 0 0 128 128;" xml:space="preserve">
<style type="text/css">
	.st0{fill:#F33536;}
</style>
<path id="layout" class="st0" d="M57.6,2.6H38.1c-2.4,0-4.3,1.9-4.3,4.3v19.5c0,2.4,1.9,4.3,4.3,4.3h19.5c2.4,0,4.3-1.9,4.3-4.3V6.9
	C61.9,4.5,60,2.6,57.6,2.6z M57.6,26.4H38.1V6.9h19.5V26.4z M57.6,35H38.1c-2.4,0-4.3,1.9-4.3,4.3v19.5c0,2.4,1.9,4.3,4.3,4.3h19.5
	c2.4,0,4.3-1.9,4.3-4.3V39.3C61.9,36.9,60,35,57.6,35z M57.6,58.8H38.1V39.3h19.5V58.8z M90,2.6H70.5c-2.4,0-4.3,1.9-4.3,4.3v19.5
	c0,2.4,1.9,4.3,4.3,4.3H90c2.4,0,4.3-1.9,4.3-4.3V6.9C94.3,4.5,92.4,2.6,90,2.6z M90,26.4H70.5V6.9H90V26.4z M90,35H70.5
	c-2.4,0-4.3,1.9-4.3,4.3v19.5c0,2.4,1.9,4.3,4.3,4.3H90c2.4,0,4.3-1.9,4.3-4.3V39.3C94.3,36.9,92.4,35,90,35z M90,58.8H70.5V39.3H90
	V58.8z M25.2,2.6H5.7c-2.4,0-4.3,1.9-4.3,4.3v19.5c0,2.4,1.9,4.3,4.3,4.3h19.5c2.4,0,4.3-1.9,4.3-4.3V6.9
	C29.5,4.5,27.5,2.6,25.2,2.6z M25.2,26.4H5.7V6.9h19.5V26.4z M25.2,35H5.7c-2.4,0-4.3,1.9-4.3,4.3v19.5c0,2.4,1.9,4.3,4.3,4.3h19.5
	c2.4,0,4.3-1.9,4.3-4.3V39.3C29.5,36.9,27.5,35,25.2,35z M25.2,58.8H5.7V39.3h19.5V58.8z M57.6,67H38.1c-2.4,0-4.3,1.9-4.3,4.3v19.5
	c0,2.4,1.9,4.3,4.3,4.3h19.5c2.4,0,4.3-1.9,4.3-4.3V71.4C61.9,69,60,67,57.6,67z M57.6,90.9H38.1V71.4h19.5V90.9z M90,67H70.5
	c-2.4,0-4.3,1.9-4.3,4.3v19.5c0,2.4,1.9,4.3,4.3,4.3H90c2.4,0,4.3-1.9,4.3-4.3V71.4C94.3,69,92.4,67,90,67z M90,90.9H70.5V71.4H90
	V90.9z M122.3,2.6h-19.5c-2.4,0-4.3,1.9-4.3,4.3v19.5c0,2.4,1.9,4.3,4.3,4.3h19.5c2.4,0,4.3-1.9,4.3-4.3V6.9
	C126.7,4.5,124.7,2.6,122.3,2.6z M122.3,26.4h-19.5V6.9h19.5C122.3,6.9,122.3,26.4,122.3,26.4z M122.3,35h-19.5
	c-2.4,0-4.3,1.9-4.3,4.3v19.5c0,2.4,1.9,4.3,4.3,4.3h19.5c2.4,0,4.3-1.9,4.3-4.3V39.3C126.7,36.9,124.7,35,122.3,35z M122.3,58.8
	h-19.5V39.3h19.5V58.8z M122.3,67h-19.5c-2.4,0-4.3,1.9-4.3,4.3v19.5c0,2.4,1.9,4.3,4.3,4.3h19.5c2.4,0,4.3-1.9,4.3-4.3V71.4
	C126.7,69,124.7,67,122.3,67z M122.3,90.9h-19.5V71.4h19.5V90.9z M25.2,67H5.7c-2.4,0-4.3,1.9-4.3,4.3v19.5c0,2.4,1.9,4.3,4.3,4.3
	h19.5c2.4,0,4.3-1.9,4.3-4.3V71.4C29.5,69,27.5,67,25.2,67z M25.2,90.9H5.7V71.4h19.5V90.9z M57.6,99H38.1c-2.4,0-4.3,1.9-4.3,4.3
	v19.5c0,2.4,1.9,4.3,4.3,4.3h19.5c2.4,0,4.3-1.9,4.3-4.3v-19.4C61.9,101,60,99,57.6,99z M57.6,122.9H38.1v-19.5h19.5V122.9z M90,99
	H70.5c-2.4,0-4.3,1.9-4.3,4.3v19.5c0,2.4,1.9,4.3,4.3,4.3H90c2.4,0,4.3-1.9,4.3-4.3v-19.4C94.3,101,92.4,99,90,99z M90,122.9H70.5
	v-19.5H90V122.9z M122.3,99h-19.5c-2.4,0-4.3,1.9-4.3,4.3v19.5c0,2.4,1.9,4.3,4.3,4.3h19.5c2.4,0,4.3-1.9,4.3-4.3v-19.4
	C126.7,101,124.7,99,122.3,99z M122.3,122.9h-19.5v-19.5h19.5V122.9z M25.2,99H5.7c-2.4,0-4.3,1.9-4.3,4.3v19.5
	c0,2.4,1.9,4.3,4.3,4.3h19.5c2.4,0,4.3-1.9,4.3-4.3v-19.4C29.5,101,27.5,99,25.2,99z M25.2,122.9H5.7v-19.5h19.5V122.9z"/>
</svg>
