<svg viewBox="0 0 512 512" xmlns="http://www.w3.org/2000/svg"><path d="M363.747 148.753c-59.228-59.227-155.267-59.227-214.494 0-59.227 59.228-59.227 155.267 0 214.494 59.228 59.227 155.267 59.227 214.494 0 59.227-59.227 59.227-155.267 0-214.494zM256.853 281.81l-71.418 71.418-26.163-26.163 71.417-71.418-70.71-70.711 25.456-25.456 70.711 70.71 70.711-70.71 26.163 26.163-70.711 70.71 70.711 70.711-25.456 25.456-70.711-70.71z" fill="#252525"/><circle cx="256" cy="256.354" fill="#FFF" r="122.687"/><path d="M332.461 253.354c2.858 1.65 2.858 4.35 0 6l-112.094 64.717c-2.858 1.65-5.196.3-5.196-3V191.636c0-3.3 2.338-4.65 5.196-3l112.094 64.718z" fill="#252525"/></svg>