<?xml version="1.0" encoding="utf-8"?>
<!-- Generator: Adobe Illustrator 21.1.0, SVG Export Plug-In . SVG Version: 6.00 Build 0)  -->
<svg version="1.1" id="Layer_1" xmlns="http://www.w3.org/2000/svg" xmlns:xlink="http://www.w3.org/1999/xlink" x="0px" y="0px"
	 viewBox="0 0 135.8 33.5" style="enable-background:new 0 0 135.8 33.5;" xml:space="preserve">
<style type="text/css">
	.st0{fill:#242E39;stroke:#F33536;stroke-miterlimit:10;}
	.st1{fill:#F33536;}
	.st2{display:none;opacity:0.4;fill:#FFFFFF;enable-background:new    ;}
	.st3{fill:#FFFFFF;}
</style>
<path class="st0" d="M134.5,28c0,0.7-0.6,1.2-1.2,1.2H77.4l-3.2,3.5l-3-3.5H2c-0.7,0-1.2-0.6-1.2-1.2V2.4c0-0.7,0.6-1.2,1.2-1.2
	h131.3c0.7,0,1.2,0.7,1.2,1.4V28z"/>
<path class="st1" d="M2.1,3.8c0-0.7,0.6-1.2,1.2-1.2h30c0.7,0,1.2,0.6,1.2,1.2l0,23c0,0.7-0.6,1.2-1.2,1.2H3.3
	c-0.7,0-1.2-0.6-1.2-1.2C2.1,26.8,2.1,3.8,2.1,3.8z"/>
<path class="st2" d="M12.6,7.8l5.5-3.1l5.4,3.1l-0.7,1.7l-0.1,4.2l4.8-2.3l2.9,1.2l2.6,1.6l-0.2,11.4l-29.4,0L3.2,13.9l5.4-2.8
	c1.8,1,4.8,2.4,4.8,2.4l0-4.3C13.4,9.1,12.6,7.8,12.6,7.8z"/>
<path class="st3" d="M12.5,9V7.6c0-0.1,0.1-0.3,0.2-0.3L18,4.5c0.1-0.1,0.2-0.1,0.3,0l5.3,2.8c0.1,0.1,0.2,0.2,0.2,0.3V9
	c0,0.2-0.2,0.4-0.4,0.4h-0.4v3.7l4.5-2.2c0.1-0.1,0.2-0.1,0.3,0l2.3,1.2v-0.5c-0.2,0-0.4-0.2-0.4-0.4l0,0V9.7c0-0.2,0.2-0.4,0.4-0.4
	h2.1c0.2,0,0.4,0.2,0.4,0.4v1.4c0,0.2-0.2,0.4-0.4,0.4c0,0,0,0,0,0v1.6l1.2,0.6c0.1,0.1,0.2,0.2,0.2,0.3v1.4c0,0.2-0.2,0.4-0.4,0.4
	c0,0,0,0,0,0H33v9.6c0,0.2-0.2,0.4-0.4,0.4c0,0,0,0,0,0H13.5c-0.2,0-0.4-0.2-0.4-0.4c0,0,0,0,0,0v-16h-0.4C12.6,9.4,12.5,9.2,12.5,9
	C12.5,9,12.5,9,12.5,9z M21,20h-5.7v0.7H21V20z M15.3,21.4v0.7H21v-0.7H15.3z M15.3,22.9v0.7H21v-0.7H15.3z M21,25v-0.7h-5.7V25H21z
	 M22.4,18.6h-8.5V25h0.7v-5.3c0-0.2,0.2-0.4,0.4-0.4h6.4c0.2,0,0.4,0.2,0.4,0.4V25h0.7L22.4,18.6z M22.4,17.2h-8.5v0.7h8.5V17.2z
	 M22.4,15.8H22c-0.2,0-0.4-0.2-0.4-0.4c0,0,0,0,0,0V14c0-0.1,0.1-0.3,0.2-0.3l0.5-0.3v-4H22c-0.2,0-0.4-0.2-0.4-0.4c0,0,0,0,0,0V8.5
	l-3.5-1.9l-3.5,1.9V9c0,0.2-0.2,0.4-0.4,0.4h-0.4v7.1h8.5V15.8z M25.9,24.3h-2.8V25h2.8L25.9,24.3z M28.8,21.4h-2.1V25h2.1V21.4z
	 M32.3,24.3h-2.8V25h2.8V24.3z M32.3,15.8H32c-0.2,0-0.4-0.2-0.4-0.4c0,0,0,0,0,0v-0.5L27.7,13l-3.9,1.9v0.5c0,0.2-0.2,0.4-0.4,0.4
	c0,0,0,0,0,0h-0.4v7.8h2.8v-2.5c0-0.2,0.2-0.4,0.4-0.4h2.8c0.2,0,0.4,0.2,0.4,0.4v2.5h2.8L32.3,15.8L32.3,15.8L32.3,15.8z
	 M30.5,10.8H32v-0.7h-1.4V10.8z M30.9,11.5v0.8l0.7,0.4v-1.2H30.9z M22.4,14.2v0.8h0.7v-0.4c0-0.1,0.1-0.3,0.2-0.3l4.3-2.1
	c0.1,0,0.2,0,0.3,0l4.3,2.1c0.1,0.1,0.2,0.2,0.2,0.3v0.4H33v-0.8l-5.3-2.7L22.4,14.2z M13.2,8.7h0.7V8.3c0-0.1,0.1-0.2,0.2-0.3
	L18,5.9c0.1-0.1,0.2-0.1,0.3,0L22.2,8c0.1,0.1,0.2,0.2,0.2,0.3v0.4h0.7V7.8l-5-2.6l-5,2.6C13.2,7.8,13.2,8.7,13.2,8.7z M29.1,17.2
	c0,0.8-0.7,1.4-1.5,1.3c-0.7,0-1.3-0.6-1.3-1.3c0-0.8,0.6-1.4,1.4-1.4C28.5,15.8,29.1,16.4,29.1,17.2z M27.7,23.2
	c0-0.2,0.2-0.4,0.4-0.4c0.2,0,0.4,0.2,0.4,0.4c0,0.2-0.2,0.4-0.4,0.4S27.7,23.4,27.7,23.2z M19.9,13.3c0,0.2-0.2,0.4-0.4,0.4
	c0,0,0,0,0,0h-2.8c-0.2,0-0.4-0.2-0.4-0.4s0.2-0.4,0.4-0.4v-2.5c0-0.2,0.2-0.4,0.4-0.4h2.1c0.2,0,0.4,0.2,0.4,0.4v2.5
	C19.7,12.9,19.9,13.1,19.9,13.3z M18.8,12.2h-1.4v0.7h1.4V12.2z M18.8,10.8h-1.4v0.7h1.4V10.8z"/>
<path class="st3" d="M23.5,9.4h-0.4v16c0,0.2-0.2,0.4-0.3,0.4c0,0,0,0,0,0H3.6c-0.2,0-0.4-0.2-0.4-0.3c0,0,0,0,0,0v-9.6H2.9
	c-0.2,0-0.4-0.2-0.4-0.4V14c0-0.1,0.1-0.3,0.2-0.3L4,13.1v-1.6c-0.2,0-0.4-0.2-0.4-0.4c0,0,0,0,0,0V9.7c0-0.2,0.2-0.4,0.4-0.4h2.1
	c0.2,0,0.4,0.2,0.4,0.4v1.4c0,0.2-0.2,0.4-0.4,0.4c0,0,0,0,0,0V12l2.3-1.2c0.1,0,0.2,0,0.3,0l4.5,2.2V9.4h-0.4
	c-0.2,0-0.4-0.2-0.4-0.3c0,0,0,0,0,0V7.6c0-0.1,0.1-0.3,0.2-0.3L18,4.5c0.1-0.1,0.2-0.1,0.3,0l5.3,2.8c0.1,0.1,0.2,0.2,0.2,0.3V9
	C23.8,9.2,23.7,9.4,23.5,9.4z M15.3,20.7H21V20h-5.7V20.7z M15.3,21.4v0.7H21v-0.7H15.3z M15.3,22.9v0.7H21v-0.7H15.3z M21,25v-0.7
	h-5.7V25H21z M13.9,25h0.7v-5.3c0-0.2,0.2-0.4,0.4-0.4h6.4c0.2,0,0.4,0.2,0.4,0.4V25h0.7v-6.4h-8.5C13.9,18.6,13.9,25,13.9,25z
	 M13.9,17.9h8.5v-0.7h-8.5V17.9z M13.9,16.5h8.5V9.4H22c-0.2,0-0.4-0.2-0.4-0.3c0,0,0,0,0,0V8.5l-3.5-1.9l-3.5,1.9V9
	c0,0.2-0.2,0.4-0.4,0.4c0,0,0,0,0,0h-0.4v4l0.5,0.3c0.1,0.1,0.2,0.2,0.2,0.3v1.4c0,0.2-0.2,0.4-0.4,0.4c0,0,0,0,0,0h-0.4
	C13.9,15.8,13.9,16.5,13.9,16.5z M10.3,25h2.8v-0.7h-2.8V25z M7.5,25h2.1v-3.5H7.5C7.5,21.4,7.5,25,7.5,25z M4,25h2.8v-0.7H4
	C4,24.3,4,25,4,25z M4,23.6h2.8v-2.5c0-0.2,0.2-0.4,0.4-0.4H10c0.2,0,0.4,0.2,0.4,0.4v2.5h2.8v-7.8h-0.4c-0.2,0-0.4-0.2-0.4-0.4
	c0,0,0,0,0,0v-0.5L8.6,13l-3.9,1.9v0.5c0,0.2-0.2,0.4-0.3,0.4c0,0,0,0,0,0H4C4,15.8,4,23.6,4,23.6z M5.7,10.1H4.3v0.7h1.4V10.1z
	 M4.7,11.5v1.2l0.7-0.4v-0.8H4.7z M8.6,11.6l-5.3,2.7v0.8H4v-0.4c0-0.1,0.1-0.3,0.2-0.3l4.3-2.1c0.1,0,0.2,0,0.3,0l4.3,2.1
	c0.1,0.1,0.2,0.2,0.2,0.3v0.4h0.7v-0.8L8.6,11.6z M23.1,7.8l-5-2.6l-5,2.6v0.9h0.7V8.3c0-0.1,0.1-0.2,0.2-0.3L18,5.9
	c0.1-0.1,0.2-0.1,0.3,0L22.2,8c0.1,0.1,0.2,0.2,0.2,0.3v0.4h0.7L23.1,7.8L23.1,7.8z M8.6,15.8c0.8,0,1.4,0.6,1.4,1.4
	c0,0.8-0.6,1.4-1.4,1.4c-0.8,0-1.4-0.6-1.4-1.4S7.8,15.8,8.6,15.8z M8.6,17.9c0.4,0,0.7-0.3,0.7-0.7c0,0,0,0,0,0
	c0-0.4-0.3-0.7-0.7-0.7c-0.4,0-0.7,0.3-0.7,0.7c0,0,0,0.1,0,0.1C7.9,17.6,8.2,17.9,8.6,17.9z M8.2,23.6c-0.2,0-0.4-0.2-0.4-0.4
	c0-0.2,0.2-0.4,0.4-0.4c0.2,0,0.4,0.2,0.4,0.4C8.6,23.4,8.4,23.6,8.2,23.6z M16.7,12.9v-2.5c0-0.2,0.2-0.4,0.4-0.4h2.1
	c0.2,0,0.4,0.2,0.4,0.4v2.5c0.2,0,0.4,0.2,0.4,0.4c0,0.2-0.2,0.4-0.4,0.4c0,0,0,0,0,0h-2.8c-0.2,0-0.4-0.2-0.4-0.3c0,0,0,0,0,0
	C16.4,13.1,16.5,12.9,16.7,12.9z M17.4,12.9h1.4v-0.7h-1.4V12.9z M17.4,11.5h1.4v-0.7h-1.4V11.5z"/>
</svg>
