<svg xmlns="http://www.w3.org/2000/svg" width="35.482" height="31.583" viewBox="0 0 35.482 31.583"><path fill="#f33536" d="M35.274 26.846c0 .686-.555 1.24-1.239 1.24H20.917l-3.167 3.496-3.04-3.496H1.545a1.24 1.24 0 0 1-1.239-1.24V1.24A1.24 1.24 0 0 1 1.545 0h32.49c.687 0 1.239.746 1.239 1.431v25.415z"/><path fill="#992020" d="M1.594 2.62c0-.686.555-1.24 1.24-1.24h29.96c.686 0 1.24.556 1.24 1.24l-.033 22.978a1.24 1.24 0 0 1-1.24 1.238H2.834a1.24 1.24 0 0 1-1.24-1.238V2.62z"/><path opacity=".4" fill="#FFF" d="M12.124 6.618l5.489-3.121 5.438 3.069-.691 1.654-.067 4.163 4.756-2.344 2.867 1.18 2.646 1.553-.186 11.436-29.358.016-.354-11.534L8.06 9.889c1.788.995 4.823 2.41 4.823 2.41l-.017-4.317-.742-1.364z"/><path fill="#FFF" d="M11.963 7.868V6.45c0-.13.071-.251.188-.314l5.318-2.835a.36.36 0 0 1 .335 0l5.318 2.835a.364.364 0 0 1 .188.314v1.418a.355.355 0 0 1-.355.354H22.6v3.682l4.45-2.225a.35.35 0 0 1 .318 0l2.323 1.162v-.491a.353.353 0 0 1-.354-.354V8.577c0-.196.16-.354.354-.354h2.127c.198 0 .354.158.354.354v1.419a.354.354 0 0 1-.354.356v1.552l1.224.609a.362.362 0 0 1 .197.319v1.417a.353.353 0 0 1-.355.354h-.354v9.573a.353.353 0 0 1-.354.355H13.027a.354.354 0 0 1-.355-.355V8.221h-.353a.353.353 0 0 1-.356-.353zm8.509 10.991H14.8v.709h5.672v-.709zM14.8 20.278v.71h5.672v-.71H14.8zm0 1.42v.707h5.672v-.707H14.8zm5.672 2.125v-.705H14.8v.705h5.672zm1.418-6.38h-8.51v6.382h.71v-5.32c0-.194.157-.354.355-.354h6.383c.195 0 .354.158.354.354v5.32h.706l.002-6.382zm0-1.419h-8.51v.706h8.51v-.706zm0-1.42h-.354a.354.354 0 0 1-.354-.356v-1.417c0-.133.074-.255.195-.316l.514-.254V8.223h-.352a.352.352 0 0 1-.354-.354v-.5l-3.548-1.933L14.09 7.37v.498c0 .197-.16.356-.356.356h-.355v7.09h8.51l.001-.71zm3.547 8.514H22.6v.705h2.836l.001-.705zm2.836-2.84h-2.127v3.547h2.127v-3.547zm3.546 2.84h-2.836v.705h2.836v-.705zm0-8.514h-.354a.355.355 0 0 1-.354-.356v-.488l-3.897-1.95-3.9 1.95v.489a.355.355 0 0 1-.355.356H22.6v7.799h2.836v-2.482c0-.195.158-.354.354-.354h2.836c.199 0 .354.158.354.354v2.482h2.836v-7.801h.003zm-1.773-4.962h1.416v-.709h-1.416v.709zm.355.708v.844l.706.354V10.35h-.706zm-8.511 2.702v.842h.71v-.353c0-.135.075-.257.198-.316l4.252-2.128a.352.352 0 0 1 .316 0l4.254 2.128a.35.35 0 0 1 .196.316v.353h.708v-.842l-5.317-2.66-5.317 2.66zm-9.219-5.537h.709v-.357a.36.36 0 0 1 .185-.312l3.9-2.125a.349.349 0 0 1 .34 0l3.899 2.125a.358.358 0 0 1 .184.312v.357h.709v-.852l-4.964-2.647-4.966 2.647.004.852zm15.957 8.509a1.42 1.42 0 0 1-1.418 1.418 1.42 1.42 0 0 1-1.418-1.418 1.418 1.418 0 1 1 2.836 0zm-.709 0zm-.727 6.023c0-.192.177-.369.374-.369.196 0 .373.177.373.369 0 .199-.176.375-.373.375s-.374-.175-.374-.375zm-7.782-9.924a.353.353 0 0 1-.356.352H16.22a.354.354 0 1 1 0-.708V9.286c0-.196.159-.354.355-.354H18.7c.198 0 .354.158.354.354v2.481c.196 0 .356.16.356.356zm-1.066-1.064h-1.418v.71h1.418v-.71zm0-1.417h-1.418v.71h1.418v-.71z"/><path fill="#FFF" d="M22.96 8.222h-.354v15.954a.353.353 0 0 1-.354.355H3.104a.352.352 0 0 1-.354-.355v-9.572h-.355a.356.356 0 0 1-.355-.356v-1.417c0-.133.076-.255.196-.316l1.224-.611V10.35a.354.354 0 0 1-.355-.354V8.577c0-.196.157-.354.355-.354h2.127c.196 0 .355.158.355.354v1.419a.356.356 0 0 1-.355.356v.489l2.322-1.162a.364.364 0 0 1 .319 0l4.452 2.225V8.222h-.355a.352.352 0 0 1-.354-.354V6.45c0-.13.071-.251.187-.314l5.32-2.835a.35.35 0 0 1 .335 0l5.317 2.835a.362.362 0 0 1 .188.314v1.418a.359.359 0 0 1-.358.354zm-8.156 11.346h5.673v-.709h-5.673v.709zm0 .71v.71h5.673v-.71h-5.673zm0 1.42v.707h5.673v-.707h-5.673zm5.673 2.125v-.705h-5.673v.705h5.673zm-7.092 0h.709v-5.32c0-.193.159-.353.354-.353h6.383c.194 0 .354.158.354.353v5.32h.71v-6.381h-8.512l.002 6.381zm0-7.093h8.512v-.706h-8.512v.706zm0-1.416h8.512V8.223h-.354a.352.352 0 0 1-.355-.354v-.5l-3.546-1.933-3.545 1.933v.5a.353.353 0 0 1-.355.354h-.354v4.037l.514.254c.12.062.197.184.197.316v1.417a.355.355 0 0 1-.355.356h-.354l-.005.711zM9.84 23.823h2.839v-.705H9.84v.705zm-2.837 0h2.129v-3.546H7.003v3.546zm-3.545 0h2.837v-.705H3.458v.705zm0-1.418h2.837v-2.482c0-.195.157-.354.353-.354h2.839c.195 0 .353.158.353.354v2.482h2.839v-7.799h-.355a.354.354 0 0 1-.354-.356v-.49l-3.901-1.95-3.901 1.95v.491a.352.352 0 0 1-.355.354h-.354l-.001 7.8zM5.23 8.932H3.811v.706H5.23v-.706zM4.166 10.35v1.198l.709-.354v-.844h-.709zm3.9.042l-5.318 2.66v.842h.708v-.353a.35.35 0 0 1 .197-.316l4.253-2.128a.358.358 0 0 1 .319 0l4.252 2.128a.35.35 0 0 1 .197.316v.353h.708v-.842l-5.316-2.66zm14.54-3.729l-4.964-2.647-4.964 2.647v.852h.707v-.357c0-.128.07-.249.184-.312l3.902-2.125a.347.347 0 0 1 .339 0l3.898 2.125a.364.364 0 0 1 .188.312v.357h.707v-.852h.003zm-14.54 7.941c.782 0 1.418.635 1.418 1.417a1.42 1.42 0 0 1-1.418 1.417 1.42 1.42 0 0 1-1.418-1.417c0-.78.637-1.417 1.418-1.417zm0 2.126a.707.707 0 0 0 .709-.706.71.71 0 0 0-1.418 0c0 .391.318.706.709.706zm-.354 5.692a.385.385 0 0 1-.372-.375c0-.195.176-.373.372-.373.195 0 .372.178.372.373 0 .2-.177.375-.372.375zm8.51-10.655V9.286c0-.196.159-.354.355-.354h2.129c.196 0 .353.158.353.354v2.481c.198 0 .354.158.354.356a.353.353 0 0 1-.354.352h-2.837a.351.351 0 0 1-.352-.352c0-.196.156-.356.352-.356zm.709 0h1.419v-.708h-1.419v.708zm0-1.417h1.419v-.708h-1.419v.708z"/></svg>