<svg id="Layer_1" xmlns="http://www.w3.org/2000/svg" viewBox="0 0 61 62"><style>.st0{fill:#fff}</style><path class="st0" d="M60 15h-1v45c0 .6-.4 1-1 1H4c-.6 0-1-.4-1-1V33H2c-.6 0-1-.4-1-1v-4c0-.4.2-.7.6-.9L5 25.4V21c-.6 0-1-.4-1-1v-4c0-.6.4-1 1-1h6c.6 0 1 .4 1 1v4c0 .6-.4 1-1 1v1.4l6.6-3.3c.3-.1.6-.1.9 0L31 25.4V15h-1c-.6 0-1-.4-1-1v-4c0-.4.2-.7.5-.9l15-8c.3-.2.6-.2.9 0l15 8c.4.2.6.5.6.9v4c0 .6-.5 1-1 1zM37 47h16v-2H37v2zm0 2v2h16v-2H37zm0 4v2h16v-2H37zm16 6v-2H37v2h16zm-20 0h2V44c0-.6.4-1 1-1h18c.6 0 1 .4 1 1v15h2V41H33v18zm0-20h24v-2H33v2zm0-4h24V15h-1c-.6 0-1-.4-1-1v-1.4L45 7.2l-10 5.5V14c0 .6-.4 1-1 1h-1v11.4l1.4.7c.3.2.6.5.6.9v4c0 .6-.4 1-1 1h-1v2zM23 59h8v-2h-8v2zm-8 0h6V49h-6v10zM5 59h8v-2H5v2zm0-4h8v-7c0-.6.4-1 1-1h8c.6 0 1 .4 1 1v7h8V33h-1c-.6 0-1-.4-1-1v-1.4l-11-5.5-11 5.5V32c0 .6-.4 1-1 1H5v22zm5-38H6v2h4v-2zm-3 4v3.4l2-1V21H7zm11 .1L3 28.6V31h2v-1c0-.4.2-.7.6-.9l12-6c.3-.1.6-.1.9 0l12 6c.3.2.6.5.6.9v1h2v-2.4L18 21.1zm41-10.5L45 3.2l-14 7.5V13h2v-1c0-.4.2-.7.5-.9l11-6c.3-.2.7-.2 1 0l11 6c.3.2.5.5.5.9v1h2v-2.4zM18 33c2.2 0 4 1.8 4 4s-1.8 4-4 4-4-1.8-4-4 1.8-4 4-4zm0 6c1.1 0 2-.9 2-2s-.9-2-2-2-2 .9-2 2 .9 2 2 2zm-1 16.1c-.6 0-1-.5-1-1 0-.6.5-1 1-1 .6 0 1 .5 1 1s-.5 1-1 1zM41 25v-7c0-.6.4-1 1-1h6c.6 0 1 .4 1 1v7c.6 0 1 .4 1 1s-.4 1-1 1h-8c-.6 0-1-.4-1-1 0-.5.4-1 1-1zm2 0h4v-2h-4v2zm0-4h4v-2h-4v2z"/></svg>