<svg id="expand" xmlns="http://www.w3.org/2000/svg" viewBox="0 0 96 96"><style>.st0{fill:#fff}</style><path class="st0" d="M80 4H68c-2.2 0-4 1.8-4 4s1.8 4 4 4h12c2.2 0 4 1.8 4 4v12c0 2.2 1.8 4 4 4s4-1.8 4-4V16c0-6.6-5.4-12-12-12zM28 4H16C9.4 4 4 9.4 4 16v12c0 2.2 1.8 4 4 4s4-1.8 4-4V16c0-2.2 1.8-4 4-4h12c2.2 0 4-1.8 4-4s-1.8-4-4-4zm60 60c-2.2 0-4 1.8-4 4v12c0 2.2-1.8 4-4 4H68c-2.2 0-4 1.8-4 4s1.8 4 4 4h12c6.6 0 12-5.4 12-12V68c0-2.2-1.8-4-4-4zM28 84H16c-2.2 0-4-1.8-4-4V68c0-2.2-1.8-4-4-4s-4 1.8-4 4v12c0 6.6 5.4 12 12 12h12c2.2 0 4-1.8 4-4s-1.8-4-4-4z"/></svg>