<svg id="Layer_1" xmlns="http://www.w3.org/2000/svg" viewBox="0 0 26 22"><style>.st0{fill:#fff}</style><path class="st0" d="M21 2H5V0H0v5h2v12H0v5h5v-2h16v2h5v-5h-2V5h2V0h-5v2zM1 4V1h3v3H1zm3 17H1v-3h3v3zm17-2H5v-2H3V5h2V3h16v2h2v12h-2v2zm4-1v3h-3v-3h3zM22 1h3v3h-3V1z" id="area-select-7"/><g id="Layer_2"><g id="Layer_1-2"><path class="st0" d="M13 6.7c2.1 0 4.1.8 5.6 2.3l1.6 1.6-1.6 1.6c-3.1 3.1-8.2 3.1-11.3 0l-1.6-1.6L7.3 9c1.6-1.4 3.6-2.3 5.7-2.3m0-.8c-2.3 0-4.6.9-6.2 2.6l-2.2 2.2 2.2 2.2c3.4 3.4 9 3.4 12.5 0l2.2-2.2-2.2-2.2c-1.7-1.7-4-2.6-6.3-2.6z"/><path class="st0" d="M13 8.1c-.2 0-.5 0-.7.1.6.3.9 1.1.6 1.7-.3.6-1.1.9-1.7.6-.3-.1-.5-.3-.6-.6-.1.2-.1.5-.1.7 0 1.4 1.1 2.5 2.5 2.5s2.5-1.1 2.5-2.5-1.1-2.5-2.5-2.5z"/></g></g></svg>