<svg id="Layer_1" xmlns="http://www.w3.org/2000/svg" viewBox="0 0 91 91"><style>.st0{fill:#fff}</style><path class="st0" d="M72.9 25.4c-.5-.3-1.1-.3-1.6-.1l-4.5 2.2c0-.2.1-.4.1-.6C66.8 20.3 61.5 15 55 15s-11.9 5.3-11.9 11.9c0 .2 0 .5.1.7l-6.9-2.4c-.4-.1-.9-.1-1.3.1L21.6 32c-.6.3-.9.9-.9 1.5v41.3c0 .6.3 1.1.8 1.4.5.3 1.1.4 1.6.1l13-5.6 18.3 7.4c.2.1.4.1.6.1.3 0 .5-.1.7-.2L73 69.7c.6-.3 1-.9 1-1.5l-.3-41.3c0-.7-.3-1.2-.8-1.5zm-17.9-7c4.7 0 8.5 3.8 8.5 8.5 0 3.2-4.8 9.6-8.5 13.7-3.7-4.1-8.5-10.5-8.5-13.7 0-4.7 3.8-8.5 8.5-8.5zm-1.7 25.3v30.4l-15.9-6.4v-6.6c1.8-2 6.7-7.5 6.7-11.3 0-4-2.9-7.4-6.7-8.2V29.2l7 2.4c2.4 5 7.2 10.4 8.9 12.1zm-17.6 1.1c2.7 0 5 2.2 5 5 0 1.8-2.6 5.4-5 8.1-2.4-2.7-5-6.4-5-8.1 0-2.8 2.2-5 5-5zM24 34.6l10-5v12c-3.8.8-6.7 4.2-6.7 8.2 0 3.8 4.9 9.3 6.7 11.3V68l-10 4.3V34.6zm32.7 39.3V43.7c1.6-1.7 6.2-6.9 8.7-11.7l5-2.5.2 37.6-13.9 6.8z"/><path class="st0" d="M35.7 51.9c1.1 0 2-.9 2-2s-.9-2-2-2-2 .9-2 2 .9 2 2 2zm25.7-25.3c0-3.5-2.9-6.4-6.4-6.4s-6.4 2.9-6.4 6.4S51.5 33 55 33s6.4-2.8 6.4-6.4zm-9.5 0c0-1.7 1.4-3 3-3s3 1.4 3 3-1.4 3-3 3-3-1.3-3-3z"/></svg>