<svg id="Layer_1" xmlns="http://www.w3.org/2000/svg" viewBox="0 0 32 32"><style>.st0{fill:#a9bec6}</style><path id="world" class="st0" d="M15.5 0C6.9 0 0 6.9 0 15.5S6.9 31 15.5 31 31 24.1 31 15.5 24.1 0 15.5 0zM29 15h-6c-.1-2.2-.4-4.3-1.1-6.3 1.4-.6 2.6-1.3 3.7-2.2 2 2.3 3.3 5.3 3.4 8.5zM14.9 29c-1.7-1.4-3.1-3.2-4.1-5.3 1.3-.4 2.7-.6 4.1-.7v6c.1 0 .1 0 0 0zm1.2-27c1.9 1.6 3.4 3.7 4.5 6.1-1.5.5-3 .8-4.6.9l.1-7c-.1 0-.1 0 0 0zm1.6.2c2.8.5 5.2 1.7 7.2 3.6-1 .8-2.2 1.5-3.4 2-1-2.1-2.2-4.1-3.8-5.6zM15 2v7c-1.6-.1-3.1-.3-4.5-.8 1-2.5 2.6-4.6 4.5-6.2zM9.5 7.8c-1.2-.5-2.4-1.2-3.4-2 1.9-1.9 4.4-3.2 7.2-3.6-1.6 1.5-2.8 3.5-3.8 5.6zm.6 1.3c1.5.5 3.2.8 4.9.9v5H9c.1-2.1.4-4.1 1.1-5.9zM15 16v6c-1.6 0-3.1.3-4.5.8-.9-2.1-1.4-4.4-1.5-6.8h6zm-1.7 12.8c-2.5-.4-4.7-1.5-6.5-3.1 1-.7 2.1-1.3 3.2-1.7.8 1.9 1.9 3.5 3.3 4.8zm2.7.2v-6c1.4 0 2.8.3 4.1.7-1 2.1-2.4 3.9-4.1 5.3zm5.1-5c1.1.4 2.2 1 3.2 1.7-1.8 1.6-4.1 2.6-6.5 3.1 1.3-1.3 2.4-2.9 3.3-4.8zm-.6-1.2c-1.4-.5-3-.7-4.5-.8v-6h6c-.1 2.4-.6 4.7-1.5 6.8zM16 15v-5c1.7-.1 3.4-.4 4.9-.9.7 1.8 1 3.8 1.1 5.9h-6zM5.4 6.5c1.1.9 2.4 1.6 3.7 2.2-.6 2-1 4.1-1.1 6.3H2c.1-3.2 1.4-6.2 3.4-8.5zM2 16h6c.1 2.6.6 5 1.5 7.1-1.3.5-2.4 1.2-3.5 1.9-2.4-2.3-3.8-5.5-4-9zm23 9.1c-1.1-.8-2.3-1.4-3.5-1.9.9-2.2 1.4-4.6 1.5-7.1h6c-.2 3.4-1.6 6.6-4 9z"/></svg>