<svg id="Layer_1" xmlns="http://www.w3.org/2000/svg" viewBox="0 0 28 25"><style>.st0{fill:#fff}</style><g id="paper-map-plus-7"><path class="st0" d="M26 3l-9-3-8 3-9-3v17l9 3 4.1-1.5c.5 3.7 3.6 6.5 7.4 6.5 4.1 0 7.5-3.4 7.5-7.5 0-2-.8-3.8-2-5.1V3zM8 18.6l-7-2.3V1.4l7 2.3v14.9zM25 3.7v7.8c-1.3-.9-2.8-1.5-4.5-1.5-.9 0-1.7.2-2.5.4v-9l7 2.3zM9 4.1l8-3v9.8c-2.4 1.2-4 3.7-4 6.6L9 19V4.1zm18 13.4c0 3.6-2.9 6.5-6.5 6.5S14 21.1 14 17.5s2.9-6.5 6.5-6.5 6.5 2.9 6.5 6.5z"/><path class="st0" d="M21 18h4v-1h-4v-4h-1v4h-4v1h4v4h1z"/></g></svg>