<svg id="Layer_1" xmlns="http://www.w3.org/2000/svg" viewBox="0 0 24 24"><style>.st0,.st1{fill:#fff;stroke:#fff}.st0{stroke-linecap:round;stroke-linejoin:round}.st1{stroke-miterlimit:10}</style><title/><g id="Text_Box"><g id="_Group_"><path id="_Rectangle_" class="st0" d="M1.5 1.5h3v3h-3z"/><path id="_Rectangle_2" class="st0" d="M1.5 19.5h3v3h-3z"/><path id="_Rectangle_3" class="st0" d="M19.5 1.5h3v3h-3z"/><path id="_Rectangle_4" class="st0" d="M19.5 19.5h3v3h-3z"/><path id="_Path_" class="st0" d="M4.5 3.5h15"/><path id="_Path_2" class="st0" d="M20.5 4.5v15"/><path id="_Path_3" class="st0" d="M19.5 20.5h-15"/><path id="_Path_4" class="st0" d="M3.5 4.5v15"/></g><path class="st1" d="M5.9 11.6zm11.9-.2c0-.1 0-.1-.1-.2l-5.6-5.6s-.1-.1-.2-.1-.1 0-.2.1l-5.6 5.6s-.1.1-.1.2.1.2.2.2h1.3v6.1h3.1v-3.5c0-.1.1-.2.2-.2h1.9c.1 0 .2.1.2.2v3.5H16v-6.1h1.3c.4 0 .5-.1.5-.2m.3.2z" id="Livello_76"/></g></svg>