<svg id="Layer_1" xmlns="http://www.w3.org/2000/svg" viewBox="0 0 128 128"><style>.st0{fill:#6f7070}</style><path class="st0" d="M61.9 66.1H16.2c-1.1 0-2-.9-2-2s.9-2 2-2h45.7c1.1 0 2 .9 2 2s-.9 2-2 2zm50 0H87.7c-1.1 0-2-.9-2-2s.9-2 2-2H112c1.1 0 2 .9 2 2-.1 1.1-1 2-2.1 2zM48.5 96.6H16.2c-1.1 0-2-.9-2-2s.9-2 2-2h32.3c1.1 0 2 .9 2 2s-.9 2-2 2zm63.4 0H74.8c-1.1 0-2-.9-2-2s.9-2 2-2h37.1c1.1 0 2 .9 2 2s-.9 2-2 2zM35 35.5H16.2c-1.1 0-2-.9-2-2s.9-2 2-2H35c1.1 0 2 .9 2 2s-.9 2-2 2zm76.9 0H60.8c-1.1 0-2-.9-2-2s.9-2 2-2h51.1c1.1 0 2 .9 2 2s-.9 2-2 2z"/><path class="st0" d="M42.6 43.1c-5.3 0-9.6-4.3-9.6-9.6s4.3-9.6 9.6-9.6 9.6 4.3 9.6 9.6-4.3 9.6-9.6 9.6zm0-15.2c-3.1 0-5.6 2.5-5.6 5.6 0 3.1 2.5 5.6 5.6 5.6s5.6-2.5 5.6-5.6c0-3.1-2.5-5.6-5.6-5.6zm13.5 76.3c-5.3 0-9.6-4.3-9.6-9.6s4.3-9.6 9.6-9.6 9.6 4.3 9.6 9.6-4.3 9.6-9.6 9.6zm0-15.2c-3.1 0-5.6 2.5-5.6 5.6 0 3.1 2.5 5.6 5.6 5.6 3.1 0 5.6-2.5 5.6-5.6 0-3.1-2.5-5.6-5.6-5.6zm13.4-15.3c-5.3 0-9.6-4.3-9.6-9.6s4.3-9.6 9.6-9.6 9.6 4.3 9.6 9.6-4.3 9.6-9.6 9.6zm0-15.2c-3.1 0-5.6 2.5-5.6 5.6 0 3.1 2.5 5.6 5.6 5.6 3.1 0 5.6-2.5 5.6-5.6 0-3.1-2.5-5.6-5.6-5.6z"/></svg>